<svg viewBox="0 0 400 500" xmlns="http://www.w3.org/2000/svg">
  <defs>
    <linearGradient id="bghc-09" x1="0" y1="0" x2="0.8" y2="1">
      <stop offset="0%" stop-color="#12002a"/>
      <stop offset="100%" stop-color="#6a0dad"/>
    </linearGradient>
  </defs>
  <rect width="400" height="500" fill="url(#bghc-09)" rx="0"/>
  
        <circle cx="200" cy="200" r="12" fill="#CDC1FF" opacity="0.8"/>
        <circle cx="100" cy="130" r="8" fill="#CDC1FF" opacity="0.6"/>
        <circle cx="300" cy="130" r="8" fill="#CDC1FF" opacity="0.6"/>
        <circle cx="80" cy="280" r="8" fill="#CDC1FF" opacity="0.5"/>
        <circle cx="320" cy="280" r="8" fill="#CDC1FF" opacity="0.5"/>
        <circle cx="200" cy="340" r="8" fill="#CDC1FF" opacity="0.6"/>
        <circle cx="150" cy="80" r="6" fill="#CDC1FF" opacity="0.4"/>
        <circle cx="250" cy="80" r="6" fill="#CDC1FF" opacity="0.4"/>
        <line x1="200" y1="200" x2="100" y2="130" stroke="#CDC1FF" stroke-width="1.5" opacity="0.4"/>
        <line x1="200" y1="200" x2="300" y2="130" stroke="#CDC1FF" stroke-width="1.5" opacity="0.4"/>
        <line x1="200" y1="200" x2="80" y2="280" stroke="#CDC1FF" stroke-width="1.5" opacity="0.4"/>
        <line x1="200" y1="200" x2="320" y2="280" stroke="#CDC1FF" stroke-width="1.5" opacity="0.4"/>
        <line x1="200" y1="200" x2="200" y2="340" stroke="#CDC1FF" stroke-width="1.5" opacity="0.4"/>
        <line x1="200" y1="200" x2="150" y2="80" stroke="#CDC1FF" stroke-width="1.5" opacity="0.3"/>
        <line x1="200" y1="200" x2="250" y2="80" stroke="#CDC1FF" stroke-width="1.5" opacity="0.3"/>
        
  <text x="32" y="468" fill="white" font-family="Arial Black,sans-serif" font-weight="900" font-size="22" opacity="0.9" letter-spacing="2">ALGORITMO</text>
</svg>