<svg xmlns="http://www.w3.org/2000/svg" viewBox="0 0 1440 720" width="1440" height="720">
  <defs>
    <linearGradient id="bgGrad" x1="0%" y1="0%" x2="100%" y2="100%">
      <stop offset="0%" style="stop-color:#1a0d06;stop-opacity:1" />
      <stop offset="100%" style="stop-color:#3d2010;stop-opacity:1" />
    </linearGradient>
    <linearGradient id="chartGrad" x1="0%" y1="0%" x2="0%" y2="100%">
      <stop offset="0%" style="stop-color:#D4B6A4;stop-opacity:0.6" />
      <stop offset="100%" style="stop-color:#D4B6A4;stop-opacity:0.05" />
    </linearGradient>
    <linearGradient id="chartGrad2" x1="0%" y1="0%" x2="0%" y2="100%">
      <stop offset="0%" style="stop-color:#F7E19B;stop-opacity:0.5" />
      <stop offset="100%" style="stop-color:#F7E19B;stop-opacity:0.02" />
    </linearGradient>
    <filter id="blur">
      <feGaussianBlur stdDeviation="2"/>
    </filter>
    <filter id="glow">
      <feGaussianBlur stdDeviation="6" result="blur"/>
      <feMerge><feMergeNode in="blur"/><feMergeNode in="SourceGraphic"/></feMerge>
    </filter>
  </defs>

  <!-- Background -->
  <rect width="1440" height="720" fill="url(#bgGrad)"/>

  <!-- Grid lines subtle -->
  <g opacity="0.06" stroke="#D4B6A4" stroke-width="1">
    <line x1="0" y1="120" x2="1440" y2="120"/>
    <line x1="0" y1="240" x2="1440" y2="240"/>
    <line x1="0" y1="360" x2="1440" y2="360"/>
    <line x1="0" y1="480" x2="1440" y2="480"/>
    <line x1="0" y1="600" x2="1440" y2="600"/>
    <line x1="240" y1="0" x2="240" y2="720"/>
    <line x1="480" y1="0" x2="480" y2="720"/>
    <line x1="720" y1="0" x2="720" y2="720"/>
    <line x1="960" y1="0" x2="960" y2="720"/>
    <line x1="1200" y1="0" x2="1200" y2="720"/>
  </g>

  <!-- ── BIG TREND CHART (right side) ── -->
  <g transform="translate(680, 80)">
    <!-- Chart container -->
    <rect width="700" height="380" rx="16" fill="rgba(255,255,255,0.04)" stroke="rgba(212,182,164,0.15)" stroke-width="1"/>

    <!-- Chart header -->
    <text x="24" y="36" fill="rgba(255,255,255,0.5)" font-family="sans-serif" font-size="11" letter-spacing="2" text-anchor="start">TENDENCIA · ÚLTIMAS 12 SEMANAS</text>
    <circle cx="640" cy="30" r="4" fill="#4ade80" opacity="0.8"/>
    <text x="650" y="34" fill="rgba(255,255,255,0.4)" font-family="sans-serif" font-size="10">EN VIVO</text>

    <!-- Area chart fill -->
    <path d="M40,300 C80,290 120,270 160,240 C200,210 240,200 280,170 C320,140 360,150 400,120 C440,90 480,80 520,55 C560,30 600,40 640,20 L640,340 L40,340 Z"
      fill="url(#chartGrad)" opacity="0.7"/>

    <!-- Chart line main -->
    <path d="M40,300 C80,290 120,270 160,240 C200,210 240,200 280,170 C320,140 360,150 400,120 C440,90 480,80 520,55 C560,30 600,40 640,20"
      fill="none" stroke="#D4B6A4" stroke-width="2.5" stroke-linecap="round"/>

    <!-- Chart line secondary -->
    <path d="M40,320 C80,318 120,310 160,295 C200,278 240,265 280,250 C320,235 360,240 400,220 C440,200 480,195 520,175 C560,155 600,160 640,140"
      fill="none" stroke="#F7E19B" stroke-width="1.5" stroke-linecap="round" opacity="0.5" stroke-dasharray="6,4"/>

    <!-- Data points -->
    <circle cx="280" cy="170" r="4" fill="#D4B6A4" filter="url(#glow)"/>
    <circle cx="400" cy="120" r="4" fill="#D4B6A4" filter="url(#glow)"/>
    <circle cx="520" cy="55" r="5" fill="#F7E19B" filter="url(#glow)"/>
    <circle cx="640" cy="20" r="5" fill="#D4B6A4" filter="url(#glow)"/>

    <!-- Spike annotation -->
    <line x1="520" y1="55" x2="520" y2="340" stroke="rgba(247,225,155,0.15)" stroke-width="1" stroke-dasharray="4,3"/>
    <rect x="470" y="8" width="110" height="28" rx="6" fill="rgba(247,225,155,0.15)" stroke="rgba(247,225,155,0.3)" stroke-width="1"/>
    <text x="525" y="26" fill="#F7E19B" font-family="sans-serif" font-size="11" font-weight="bold" text-anchor="middle">+847% reach</text>

    <!-- X axis labels -->
    <text x="40" y="358" fill="rgba(255,255,255,0.25)" font-family="sans-serif" font-size="9">Sem 1</text>
    <text x="160" y="358" fill="rgba(255,255,255,0.25)" font-family="sans-serif" font-size="9">Sem 4</text>
    <text x="280" y="358" fill="rgba(255,255,255,0.25)" font-family="sans-serif" font-size="9">Sem 6</text>
    <text x="400" y="358" fill="rgba(255,255,255,0.25)" font-family="sans-serif" font-size="9">Sem 8</text>
    <text x="520" y="358" fill="rgba(255,255,255,0.25)" font-family="sans-serif" font-size="9">Sem 10</text>
    <text x="620" y="358" fill="rgba(255,255,255,0.25)" font-family="sans-serif" font-size="9">Sem 12</text>
  </g>

  <!-- ── METRIC CARDS (bottom right) ── -->
  <g transform="translate(684, 490)">
    <!-- Card 1 -->
    <rect width="160" height="80" rx="12" fill="rgba(255,255,255,0.06)" stroke="rgba(212,182,164,0.2)" stroke-width="1"/>
    <text x="16" y="28" fill="rgba(255,255,255,0.4)" font-family="sans-serif" font-size="10" letter-spacing="1">ALCANCE</text>
    <text x="16" y="56" fill="#D4B6A4" font-family="sans-serif" font-size="28" font-weight="bold">2.4M</text>
    <text x="16" y="72" fill="#4ade80" font-family="sans-serif" font-size="10">▲ 12% esta semana</text>

    <!-- Card 2 -->
    <rect x="176" width="160" height="80" rx="12" fill="rgba(255,255,255,0.06)" stroke="rgba(247,225,155,0.2)" stroke-width="1"/>
    <text x="192" y="28" fill="rgba(255,255,255,0.4)" font-family="sans-serif" font-size="10" letter-spacing="1">ENGAGEMENT</text>
    <text x="192" y="56" fill="#F7E19B" font-family="sans-serif" font-size="28" font-weight="bold">8.7%</text>
    <text x="192" y="72" fill="#4ade80" font-family="sans-serif" font-size="10">▲ 3.2% vs anterior</text>

    <!-- Card 3 -->
    <rect x="352" width="160" height="80" rx="12" fill="rgba(255,255,255,0.06)" stroke="rgba(212,182,164,0.2)" stroke-width="1"/>
    <text x="368" y="28" fill="rgba(255,255,255,0.4)" font-family="sans-serif" font-size="10" letter-spacing="1">TENDENCIAS</text>
    <text x="368" y="56" fill="#D4B6A4" font-family="sans-serif" font-size="28" font-weight="bold">14</text>
    <text x="368" y="72" fill="rgba(255,255,255,0.35)" font-family="sans-serif" font-size="10">detectadas hoy</text>

    <!-- Card 4 -->
    <rect x="528" width="148" height="80" rx="12" fill="rgba(255,255,255,0.06)" stroke="rgba(212,182,164,0.2)" stroke-width="1"/>
    <text x="544" y="28" fill="rgba(255,255,255,0.4)" font-family="sans-serif" font-size="10" letter-spacing="1">VIRAL SCORE</text>
    <text x="544" y="56" fill="#D4B6A4" font-family="sans-serif" font-size="28" font-weight="bold">94</text>
    <text x="544" y="72" fill="#F7E19B" font-family="sans-serif" font-size="10">★ Top 5%</text>
  </g>

  <!-- ── TRENDING HASHTAGS (left floating) ── -->
  <g transform="translate(40, 100)">
    <rect width="280" height="200" rx="14" fill="rgba(255,255,255,0.05)" stroke="rgba(212,182,164,0.12)" stroke-width="1"/>
    <text x="20" y="30" fill="rgba(255,255,255,0.45)" font-family="sans-serif" font-size="10" letter-spacing="1.5">TRENDING AHORA</text>
    <line x1="20" y1="38" x2="260" y2="38" stroke="rgba(255,255,255,0.06)" stroke-width="1"/>

    <!-- Hashtag 1 -->
    <text x="20" y="64" fill="#F7E19B" font-family="sans-serif" font-size="15" font-weight="bold">#ViralMarketing</text>
    <rect x="210" y="50" width="52" height="20" rx="10" fill="rgba(74,222,128,0.15)"/>
    <text x="236" y="64" fill="#4ade80" font-family="sans-serif" font-size="10" font-weight="bold" text-anchor="middle">+342%</text>

    <!-- Hashtag 2 -->
    <text x="20" y="98" fill="rgba(255,255,255,0.7)" font-family="sans-serif" font-size="14">#ContentStrategy</text>
    <rect x="210" y="84" width="52" height="20" rx="10" fill="rgba(74,222,128,0.1)"/>
    <text x="236" y="98" fill="#4ade80" font-family="sans-serif" font-size="10" font-weight="bold" text-anchor="middle">+178%</text>

    <!-- Hashtag 3 -->
    <text x="20" y="130" fill="rgba(255,255,255,0.55)" font-family="sans-serif" font-size="13">#TendenciasIA</text>
    <rect x="210" y="116" width="52" height="20" rx="10" fill="rgba(74,222,128,0.08)"/>
    <text x="236" y="130" fill="#4ade80" font-family="sans-serif" font-size="10" font-weight="bold" text-anchor="middle">+95%</text>

    <!-- Hashtag 4 -->
    <text x="20" y="162" fill="rgba(255,255,255,0.4)" font-family="sans-serif" font-size="13">#AlgoritmosRedes</text>
    <rect x="210" y="148" width="52" height="20" rx="10" fill="rgba(212,182,164,0.1)"/>
    <text x="236" y="162" fill="#D4B6A4" font-family="sans-serif" font-size="10" font-weight="bold" text-anchor="middle">+67%</text>

    <!-- Hashtag 5 -->
    <text x="20" y="192" fill="rgba(255,255,255,0.3)" font-family="sans-serif" font-size="12">#CreatorEconomy</text>
    <rect x="210" y="178" width="52" height="20" rx="10" fill="rgba(212,182,164,0.08)"/>
    <text x="236" y="192" fill="#D4B6A4" font-family="sans-serif" font-size="10" text-anchor="middle">+41%</text>
  </g>

  <!-- ── SOCIAL POST MOCKUP ── -->
  <g transform="translate(40, 330)">
    <rect width="280" height="200" rx="14" fill="rgba(255,255,255,0.05)" stroke="rgba(212,182,164,0.12)" stroke-width="1"/>

    <!-- Post header -->
    <circle cx="36" cy="36" r="16" fill="rgba(212,182,164,0.3)"/>
    <text x="36" y="41" fill="#D4B6A4" font-family="sans-serif" font-size="14" font-weight="bold" text-anchor="middle">PF</text>
    <text x="60" y="32" fill="rgba(255,255,255,0.7)" font-family="sans-serif" font-size="12" font-weight="bold">@predictaflow</text>
    <text x="60" y="46" fill="rgba(255,255,255,0.3)" font-family="sans-serif" font-size="10">hace 2 horas · Instagram</text>

    <!-- Post text -->
    <text x="20" y="80" fill="rgba(255,255,255,0.65)" font-family="sans-serif" font-size="12">El contenido sobre IA creativa</text>
    <text x="20" y="97" fill="rgba(255,255,255,0.65)" font-family="sans-serif" font-size="12">está explotando esta semana 🚀</text>
    <text x="20" y="116" fill="#F7E19B" font-family="sans-serif" font-size="12">#TendenciasIA #ContentMarketing</text>

    <!-- Post stats -->
    <line x1="20" y1="135" x2="260" y2="135" stroke="rgba(255,255,255,0.06)" stroke-width="1"/>
    <text x="20" y="158" fill="rgba(255,255,255,0.4)" font-family="sans-serif" font-size="11">❤️ 4.821</text>
    <text x="90" y="158" fill="rgba(255,255,255,0.4)" font-family="sans-serif" font-size="11">💬 312</text>
    <text x="155" y="158" fill="rgba(255,255,255,0.4)" font-family="sans-serif" font-size="11">↗ 1.204</text>

    <!-- Viral badge -->
    <rect x="20" y="170" width="80" height="20" rx="10" fill="rgba(247,225,155,0.2)" stroke="rgba(247,225,155,0.4)" stroke-width="1"/>
    <text x="60" y="183" fill="#F7E19B" font-family="sans-serif" font-size="10" font-weight="bold" text-anchor="middle">✦ VIRAL</text>
  </g>

  <!-- ── MINI BARS (top center, decorative) ── -->
  <g transform="translate(380, 120)" opacity="0.25">
    <rect x="0" y="40" width="14" height="20" rx="3" fill="#D4B6A4"/>
    <rect x="20" y="25" width="14" height="35" rx="3" fill="#D4B6A4"/>
    <rect x="40" y="10" width="14" height="50" rx="3" fill="#F7E19B"/>
    <rect x="60" y="30" width="14" height="30" rx="3" fill="#D4B6A4"/>
    <rect x="80" y="15" width="14" height="45" rx="3" fill="#D4B6A4"/>
    <rect x="100" y="5" width="14" height="55" rx="3" fill="#F7E19B"/>
    <rect x="120" y="20" width="14" height="40" rx="3" fill="#D4B6A4"/>
  </g>

  <!-- ── FLOATING DOTS (decorative) ── -->
  <circle cx="350" cy="580" r="3" fill="#D4B6A4" opacity="0.3"/>
  <circle cx="380" cy="560" r="2" fill="#F7E19B" opacity="0.25"/>
  <circle cx="410" cy="590" r="4" fill="#D4B6A4" opacity="0.15"/>
  <circle cx="620" cy="640" r="3" fill="#F7E19B" opacity="0.2"/>
  <circle cx="650" cy="620" r="2" fill="#D4B6A4" opacity="0.25"/>

  <!-- ── AI SIGNAL LINE (decorative diagonal) ── -->
  <path d="M 340 700 Q 500 400 700 200" stroke="rgba(212,182,164,0.06)" stroke-width="60" fill="none"/>
</svg>
