<?xml version="1.0" encoding="UTF-8"?>
<svg id="Capa_1" xmlns="http://www.w3.org/2000/svg" version="1.1" viewBox="0 0 886.86 889.97">
  <!-- Generator: Adobe Illustrator 30.0.0, SVG Export Plug-In . SVG Version: 2.1.1 Build 123)  -->
  <defs>
    <style>
      .st0 {
        fill: #4343ff;
      }

      .st1 {
        isolation: isolate;
      }

      .st2 {
        fill: #4343ff;
      }

      .st3 {
        fill: #ffd802;
      }

      .st4 {
        fill: #ffd802;
      }
    </style>
  </defs>
  <g class="st1">
    <path class="st2" d="M-942.41-308.74c8.22,0,16.06,1.6,23.52,4.8,7.46,3.2,14,7.57,19.64,13.13,5.63,5.56,10.08,12.03,13.36,19.41,3.27,7.39,4.91,15.26,4.91,23.63s-1.64,16.02-4.91,23.41c-3.28,7.39-7.73,13.85-13.36,19.41-5.63,5.56-12.18,9.97-19.64,13.24-7.46,3.28-15.3,4.91-23.52,4.91h-19.41v61.43c0,2.89-.99,5.37-2.97,7.42-1.98,2.06-4.49,3.08-7.54,3.08h-15.76c-2.89,0-5.37-1.03-7.42-3.08s-3.08-4.53-3.08-7.42v-172.86c0-3.04,1.03-5.55,3.08-7.54,2.06-1.98,4.53-2.97,7.42-2.97h45.67ZM-942.41-211.92c4.11,0,7.69-.95,10.73-2.85,3.04-1.9,5.59-4.49,7.65-7.76,2.05-3.27,3.61-7.08,4.68-11.42,1.06-4.34,1.6-8.94,1.6-13.82s-.54-9.51-1.6-13.93c-1.07-4.41-2.63-8.26-4.68-11.53-2.06-3.27-4.61-5.86-7.65-7.76-3.05-1.9-6.62-2.85-10.73-2.85h-19.41v71.93h19.41Z"/>
    <path class="st2" d="M-646.93-151.64c3.04,0,5.55,1.03,7.54,3.08,1.98,2.06,2.97,4.53,2.97,7.42v15.76c0,2.89-.99,5.37-2.97,7.42-1.98,2.06-4.49,3.08-7.54,3.08h-102.53c-10.96,0-20.89-1.83-29.8-5.48s-16.63-8.72-23.18-15.19c-6.55-6.47-11.72-14.08-15.53-22.83-3.81-8.75-6.16-18.23-7.08-28.43h-7.76v61.43c0,2.89-.99,5.37-2.97,7.42-1.98,2.06-4.49,3.08-7.54,3.08h-15.76c-2.89,0-5.37-1.03-7.42-3.08-2.06-2.05-3.08-4.53-3.08-7.42v-172.86c0-3.04,1.03-5.55,3.08-7.54,2.05-1.98,4.53-2.97,7.42-2.97h45.67c8.22,0,16.06,1.6,23.52,4.8,7.46,3.2,14,7.57,19.64,13.13,5.63,5.56,10.08,12.03,13.36,19.41,3.27,7.39,4.91,15.26,4.91,23.63,0,6.09-.91,11.95-2.74,17.58-1.83,5.63-4.38,10.85-7.65,15.64-3.28,4.8-7.16,9.1-11.65,12.9-4.49,3.81-9.4,6.93-14.73,9.36,0,6.09,1.14,11.61,3.42,16.55,2.28,4.95,5.29,9.21,9.02,12.79,3.73,3.58,7.91,6.36,12.56,8.33,4.64,1.98,9.4,2.97,14.27,2.97h102.53ZM-832.8-211.92h19.41c4.11,0,7.68-.95,10.73-2.85,3.04-1.9,5.59-4.49,7.65-7.76,2.06-3.27,3.62-7.08,4.68-11.42,1.06-4.34,1.6-8.94,1.6-13.82s-.54-9.51-1.6-13.93c-1.07-4.41-2.63-8.26-4.68-11.53-2.05-3.27-4.61-5.86-7.65-7.76-3.05-1.9-6.62-2.85-10.73-2.85h-19.41v71.93ZM-644.19-308.74c2.13,0,3.96.76,5.48,2.28,1.52,1.52,2.28,3.35,2.28,5.48v9.36c0,2.13-.76,3.96-2.28,5.48s-3.35,2.28-5.48,2.28h-59.83v52.98h36.31c2.13,0,3.96.76,5.48,2.28,1.52,1.52,2.28,3.35,2.28,5.48v9.36c0,2.13-.76,3.96-2.28,5.48-1.52,1.52-3.35,2.28-5.48,2.28h-36.31v43.16h-36.76v-135.41c0-3.04,1.03-5.55,3.08-7.54,2.05-1.98,4.53-2.97,7.42-2.97h86.09Z"/>
    <path class="st2" d="M-577.05-308.74c10.96,0,21.16,2.51,30.6,7.54,9.44,5.02,17.62,11.88,24.55,20.55,6.93,8.68,12.37,18.92,16.33,30.71,3.96,11.8,5.94,24.47,5.94,38.02s-1.98,26.22-5.94,38.02c-3.96,11.8-9.4,22.07-16.33,30.83-6.93,8.76-15.11,15.64-24.55,20.67-9.44,5.02-19.64,7.54-30.6,7.54h-37.45c-3.05,0-5.56-1.03-7.54-3.08-1.98-2.05-2.97-4.53-2.97-7.42v-172.86c0-2.89.99-5.37,2.97-7.42,1.98-2.06,4.49-3.08,7.54-3.08h37.45ZM-577.05-139.76c6.85,0,12.79-1.86,17.81-5.59,5.02-3.73,9.25-8.83,12.67-15.3,3.43-6.47,5.97-14.08,7.65-22.83,1.67-8.75,2.51-18.23,2.51-28.43s-.84-19.45-2.51-28.2c-1.68-8.75-4.22-16.36-7.65-22.83-3.42-6.47-7.65-11.57-12.67-15.3-5.02-3.73-10.96-5.59-17.81-5.59h-11.19v144.09h11.19Z"/>
    <path class="st2" d="M-461.96-114.87h-15.76c-3.05,0-5.56-1.03-7.54-3.08-1.98-2.05-2.97-4.53-2.97-7.42v-172.86c0-2.89.99-5.37,2.97-7.42,1.98-2.06,4.49-3.08,7.54-3.08h15.76c2.89,0,5.37,1.03,7.42,3.08,2.05,2.05,3.08,4.53,3.08,7.42V-125.38c0,2.89-1.03,5.37-3.08,7.42-2.05,2.06-4.53,3.08-7.42,3.08Z"/>
    <path class="st2" d="M-247.09-175.04c1.98,2.67,2.59,5.67,1.83,9.02-2.13,7.61-5.94,14.61-11.42,21.01-5.48,6.39-12.14,11.95-19.98,16.67-7.84,4.72-16.67,8.37-26.49,10.96-9.82,2.59-20.13,3.88-30.94,3.88-14.92,0-28.81-2.59-41.67-7.76-12.87-5.18-24.05-12.22-33.57-21.12-9.52-8.91-17.01-19.33-22.49-31.28-5.48-11.95-8.22-24.7-8.22-38.25s2.74-26.26,8.22-38.13c5.48-11.87,12.98-22.26,22.49-31.17,9.51-8.91,20.7-15.95,33.57-21.12,12.86-5.17,26.75-7.76,41.67-7.76,10.81,0,21.12,1.29,30.94,3.88,9.82,2.59,18.65,6.24,26.49,10.96,7.84,4.72,14.5,10.28,19.98,16.67,5.48,6.39,9.28,13.4,11.42,21.01.76,3.35.15,6.36-1.83,9.02-1.98,2.67-4.72,4-8.22,4h-15.98c-2.44,0-4.57-.76-6.39-2.28-1.83-1.52-3.05-3.5-3.65-5.94-1.07-4.87-3.08-9.32-6.05-13.36-2.97-4.03-6.74-7.46-11.3-10.28-4.57-2.82-9.86-4.98-15.87-6.51-6.02-1.52-12.52-2.28-19.52-2.28-10.2,0-19.56,1.94-28.09,5.82-8.53,3.88-15.83,9.13-21.92,15.76-6.09,6.62-10.81,14.39-14.16,23.29-3.35,8.91-5.02,18.38-5.02,28.43s1.67,19.75,5.02,28.66c3.35,8.91,8.07,16.67,14.16,23.29,6.09,6.62,13.39,11.87,21.92,15.76,8.52,3.88,17.89,5.82,28.09,5.82,14.16,0,25.95-2.93,35.39-8.79,9.44-5.86,15.22-13.74,17.35-23.63.61-2.43,1.83-4.41,3.65-5.94,1.83-1.52,3.96-2.28,6.39-2.28h15.98c3.5,0,6.24,1.33,8.22,4Z"/>
    <path class="st2" d="M-63.72-308.74c2.13,0,3.96.76,5.48,2.28,1.52,1.52,2.28,3.35,2.28,5.48v9.36c0,2.13-.76,3.96-2.28,5.48-1.52,1.52-3.35,2.28-5.48,2.28h-104.81V-125.38c0,2.89-1.03,5.37-3.08,7.42s-4.53,3.08-7.42,3.08h-15.76c-2.89,0-5.37-1.03-7.42-3.08s-3.08-4.53-3.08-7.42v-158.47h-31.51c-2.13,0-4-.76-5.59-2.28-1.6-1.52-2.4-3.35-2.4-5.48v-9.36c0-2.13.8-3.96,2.4-5.48,1.6-1.52,3.46-2.28,5.59-2.28H-63.72ZM-55.96-122.86c.3,2.13-.15,4-1.37,5.59-1.22,1.6-2.89,2.4-5.02,2.4h-22.61c-2.13,0-3.96-.8-5.48-2.4-1.52-1.6-2.51-3.46-2.97-5.59l-5.71-29.69h-25.35l-7.31,31.74c-.31,1.67-.99,3.08-2.05,4.22-1.07,1.14-2.44,1.71-4.11,1.71h-14.62c-1.68,0-2.93-.57-3.77-1.71-.84-1.14-1.11-2.55-.8-4.22l30.83-134.04c.3-1.67,1.18-3.08,2.63-4.22,1.45-1.14,3-1.71,4.68-1.71h28.09c2.13,0,4.15.76,6.05,2.28,1.9,1.52,3,3.42,3.31,5.71l25.58,129.93ZM-104.14-177.44l-6.62-34.48-7.99,34.48h14.62Z"/>
    <path class="st2" d="M57.76-306.46c1.52,1.52,2.28,3.35,2.28,5.48v9.36c0,2.13-.76,3.96-2.28,5.48-1.52,1.52-3.35,2.28-5.48,2.28H-7.55v58.46H28.53c2.13,0,3.96.8,5.48,2.4,1.52,1.6,2.28,3.46,2.28,5.59v9.36c0,2.13-.76,3.96-2.28,5.48s-3.35,2.28-5.48,2.28H-7.55v74.9c0,2.89-1.03,5.37-3.08,7.42-2.05,2.06-4.53,3.08-7.42,3.08h-15.76c-3.05,0-5.56-1.03-7.54-3.08-1.98-2.05-2.97-4.53-2.97-7.42v-172.86c0-2.89.99-5.37,2.97-7.42,1.98-2.06,4.49-3.08,7.54-3.08H52.28c2.13,0,3.96.76,5.48,2.28Z"/>
    <path class="st2" d="M258.93-139.76c2.13,0,3.96.76,5.48,2.28,1.52,1.52,2.28,3.35,2.28,5.48v9.36c0,2.13-.76,3.96-2.28,5.48-1.52,1.52-3.35,2.28-5.48,2.28H82.19c-3.05,0-5.59-1.03-7.65-3.08-2.06-2.05-3.08-4.53-3.08-7.42v-172.86c0-3.04,1.03-5.55,3.08-7.54,2.05-1.98,4.6-2.97,7.65-2.97h15.53c3.04,0,5.56.99,7.54,2.97,1.98,1.98,2.97,4.49,2.97,7.54v158.48h150.71ZM193.17-162.83c-10.2,0-19.75-1.94-28.66-5.82s-16.67-9.17-23.29-15.87c-6.62-6.7-11.87-14.5-15.76-23.41-3.88-8.91-5.82-18.46-5.82-28.66s1.94-19.75,5.82-28.66c3.88-8.91,9.13-16.67,15.76-23.29s14.39-11.87,23.29-15.76,18.46-5.82,28.66-5.82,19.75,1.94,28.66,5.82c8.91,3.88,16.67,9.13,23.29,15.76s11.87,14.39,15.76,23.29c3.88,8.91,5.82,18.46,5.82,28.66s-1.94,19.75-5.82,28.66c-3.88,8.91-9.13,16.71-15.76,23.41-6.62,6.7-14.39,11.99-23.29,15.87-8.91,3.88-18.46,5.82-28.66,5.82ZM193.17-285.22c-5.63,0-10.7,1.29-15.19,3.88-4.49,2.59-8.33,6.09-11.53,10.5-3.2,4.42-5.67,9.55-7.42,15.41-1.75,5.86-2.63,12.14-2.63,18.84s.87,13.02,2.63,18.95c1.75,5.94,4.22,11.11,7.42,15.53,3.2,4.42,7.04,7.92,11.53,10.5,4.49,2.59,9.55,3.88,15.19,3.88s10.69-1.29,15.18-3.88c4.49-2.59,8.33-6.09,11.53-10.5,3.2-4.41,5.67-9.59,7.42-15.53,1.75-5.94,2.63-12.25,2.63-18.95s-.88-12.98-2.63-18.84c-1.75-5.86-4.22-11-7.42-15.41-3.2-4.41-7.04-7.91-11.53-10.5-4.49-2.59-9.55-3.88-15.18-3.88Z"/>
    <path class="st2" d="M450.07-306.46c1.22,1.52,1.52,3.35.91,5.48l-40.87,178.34c-.61,2.13-1.83,3.96-3.65,5.48-1.83,1.52-3.81,2.28-5.94,2.28h-22.38c-3.05,0-5.79-1.03-8.22-3.08-2.44-2.05-3.96-4.53-4.57-7.42l-8.91-45.9-11.19,48.64c-.46,2.13-1.64,3.96-3.54,5.48-1.91,1.52-3.92,2.28-6.05,2.28h-22.38c-2.89,0-5.56-1.03-7.99-3.08-2.44-2.05-3.96-4.53-4.57-7.42l-33.8-172.86c-.61-3.04-.08-5.55,1.6-7.54,1.67-1.98,3.96-2.97,6.85-2.97h18.95c3.04,0,5.33.99,6.85,2.97,1.52,1.98,2.59,4.49,3.2,7.54l25.58,130.84,14.84-64.17-13.02-66.68c-.61-3.04-.11-5.55,1.48-7.54,1.6-1.98,3.92-2.97,6.96-2.97h18.95c2.89,0,5.14.99,6.74,2.97,1.6,1.98,2.7,4.49,3.31,7.54l25.58,130.84,30.6-133.58c.61-2.13,1.6-3.96,2.97-5.48,1.37-1.52,3.12-2.28,5.25-2.28h11.42c2.13,0,3.8.76,5.02,2.28Z"/>
  </g>
  <g class="st1">
    <path class="st3" d="M588.76-308.74c8.22,0,16.06,1.6,23.52,4.8,7.46,3.2,14,7.57,19.64,13.13,5.63,5.56,10.08,12.03,13.36,19.41,3.27,7.39,4.91,15.26,4.91,23.63s-1.64,16.02-4.91,23.41c-3.28,7.39-7.73,13.85-13.36,19.41-5.63,5.56-12.18,9.97-19.64,13.24-7.46,3.28-15.3,4.91-23.52,4.91h-19.41v61.43c0,2.89-.99,5.37-2.97,7.42-1.98,2.06-4.49,3.08-7.54,3.08h-15.76c-2.89,0-5.37-1.03-7.42-3.08s-3.08-4.53-3.08-7.42v-172.86c0-3.04,1.03-5.55,3.08-7.54,2.06-1.98,4.53-2.97,7.42-2.97h45.67ZM588.76-211.92c4.11,0,7.69-.95,10.73-2.85,3.04-1.9,5.59-4.49,7.65-7.76,2.05-3.27,3.61-7.08,4.68-11.42,1.06-4.34,1.6-8.94,1.6-13.82s-.54-9.51-1.6-13.93c-1.07-4.41-2.63-8.26-4.68-11.53-2.06-3.27-4.61-5.86-7.65-7.76-3.05-1.9-6.62-2.85-10.73-2.85h-19.41v71.93h19.41Z"/>
    <path class="st3" d="M884.24-151.64c3.04,0,5.55,1.03,7.54,3.08,1.98,2.06,2.97,4.53,2.97,7.42v15.76c0,2.89-.99,5.37-2.97,7.42-1.98,2.06-4.49,3.08-7.54,3.08h-102.53c-10.96,0-20.89-1.83-29.8-5.48s-16.63-8.72-23.18-15.19c-6.55-6.47-11.72-14.08-15.53-22.83-3.81-8.75-6.16-18.23-7.08-28.43h-7.76v61.43c0,2.89-.99,5.37-2.97,7.42-1.98,2.06-4.49,3.08-7.54,3.08h-15.76c-2.89,0-5.37-1.03-7.42-3.08-2.06-2.05-3.08-4.53-3.08-7.42v-172.86c0-3.04,1.03-5.55,3.08-7.54,2.05-1.98,4.53-2.97,7.42-2.97h45.67c8.22,0,16.06,1.6,23.52,4.8,7.46,3.2,14,7.57,19.64,13.13,5.63,5.56,10.08,12.03,13.36,19.41,3.27,7.39,4.91,15.26,4.91,23.63,0,6.09-.91,11.95-2.74,17.58-1.83,5.63-4.38,10.85-7.65,15.64-3.28,4.8-7.16,9.1-11.65,12.9-4.49,3.81-9.4,6.93-14.73,9.36,0,6.09,1.14,11.61,3.42,16.55,2.28,4.95,5.29,9.21,9.02,12.79,3.73,3.58,7.91,6.36,12.56,8.33,4.64,1.98,9.4,2.97,14.27,2.97h102.53ZM698.36-211.92h19.41c4.11,0,7.68-.95,10.73-2.85,3.04-1.9,5.59-4.49,7.65-7.76,2.06-3.27,3.62-7.08,4.68-11.42,1.06-4.34,1.6-8.94,1.6-13.82s-.54-9.51-1.6-13.93c-1.07-4.41-2.63-8.26-4.68-11.53-2.05-3.27-4.61-5.86-7.65-7.76-3.05-1.9-6.62-2.85-10.73-2.85h-19.41v71.93ZM886.98-308.74c2.13,0,3.96.76,5.48,2.28,1.52,1.52,2.28,3.35,2.28,5.48v9.36c0,2.13-.76,3.96-2.28,5.48s-3.35,2.28-5.48,2.28h-59.83v52.98h36.31c2.13,0,3.96.76,5.48,2.28,1.52,1.52,2.28,3.35,2.28,5.48v9.36c0,2.13-.76,3.96-2.28,5.48-1.52,1.52-3.35,2.28-5.48,2.28h-36.31v43.16h-36.76v-135.41c0-3.04,1.03-5.55,3.08-7.54,2.05-1.98,4.53-2.97,7.42-2.97h86.09Z"/>
    <path class="st3" d="M954.11-308.74c10.96,0,21.16,2.51,30.6,7.54,9.44,5.02,17.62,11.88,24.55,20.55,6.93,8.68,12.37,18.92,16.33,30.71,3.96,11.8,5.94,24.47,5.94,38.02s-1.98,26.22-5.94,38.02c-3.96,11.8-9.4,22.07-16.33,30.83-6.93,8.76-15.11,15.64-24.55,20.67-9.44,5.02-19.64,7.54-30.6,7.54h-37.45c-3.05,0-5.56-1.03-7.54-3.08-1.98-2.05-2.97-4.53-2.97-7.42v-172.86c0-2.89.99-5.37,2.97-7.42,1.98-2.06,4.49-3.08,7.54-3.08h37.45ZM954.11-139.76c6.85,0,12.79-1.86,17.81-5.59,5.02-3.73,9.25-8.83,12.67-15.3,3.43-6.47,5.97-14.08,7.65-22.83,1.67-8.75,2.51-18.23,2.51-28.43s-.84-19.45-2.51-28.2c-1.68-8.75-4.22-16.36-7.65-22.83-3.42-6.47-7.65-11.57-12.67-15.3-5.02-3.73-10.96-5.59-17.81-5.59h-11.19v144.09h11.19Z"/>
    <path class="st3" d="M1069.2-114.87h-15.76c-3.05,0-5.56-1.03-7.54-3.08-1.98-2.05-2.97-4.53-2.97-7.42v-172.86c0-2.89.99-5.37,2.97-7.42,1.98-2.06,4.49-3.08,7.54-3.08h15.76c2.89,0,5.37,1.03,7.42,3.08,2.05,2.05,3.08,4.53,3.08,7.42V-125.38c0,2.89-1.03,5.37-3.08,7.42-2.05,2.06-4.53,3.08-7.42,3.08Z"/>
    <path class="st3" d="M1284.08-175.04c1.98,2.67,2.59,5.67,1.83,9.02-2.13,7.61-5.94,14.61-11.42,21.01-5.48,6.39-12.14,11.95-19.98,16.67-7.84,4.72-16.67,8.37-26.49,10.96-9.82,2.59-20.13,3.88-30.94,3.88-14.92,0-28.81-2.59-41.67-7.76-12.87-5.18-24.05-12.22-33.57-21.12-9.52-8.91-17.01-19.33-22.49-31.28-5.48-11.95-8.22-24.7-8.22-38.25s2.74-26.26,8.22-38.13c5.48-11.87,12.98-22.26,22.49-31.17,9.51-8.91,20.7-15.95,33.57-21.12,12.86-5.17,26.75-7.76,41.67-7.76,10.81,0,21.12,1.29,30.94,3.88,9.82,2.59,18.65,6.24,26.49,10.96,7.84,4.72,14.5,10.28,19.98,16.67,5.48,6.39,9.28,13.4,11.42,21.01.76,3.35.15,6.36-1.83,9.02-1.98,2.67-4.72,4-8.22,4h-15.98c-2.44,0-4.57-.76-6.39-2.28-1.83-1.52-3.05-3.5-3.65-5.94-1.07-4.87-3.08-9.32-6.05-13.36-2.97-4.03-6.74-7.46-11.3-10.28-4.57-2.82-9.86-4.98-15.87-6.51-6.02-1.52-12.52-2.28-19.52-2.28-10.2,0-19.56,1.94-28.09,5.82-8.53,3.88-15.83,9.13-21.92,15.76-6.09,6.62-10.81,14.39-14.16,23.29-3.35,8.91-5.02,18.38-5.02,28.43s1.67,19.75,5.02,28.66c3.35,8.91,8.07,16.67,14.16,23.29,6.09,6.62,13.39,11.87,21.92,15.76,8.52,3.88,17.89,5.82,28.09,5.82,14.16,0,25.95-2.93,35.39-8.79,9.44-5.86,15.22-13.74,17.35-23.63.61-2.43,1.83-4.41,3.65-5.94,1.83-1.52,3.96-2.28,6.39-2.28h15.98c3.5,0,6.24,1.33,8.22,4Z"/>
    <path class="st3" d="M1467.45-308.74c2.13,0,3.96.76,5.48,2.28,1.52,1.52,2.28,3.35,2.28,5.48v9.36c0,2.13-.76,3.96-2.28,5.48-1.52,1.52-3.35,2.28-5.48,2.28h-104.81V-125.38c0,2.89-1.03,5.37-3.08,7.42s-4.53,3.08-7.42,3.08h-15.76c-2.89,0-5.37-1.03-7.42-3.08s-3.08-4.53-3.08-7.42v-158.47h-31.51c-2.13,0-4-.76-5.59-2.28-1.6-1.52-2.4-3.35-2.4-5.48v-9.36c0-2.13.8-3.96,2.4-5.48,1.6-1.52,3.46-2.28,5.59-2.28h173.09ZM1475.21-122.86c.3,2.13-.15,4-1.37,5.59-1.22,1.6-2.89,2.4-5.02,2.4h-22.61c-2.13,0-3.96-.8-5.48-2.4-1.52-1.6-2.51-3.46-2.97-5.59l-5.71-29.69h-25.35l-7.31,31.74c-.31,1.67-.99,3.08-2.05,4.22-1.07,1.14-2.44,1.71-4.11,1.71h-14.62c-1.68,0-2.93-.57-3.77-1.71-.84-1.14-1.11-2.55-.8-4.22l30.83-134.04c.3-1.67,1.18-3.08,2.63-4.22,1.45-1.14,3-1.71,4.68-1.71h28.09c2.13,0,4.15.76,6.05,2.28,1.9,1.52,3,3.42,3.31,5.71l25.58,129.93ZM1427.03-177.44l-6.62-34.48-7.99,34.48h14.62Z"/>
    <path class="st3" d="M1588.93-306.46c1.52,1.52,2.28,3.35,2.28,5.48v9.36c0,2.13-.76,3.96-2.28,5.48-1.52,1.52-3.35,2.28-5.48,2.28h-59.83v58.46h36.08c2.13,0,3.96.8,5.48,2.4,1.52,1.6,2.28,3.46,2.28,5.59v9.36c0,2.13-.76,3.96-2.28,5.48s-3.35,2.28-5.48,2.28h-36.08v74.9c0,2.89-1.03,5.37-3.08,7.42-2.05,2.06-4.53,3.08-7.42,3.08h-15.76c-3.05,0-5.56-1.03-7.54-3.08-1.98-2.05-2.97-4.53-2.97-7.42v-172.86c0-2.89.99-5.37,2.97-7.42,1.98-2.06,4.49-3.08,7.54-3.08h86.09c2.13,0,3.96.76,5.48,2.28Z"/>
    <path class="st3" d="M1790.1-139.76c2.13,0,3.96.76,5.48,2.28,1.52,1.52,2.28,3.35,2.28,5.48v9.36c0,2.13-.76,3.96-2.28,5.48-1.52,1.52-3.35,2.28-5.48,2.28h-176.74c-3.05,0-5.59-1.03-7.65-3.08-2.06-2.05-3.08-4.53-3.08-7.42v-172.86c0-3.04,1.03-5.55,3.08-7.54,2.05-1.98,4.6-2.97,7.65-2.97h15.53c3.04,0,5.56.99,7.54,2.97,1.98,1.98,2.97,4.49,2.97,7.54v158.48h150.71ZM1724.34-162.83c-10.2,0-19.75-1.94-28.66-5.82s-16.67-9.17-23.29-15.87c-6.62-6.7-11.87-14.5-15.76-23.41-3.88-8.91-5.82-18.46-5.82-28.66s1.94-19.75,5.82-28.66c3.88-8.91,9.13-16.67,15.76-23.29s14.39-11.87,23.29-15.76,18.46-5.82,28.66-5.82,19.75,1.94,28.66,5.82c8.91,3.88,16.67,9.13,23.29,15.76s11.87,14.39,15.76,23.29c3.88,8.91,5.82,18.46,5.82,28.66s-1.94,19.75-5.82,28.66c-3.88,8.91-9.13,16.71-15.76,23.41-6.62,6.7-14.39,11.99-23.29,15.87-8.91,3.88-18.46,5.82-28.66,5.82ZM1724.34-285.22c-5.63,0-10.7,1.29-15.19,3.88-4.49,2.59-8.33,6.09-11.53,10.5-3.2,4.42-5.67,9.55-7.42,15.41-1.75,5.86-2.63,12.14-2.63,18.84s.87,13.02,2.63,18.95c1.75,5.94,4.22,11.11,7.42,15.53,3.2,4.42,7.04,7.92,11.53,10.5,4.49,2.59,9.55,3.88,15.19,3.88s10.69-1.29,15.18-3.88c4.49-2.59,8.33-6.09,11.53-10.5,3.2-4.41,5.67-9.59,7.42-15.53,1.75-5.94,2.63-12.25,2.63-18.95s-.88-12.98-2.63-18.84c-1.75-5.86-4.22-11-7.42-15.41-3.2-4.41-7.04-7.91-11.53-10.5-4.49-2.59-9.55-3.88-15.18-3.88Z"/>
    <path class="st3" d="M1981.23-306.46c1.22,1.52,1.52,3.35.91,5.48l-40.87,178.34c-.61,2.13-1.83,3.96-3.65,5.48-1.83,1.52-3.81,2.28-5.94,2.28h-22.38c-3.05,0-5.79-1.03-8.22-3.08-2.44-2.05-3.96-4.53-4.57-7.42l-8.91-45.9-11.19,48.64c-.46,2.13-1.64,3.96-3.54,5.48-1.91,1.52-3.92,2.28-6.05,2.28h-22.38c-2.89,0-5.56-1.03-7.99-3.08-2.44-2.05-3.96-4.53-4.57-7.42l-33.8-172.86c-.61-3.04-.08-5.55,1.6-7.54,1.67-1.98,3.96-2.97,6.85-2.97h18.95c3.04,0,5.33.99,6.85,2.97,1.52,1.98,2.59,4.49,3.2,7.54l25.58,130.84,14.84-64.17-13.02-66.68c-.61-3.04-.11-5.55,1.48-7.54,1.6-1.98,3.92-2.97,6.96-2.97h18.95c2.89,0,5.14.99,6.74,2.97,1.6,1.98,2.7,4.49,3.31,7.54l25.58,130.84,30.6-133.58c.61-2.13,1.6-3.96,2.97-5.48,1.37-1.52,3.12-2.28,5.25-2.28h11.42c2.13,0,3.8.76,5.02,2.28Z"/>
  </g>
  <g class="st1">
    <path class="st0" d="M2119.92-308.74c8.22,0,16.06,1.6,23.52,4.8,7.46,3.2,14,7.57,19.64,13.13,5.63,5.56,10.08,12.03,13.36,19.41,3.27,7.39,4.91,15.26,4.91,23.63s-1.64,16.02-4.91,23.41c-3.28,7.39-7.73,13.85-13.36,19.41-5.63,5.56-12.18,9.97-19.64,13.24-7.46,3.28-15.3,4.91-23.52,4.91h-19.41v61.43c0,2.89-.99,5.37-2.97,7.42-1.98,2.06-4.49,3.08-7.54,3.08h-15.76c-2.89,0-5.37-1.03-7.42-3.08s-3.08-4.53-3.08-7.42v-172.86c0-3.04,1.03-5.55,3.08-7.54,2.06-1.98,4.53-2.97,7.42-2.97h45.67ZM2119.92-211.92c4.11,0,7.69-.95,10.73-2.85,3.04-1.9,5.59-4.49,7.65-7.76,2.05-3.27,3.61-7.08,4.68-11.42,1.06-4.34,1.6-8.94,1.6-13.82s-.54-9.51-1.6-13.93c-1.07-4.41-2.63-8.26-4.68-11.53-2.06-3.27-4.61-5.86-7.65-7.76-3.05-1.9-6.62-2.85-10.73-2.85h-19.41v71.93h19.41Z"/>
    <path class="st0" d="M2415.41-151.64c3.04,0,5.55,1.03,7.54,3.08,1.98,2.06,2.97,4.53,2.97,7.42v15.76c0,2.89-.99,5.37-2.97,7.42-1.98,2.06-4.49,3.08-7.54,3.08h-102.53c-10.96,0-20.89-1.83-29.8-5.48s-16.63-8.72-23.18-15.19c-6.55-6.47-11.72-14.08-15.53-22.83-3.81-8.75-6.16-18.23-7.08-28.43h-7.76v61.43c0,2.89-.99,5.37-2.97,7.42-1.98,2.06-4.49,3.08-7.54,3.08h-15.76c-2.89,0-5.37-1.03-7.42-3.08-2.06-2.05-3.08-4.53-3.08-7.42v-172.86c0-3.04,1.03-5.55,3.08-7.54,2.05-1.98,4.53-2.97,7.42-2.97h45.67c8.22,0,16.06,1.6,23.52,4.8,7.46,3.2,14,7.57,19.64,13.13,5.63,5.56,10.08,12.03,13.36,19.41,3.27,7.39,4.91,15.26,4.91,23.63,0,6.09-.91,11.95-2.74,17.58-1.83,5.63-4.38,10.85-7.65,15.64-3.28,4.8-7.16,9.1-11.65,12.9-4.49,3.81-9.4,6.93-14.73,9.36,0,6.09,1.14,11.61,3.42,16.55,2.28,4.95,5.29,9.21,9.02,12.79,3.73,3.58,7.91,6.36,12.56,8.33,4.64,1.98,9.4,2.97,14.27,2.97h102.53ZM2229.53-211.92h19.41c4.11,0,7.68-.95,10.73-2.85,3.04-1.9,5.59-4.49,7.65-7.76,2.06-3.27,3.62-7.08,4.68-11.42,1.06-4.34,1.6-8.94,1.6-13.82s-.54-9.51-1.6-13.93c-1.07-4.41-2.63-8.26-4.68-11.53-2.05-3.27-4.61-5.86-7.65-7.76-3.05-1.9-6.62-2.85-10.73-2.85h-19.41v71.93ZM2418.15-308.74c2.13,0,3.96.76,5.48,2.28,1.52,1.52,2.28,3.35,2.28,5.48v9.36c0,2.13-.76,3.96-2.28,5.48s-3.35,2.28-5.48,2.28h-59.83v52.98h36.31c2.13,0,3.96.76,5.48,2.28,1.52,1.52,2.28,3.35,2.28,5.48v9.36c0,2.13-.76,3.96-2.28,5.48-1.52,1.52-3.35,2.28-5.48,2.28h-36.31v43.16h-36.76v-135.41c0-3.04,1.03-5.55,3.08-7.54,2.05-1.98,4.53-2.97,7.42-2.97h86.09Z"/>
    <path class="st0" d="M2485.28-308.74c10.96,0,21.16,2.51,30.6,7.54,9.44,5.02,17.62,11.88,24.55,20.55,6.93,8.68,12.37,18.92,16.33,30.71,3.96,11.8,5.94,24.47,5.94,38.02s-1.98,26.22-5.94,38.02c-3.96,11.8-9.4,22.07-16.33,30.83-6.93,8.76-15.11,15.64-24.55,20.67-9.44,5.02-19.64,7.54-30.6,7.54h-37.45c-3.05,0-5.56-1.03-7.54-3.08-1.98-2.05-2.97-4.53-2.97-7.42v-172.86c0-2.89.99-5.37,2.97-7.42,1.98-2.06,4.49-3.08,7.54-3.08h37.45ZM2485.28-139.76c6.85,0,12.79-1.86,17.81-5.59,5.02-3.73,9.25-8.83,12.67-15.3,3.43-6.47,5.97-14.08,7.65-22.83,1.67-8.75,2.51-18.23,2.51-28.43s-.84-19.45-2.51-28.2c-1.68-8.75-4.22-16.36-7.65-22.83-3.42-6.47-7.65-11.57-12.67-15.3-5.02-3.73-10.96-5.59-17.81-5.59h-11.19v144.09h11.19Z"/>
    <path class="st0" d="M2600.37-114.87h-15.76c-3.05,0-5.56-1.03-7.54-3.08-1.98-2.05-2.97-4.53-2.97-7.42v-172.86c0-2.89.99-5.37,2.97-7.42,1.98-2.06,4.49-3.08,7.54-3.08h15.76c2.89,0,5.37,1.03,7.42,3.08,2.05,2.05,3.08,4.53,3.08,7.42V-125.38c0,2.89-1.03,5.37-3.08,7.42-2.05,2.06-4.53,3.08-7.42,3.08Z"/>
    <path class="st0" d="M2815.25-175.04c1.98,2.67,2.59,5.67,1.83,9.02-2.13,7.61-5.94,14.61-11.42,21.01-5.48,6.39-12.14,11.95-19.98,16.67-7.84,4.72-16.67,8.37-26.49,10.96-9.82,2.59-20.13,3.88-30.94,3.88-14.92,0-28.81-2.59-41.67-7.76-12.87-5.18-24.05-12.22-33.57-21.12-9.52-8.91-17.01-19.33-22.49-31.28-5.48-11.95-8.22-24.7-8.22-38.25s2.74-26.26,8.22-38.13c5.48-11.87,12.98-22.26,22.49-31.17,9.51-8.91,20.7-15.95,33.57-21.12,12.86-5.17,26.75-7.76,41.67-7.76,10.81,0,21.12,1.29,30.94,3.88,9.82,2.59,18.65,6.24,26.49,10.96,7.84,4.72,14.5,10.28,19.98,16.67,5.48,6.39,9.28,13.4,11.42,21.01.76,3.35.15,6.36-1.83,9.02-1.98,2.67-4.72,4-8.22,4h-15.98c-2.44,0-4.57-.76-6.39-2.28-1.83-1.52-3.05-3.5-3.65-5.94-1.07-4.87-3.08-9.32-6.05-13.36-2.97-4.03-6.74-7.46-11.3-10.28-4.57-2.82-9.86-4.98-15.87-6.51-6.02-1.52-12.52-2.28-19.52-2.28-10.2,0-19.56,1.94-28.09,5.82-8.53,3.88-15.83,9.13-21.92,15.76-6.09,6.62-10.81,14.39-14.16,23.29-3.35,8.91-5.02,18.38-5.02,28.43s1.67,19.75,5.02,28.66c3.35,8.91,8.07,16.67,14.16,23.29,6.09,6.62,13.39,11.87,21.92,15.76,8.52,3.88,17.89,5.82,28.09,5.82,14.16,0,25.95-2.93,35.39-8.79,9.44-5.86,15.22-13.74,17.35-23.63.61-2.43,1.83-4.41,3.65-5.94,1.83-1.52,3.96-2.28,6.39-2.28h15.98c3.5,0,6.24,1.33,8.22,4Z"/>
    <path class="st0" d="M2998.61-308.74c2.13,0,3.96.76,5.48,2.28,1.52,1.52,2.28,3.35,2.28,5.48v9.36c0,2.13-.76,3.96-2.28,5.48-1.52,1.52-3.35,2.28-5.48,2.28h-104.81V-125.38c0,2.89-1.03,5.37-3.08,7.42s-4.53,3.08-7.42,3.08h-15.76c-2.89,0-5.37-1.03-7.42-3.08s-3.08-4.53-3.08-7.42v-158.47h-31.51c-2.13,0-4-.76-5.59-2.28-1.6-1.52-2.4-3.35-2.4-5.48v-9.36c0-2.13.8-3.96,2.4-5.48,1.6-1.52,3.46-2.28,5.59-2.28h173.09ZM3006.38-122.86c.3,2.13-.15,4-1.37,5.59-1.22,1.6-2.89,2.4-5.02,2.4h-22.61c-2.13,0-3.96-.8-5.48-2.4-1.52-1.6-2.51-3.46-2.97-5.59l-5.71-29.69h-25.35l-7.31,31.74c-.31,1.67-.99,3.08-2.05,4.22-1.07,1.14-2.44,1.71-4.11,1.71h-14.62c-1.68,0-2.93-.57-3.77-1.71-.84-1.14-1.11-2.55-.8-4.22l30.83-134.04c.3-1.67,1.18-3.08,2.63-4.22,1.45-1.14,3-1.71,4.68-1.71h28.09c2.13,0,4.15.76,6.05,2.28,1.9,1.52,3,3.42,3.31,5.71l25.58,129.93ZM2958.2-177.44l-6.62-34.48-7.99,34.48h14.62Z"/>
    <path class="st0" d="M3120.09-306.46c1.52,1.52,2.28,3.35,2.28,5.48v9.36c0,2.13-.76,3.96-2.28,5.48-1.52,1.52-3.35,2.28-5.48,2.28h-59.83v58.46h36.08c2.13,0,3.96.8,5.48,2.4,1.52,1.6,2.28,3.46,2.28,5.59v9.36c0,2.13-.76,3.96-2.28,5.48s-3.35,2.28-5.48,2.28h-36.08v74.9c0,2.89-1.03,5.37-3.08,7.42-2.05,2.06-4.53,3.08-7.42,3.08h-15.76c-3.05,0-5.56-1.03-7.54-3.08-1.98-2.05-2.97-4.53-2.97-7.42v-172.86c0-2.89.99-5.37,2.97-7.42,1.98-2.06,4.49-3.08,7.54-3.08h86.09c2.13,0,3.96.76,5.48,2.28Z"/>
    <path class="st0" d="M3321.27-139.76c2.13,0,3.96.76,5.48,2.28,1.52,1.52,2.28,3.35,2.28,5.48v9.36c0,2.13-.76,3.96-2.28,5.48-1.52,1.52-3.35,2.28-5.48,2.28h-176.74c-3.05,0-5.59-1.03-7.65-3.08-2.06-2.05-3.08-4.53-3.08-7.42v-172.86c0-3.04,1.03-5.55,3.08-7.54,2.05-1.98,4.6-2.97,7.65-2.97h15.53c3.04,0,5.56.99,7.54,2.97,1.98,1.98,2.97,4.49,2.97,7.54v158.48h150.71ZM3255.5-162.83c-10.2,0-19.75-1.94-28.66-5.82s-16.67-9.17-23.29-15.87c-6.62-6.7-11.87-14.5-15.76-23.41-3.88-8.91-5.82-18.46-5.82-28.66s1.94-19.75,5.82-28.66c3.88-8.91,9.13-16.67,15.76-23.29s14.39-11.87,23.29-15.76,18.46-5.82,28.66-5.82,19.75,1.94,28.66,5.82c8.91,3.88,16.67,9.13,23.29,15.76s11.87,14.39,15.76,23.29c3.88,8.91,5.82,18.46,5.82,28.66s-1.94,19.75-5.82,28.66c-3.88,8.91-9.13,16.71-15.76,23.41-6.62,6.7-14.39,11.99-23.29,15.87-8.91,3.88-18.46,5.82-28.66,5.82ZM3255.5-285.22c-5.63,0-10.7,1.29-15.19,3.88-4.49,2.59-8.33,6.09-11.53,10.5-3.2,4.42-5.67,9.55-7.42,15.41-1.75,5.86-2.63,12.14-2.63,18.84s.87,13.02,2.63,18.95c1.75,5.94,4.22,11.11,7.42,15.53,3.2,4.42,7.04,7.92,11.53,10.5,4.49,2.59,9.55,3.88,15.19,3.88s10.69-1.29,15.18-3.88c4.49-2.59,8.33-6.09,11.53-10.5,3.2-4.41,5.67-9.59,7.42-15.53,1.75-5.94,2.63-12.25,2.63-18.95s-.88-12.98-2.63-18.84c-1.75-5.86-4.22-11-7.42-15.41-3.2-4.41-7.04-7.91-11.53-10.5-4.49-2.59-9.55-3.88-15.18-3.88Z"/>
    <path class="st0" d="M3512.4-306.46c1.22,1.52,1.52,3.35.91,5.48l-40.87,178.34c-.61,2.13-1.83,3.96-3.65,5.48-1.83,1.52-3.81,2.28-5.94,2.28h-22.38c-3.05,0-5.79-1.03-8.22-3.08-2.44-2.05-3.96-4.53-4.57-7.42l-8.91-45.9-11.19,48.64c-.46,2.13-1.64,3.96-3.54,5.48-1.91,1.52-3.92,2.28-6.05,2.28h-22.38c-2.89,0-5.56-1.03-7.99-3.08-2.44-2.05-3.96-4.53-4.57-7.42l-33.8-172.86c-.61-3.04-.08-5.55,1.6-7.54,1.67-1.98,3.96-2.97,6.85-2.97h18.95c3.04,0,5.33.99,6.85,2.97,1.52,1.98,2.59,4.49,3.2,7.54l25.58,130.84,14.84-64.17-13.02-66.68c-.61-3.04-.11-5.55,1.48-7.54,1.6-1.98,3.92-2.97,6.96-2.97h18.95c2.89,0,5.14.99,6.74,2.97,1.6,1.98,2.7,4.49,3.31,7.54l25.58,130.84,30.6-133.58c.61-2.13,1.6-3.96,2.97-5.48,1.37-1.52,3.12-2.28,5.25-2.28h11.42c2.13,0,3.8.76,5.02,2.28Z"/>
  </g>
  <g class="st1">
    <path class="st4" d="M3651.09-308.74c8.22,0,16.06,1.6,23.52,4.8,7.46,3.2,14,7.57,19.64,13.13,5.63,5.56,10.08,12.03,13.36,19.41,3.27,7.39,4.91,15.26,4.91,23.63s-1.64,16.02-4.91,23.41c-3.28,7.39-7.73,13.85-13.36,19.41-5.63,5.56-12.18,9.97-19.64,13.24-7.46,3.28-15.3,4.91-23.52,4.91h-19.41v61.43c0,2.89-.99,5.37-2.97,7.42-1.98,2.06-4.49,3.08-7.54,3.08h-15.76c-2.89,0-5.37-1.03-7.42-3.08s-3.08-4.53-3.08-7.42v-172.86c0-3.04,1.03-5.55,3.08-7.54,2.06-1.98,4.53-2.97,7.42-2.97h45.67ZM3651.09-211.92c4.11,0,7.69-.95,10.73-2.85,3.04-1.9,5.59-4.49,7.65-7.76,2.05-3.27,3.61-7.08,4.68-11.42,1.06-4.34,1.6-8.94,1.6-13.82s-.54-9.51-1.6-13.93c-1.07-4.41-2.63-8.26-4.68-11.53-2.06-3.27-4.61-5.86-7.65-7.76-3.05-1.9-6.62-2.85-10.73-2.85h-19.41v71.93h19.41Z"/>
    <path class="st4" d="M3946.57-151.64c3.04,0,5.55,1.03,7.54,3.08,1.98,2.06,2.97,4.53,2.97,7.42v15.76c0,2.89-.99,5.37-2.97,7.42-1.98,2.06-4.49,3.08-7.54,3.08h-102.53c-10.96,0-20.89-1.83-29.8-5.48s-16.63-8.72-23.18-15.19c-6.55-6.47-11.72-14.08-15.53-22.83-3.81-8.75-6.16-18.23-7.08-28.43h-7.76v61.43c0,2.89-.99,5.37-2.97,7.42-1.98,2.06-4.49,3.08-7.54,3.08h-15.76c-2.89,0-5.37-1.03-7.42-3.08-2.06-2.05-3.08-4.53-3.08-7.42v-172.86c0-3.04,1.03-5.55,3.08-7.54,2.05-1.98,4.53-2.97,7.42-2.97h45.67c8.22,0,16.06,1.6,23.52,4.8,7.46,3.2,14,7.57,19.64,13.13,5.63,5.56,10.08,12.03,13.36,19.41,3.27,7.39,4.91,15.26,4.91,23.63,0,6.09-.91,11.95-2.74,17.58-1.83,5.63-4.38,10.85-7.65,15.64-3.28,4.8-7.16,9.1-11.65,12.9-4.49,3.81-9.4,6.93-14.73,9.36,0,6.09,1.14,11.61,3.42,16.55,2.28,4.95,5.29,9.21,9.02,12.79,3.73,3.58,7.91,6.36,12.56,8.33,4.64,1.98,9.4,2.97,14.27,2.97h102.53ZM3760.7-211.92h19.41c4.11,0,7.68-.95,10.73-2.85,3.04-1.9,5.59-4.49,7.65-7.76,2.06-3.27,3.62-7.08,4.68-11.42,1.06-4.34,1.6-8.94,1.6-13.82s-.54-9.51-1.6-13.93c-1.07-4.41-2.63-8.26-4.68-11.53-2.05-3.27-4.61-5.86-7.65-7.76-3.05-1.9-6.62-2.85-10.73-2.85h-19.41v71.93ZM3949.31-308.74c2.13,0,3.96.76,5.48,2.28,1.52,1.52,2.28,3.35,2.28,5.48v9.36c0,2.13-.76,3.96-2.28,5.48s-3.35,2.28-5.48,2.28h-59.83v52.98h36.31c2.13,0,3.96.76,5.48,2.28,1.52,1.52,2.28,3.35,2.28,5.48v9.36c0,2.13-.76,3.96-2.28,5.48-1.52,1.52-3.35,2.28-5.48,2.28h-36.31v43.16h-36.76v-135.41c0-3.04,1.03-5.55,3.08-7.54,2.05-1.98,4.53-2.97,7.42-2.97h86.09Z"/>
    <path class="st4" d="M4016.45-308.74c10.96,0,21.16,2.51,30.6,7.54,9.44,5.02,17.62,11.88,24.55,20.55,6.93,8.68,12.37,18.92,16.33,30.71,3.96,11.8,5.94,24.47,5.94,38.02s-1.98,26.22-5.94,38.02c-3.96,11.8-9.4,22.07-16.33,30.83-6.93,8.76-15.11,15.64-24.55,20.67-9.44,5.02-19.64,7.54-30.6,7.54h-37.45c-3.05,0-5.56-1.03-7.54-3.08-1.98-2.05-2.97-4.53-2.97-7.42v-172.86c0-2.89.99-5.37,2.97-7.42,1.98-2.06,4.49-3.08,7.54-3.08h37.45ZM4016.45-139.76c6.85,0,12.79-1.86,17.81-5.59,5.02-3.73,9.25-8.83,12.67-15.3,3.43-6.47,5.97-14.08,7.65-22.83,1.67-8.75,2.51-18.23,2.51-28.43s-.84-19.45-2.51-28.2c-1.68-8.75-4.22-16.36-7.65-22.83-3.42-6.47-7.65-11.57-12.67-15.3-5.02-3.73-10.96-5.59-17.81-5.59h-11.19v144.09h11.19Z"/>
    <path class="st4" d="M4131.54-114.87h-15.76c-3.05,0-5.56-1.03-7.54-3.08-1.98-2.05-2.97-4.53-2.97-7.42v-172.86c0-2.89.99-5.37,2.97-7.42,1.98-2.06,4.49-3.08,7.54-3.08h15.76c2.89,0,5.37,1.03,7.42,3.08,2.05,2.05,3.08,4.53,3.08,7.42V-125.38c0,2.89-1.03,5.37-3.08,7.42-2.05,2.06-4.53,3.08-7.42,3.08Z"/>
    <path class="st4" d="M4346.41-175.04c1.98,2.67,2.59,5.67,1.83,9.02-2.13,7.61-5.94,14.61-11.42,21.01-5.48,6.39-12.14,11.95-19.98,16.67-7.84,4.72-16.67,8.37-26.49,10.96-9.82,2.59-20.13,3.88-30.94,3.88-14.92,0-28.81-2.59-41.67-7.76-12.87-5.18-24.05-12.22-33.57-21.12-9.52-8.91-17.01-19.33-22.49-31.28-5.48-11.95-8.22-24.7-8.22-38.25s2.74-26.26,8.22-38.13c5.48-11.87,12.98-22.26,22.49-31.17,9.51-8.91,20.7-15.95,33.57-21.12,12.86-5.17,26.75-7.76,41.67-7.76,10.81,0,21.12,1.29,30.94,3.88,9.82,2.59,18.65,6.24,26.49,10.96,7.84,4.72,14.5,10.28,19.98,16.67,5.48,6.39,9.28,13.4,11.42,21.01.76,3.35.15,6.36-1.83,9.02-1.98,2.67-4.72,4-8.22,4h-15.98c-2.44,0-4.57-.76-6.39-2.28-1.83-1.52-3.05-3.5-3.65-5.94-1.07-4.87-3.08-9.32-6.05-13.36-2.97-4.03-6.74-7.46-11.3-10.28-4.57-2.82-9.86-4.98-15.87-6.51-6.02-1.52-12.52-2.28-19.52-2.28-10.2,0-19.56,1.94-28.09,5.82-8.53,3.88-15.83,9.13-21.92,15.76-6.09,6.62-10.81,14.39-14.16,23.29-3.35,8.91-5.02,18.38-5.02,28.43s1.67,19.75,5.02,28.66c3.35,8.91,8.07,16.67,14.16,23.29,6.09,6.62,13.39,11.87,21.92,15.76,8.52,3.88,17.89,5.82,28.09,5.82,14.16,0,25.95-2.93,35.39-8.79,9.44-5.86,15.22-13.74,17.35-23.63.61-2.43,1.83-4.41,3.65-5.94,1.83-1.52,3.96-2.28,6.39-2.28h15.98c3.5,0,6.24,1.33,8.22,4Z"/>
    <path class="st4" d="M4529.78-308.74c2.13,0,3.96.76,5.48,2.28,1.52,1.52,2.28,3.35,2.28,5.48v9.36c0,2.13-.76,3.96-2.28,5.48-1.52,1.52-3.35,2.28-5.48,2.28h-104.81V-125.38c0,2.89-1.03,5.37-3.08,7.42s-4.53,3.08-7.42,3.08h-15.76c-2.89,0-5.37-1.03-7.42-3.08s-3.08-4.53-3.08-7.42v-158.47h-31.51c-2.13,0-4-.76-5.59-2.28-1.6-1.52-2.4-3.35-2.4-5.48v-9.36c0-2.13.8-3.96,2.4-5.48,1.6-1.52,3.46-2.28,5.59-2.28h173.09ZM4537.55-122.86c.3,2.13-.15,4-1.37,5.59-1.22,1.6-2.89,2.4-5.02,2.4h-22.61c-2.13,0-3.96-.8-5.48-2.4-1.52-1.6-2.51-3.46-2.97-5.59l-5.71-29.69h-25.35l-7.31,31.74c-.31,1.67-.99,3.08-2.05,4.22-1.07,1.14-2.44,1.71-4.11,1.71h-14.62c-1.68,0-2.93-.57-3.77-1.71-.84-1.14-1.11-2.55-.8-4.22l30.83-134.04c.3-1.67,1.18-3.08,2.63-4.22,1.45-1.14,3-1.71,4.68-1.71h28.09c2.13,0,4.15.76,6.05,2.28,1.9,1.52,3,3.42,3.31,5.71l25.58,129.93ZM4489.36-177.44l-6.62-34.48-7.99,34.48h14.62Z"/>
    <path class="st4" d="M4651.26-306.46c1.52,1.52,2.28,3.35,2.28,5.48v9.36c0,2.13-.76,3.96-2.28,5.48-1.52,1.52-3.35,2.28-5.48,2.28h-59.83v58.46h36.08c2.13,0,3.96.8,5.48,2.4,1.52,1.6,2.28,3.46,2.28,5.59v9.36c0,2.13-.76,3.96-2.28,5.48s-3.35,2.28-5.48,2.28h-36.08v74.9c0,2.89-1.03,5.37-3.08,7.42-2.05,2.06-4.53,3.08-7.42,3.08h-15.76c-3.05,0-5.56-1.03-7.54-3.08-1.98-2.05-2.97-4.53-2.97-7.42v-172.86c0-2.89.99-5.37,2.97-7.42,1.98-2.06,4.49-3.08,7.54-3.08h86.09c2.13,0,3.96.76,5.48,2.28Z"/>
    <path class="st4" d="M4852.43-139.76c2.13,0,3.96.76,5.48,2.28,1.52,1.52,2.28,3.35,2.28,5.48v9.36c0,2.13-.76,3.96-2.28,5.48-1.52,1.52-3.35,2.28-5.48,2.28h-176.74c-3.05,0-5.59-1.03-7.65-3.08-2.06-2.05-3.08-4.53-3.08-7.42v-172.86c0-3.04,1.03-5.55,3.08-7.54,2.05-1.98,4.6-2.97,7.65-2.97h15.53c3.04,0,5.56.99,7.54,2.97,1.98,1.98,2.97,4.49,2.97,7.54v158.48h150.71ZM4786.67-162.83c-10.2,0-19.75-1.94-28.66-5.82s-16.67-9.17-23.29-15.87c-6.62-6.7-11.87-14.5-15.76-23.41-3.88-8.91-5.82-18.46-5.82-28.66s1.94-19.75,5.82-28.66c3.88-8.91,9.13-16.67,15.76-23.29s14.39-11.87,23.29-15.76,18.46-5.82,28.66-5.82,19.75,1.94,28.66,5.82c8.91,3.88,16.67,9.13,23.29,15.76s11.87,14.39,15.76,23.29c3.88,8.91,5.82,18.46,5.82,28.66s-1.94,19.75-5.82,28.66c-3.88,8.91-9.13,16.71-15.76,23.41-6.62,6.7-14.39,11.99-23.29,15.87-8.91,3.88-18.46,5.82-28.66,5.82ZM4786.67-285.22c-5.63,0-10.7,1.29-15.19,3.88-4.49,2.59-8.33,6.09-11.53,10.5-3.2,4.42-5.67,9.55-7.42,15.41-1.75,5.86-2.63,12.14-2.63,18.84s.87,13.02,2.63,18.95c1.75,5.94,4.22,11.11,7.42,15.53,3.2,4.42,7.04,7.92,11.53,10.5,4.49,2.59,9.55,3.88,15.19,3.88s10.69-1.29,15.18-3.88c4.49-2.59,8.33-6.09,11.53-10.5,3.2-4.41,5.67-9.59,7.42-15.53,1.75-5.94,2.63-12.25,2.63-18.95s-.88-12.98-2.63-18.84c-1.75-5.86-4.22-11-7.42-15.41-3.2-4.41-7.04-7.91-11.53-10.5-4.49-2.59-9.55-3.88-15.18-3.88Z"/>
    <path class="st4" d="M5043.57-306.46c1.22,1.52,1.52,3.35.91,5.48l-40.87,178.34c-.61,2.13-1.83,3.96-3.65,5.48-1.83,1.52-3.81,2.28-5.94,2.28h-22.38c-3.05,0-5.79-1.03-8.22-3.08-2.44-2.05-3.96-4.53-4.57-7.42l-8.91-45.9-11.19,48.64c-.46,2.13-1.64,3.96-3.54,5.48-1.91,1.52-3.92,2.28-6.05,2.28h-22.38c-2.89,0-5.56-1.03-7.99-3.08-2.44-2.05-3.96-4.53-4.57-7.42l-33.8-172.86c-.61-3.04-.08-5.55,1.6-7.54,1.67-1.98,3.96-2.97,6.85-2.97h18.95c3.04,0,5.33.99,6.85,2.97,1.52,1.98,2.59,4.49,3.2,7.54l25.58,130.84,14.84-64.17-13.02-66.68c-.61-3.04-.11-5.55,1.48-7.54,1.6-1.98,3.92-2.97,6.96-2.97h18.95c2.89,0,5.14.99,6.74,2.97,1.6,1.98,2.7,4.49,3.31,7.54l25.58,130.84,30.6-133.58c.61-2.13,1.6-3.96,2.97-5.48,1.37-1.52,3.12-2.28,5.25-2.28h11.42c2.13,0,3.8.76,5.02,2.28Z"/>
  </g>
  <circle class="st2" cx="-935.15" cy="-983.24" r="103.26"/>
  <circle class="st3" cx="-686.39" cy="-983.24" r="103.26"/>
  <circle class="st0" cx="-935.15" cy="-746.06" r="103.26"/>
  <circle class="st4" cx="-686.39" cy="-746.06" r="103.26"/>
  <circle class="st2" cx="-503.43" cy="444.99" r="439.64"/>
  <g>
    <g>
      <path class="st3" d="M-682.56,398.59c1.87,1.87,2.81,4.12,2.81,6.74v11.51c0,2.62-.94,4.87-2.81,6.74-1.87,1.87-4.12,2.81-6.74,2.81h-73.54v71.86h44.35c2.62,0,4.86.98,6.74,2.95,1.87,1.96,2.81,4.26,2.81,6.88v11.51c0,2.62-.94,4.87-2.81,6.74-1.87,1.87-4.12,2.81-6.74,2.81h-44.35v92.07c0,3.55-1.26,6.6-3.79,9.12-2.53,2.53-5.57,3.79-9.12,3.79h-19.37c-3.75,0-6.83-1.26-9.26-3.79-2.43-2.53-3.65-5.57-3.65-9.12v-212.49c0-3.55,1.21-6.6,3.65-9.12,2.43-2.53,5.52-3.79,9.26-3.79h105.82c2.62,0,4.86.94,6.74,2.81Z"/>
      <path class="st3" d="M-435.27,603.5c2.62,0,4.86.94,6.74,2.81,1.87,1.87,2.81,4.12,2.81,6.74v11.51c0,2.62-.94,4.86-2.81,6.74-1.87,1.87-4.12,2.81-6.74,2.81h-217.26c-3.75,0-6.88-1.26-9.4-3.79-2.53-2.53-3.79-5.57-3.79-9.12v-212.49c0-3.74,1.26-6.83,3.79-9.26,2.53-2.43,5.66-3.65,9.4-3.65h19.09c3.74,0,6.83,1.22,9.26,3.65,2.43,2.43,3.65,5.52,3.65,9.26v194.81h185.26ZM-516.11,575.15c-12.54,0-24.28-2.39-35.23-7.16-10.95-4.77-20.49-11.27-28.63-19.51-8.14-8.23-14.6-17.82-19.37-28.77s-7.16-22.69-7.16-35.23,2.39-24.28,7.16-35.23,11.23-20.49,19.37-28.63c8.14-8.14,17.68-14.6,28.63-19.37,10.95-4.77,22.69-7.16,35.23-7.16s24.28,2.39,35.23,7.16c10.95,4.77,20.49,11.23,28.63,19.37,8.14,8.14,14.6,17.68,19.37,28.63s7.16,22.69,7.16,35.23-2.39,24.28-7.16,35.23-11.23,20.54-19.37,28.77c-8.14,8.24-17.68,14.74-28.63,19.51-10.95,4.77-22.69,7.16-35.23,7.16ZM-516.11,424.7c-6.93,0-13.15,1.59-18.67,4.77-5.52,3.18-10.25,7.49-14.18,12.91-3.93,5.43-6.97,11.75-9.12,18.95-2.15,7.21-3.23,14.93-3.23,23.16s1.07,16,3.23,23.3c2.15,7.3,5.19,13.66,9.12,19.09,3.93,5.43,8.65,9.73,14.18,12.91,5.52,3.18,11.74,4.77,18.67,4.77s13.15-1.59,18.67-4.77c5.52-3.18,10.25-7.48,14.18-12.91,3.93-5.43,6.97-11.79,9.12-19.09,2.15-7.3,3.23-15.06,3.23-23.3s-1.08-15.95-3.23-23.16c-2.15-7.2-5.19-13.52-9.12-18.95-3.93-5.43-8.66-9.73-14.18-12.91-5.52-3.18-11.75-4.77-18.67-4.77Z"/>
      <path class="st3" d="M-200.32,398.59c1.5,1.87,1.87,4.12,1.12,6.74l-50.25,219.23c-.75,2.62-2.25,4.86-4.49,6.74-2.25,1.87-4.68,2.81-7.3,2.81h-27.51c-3.75,0-7.11-1.26-10.1-3.79-3-2.53-4.87-5.57-5.61-9.12l-10.95-56.42-13.75,59.79c-.56,2.62-2.01,4.86-4.35,6.74-2.34,1.87-4.82,2.81-7.44,2.81h-27.51c-3.56,0-6.83-1.26-9.82-3.79-3-2.53-4.87-5.57-5.61-9.12l-41.54-212.49c-.75-3.74-.1-6.83,1.96-9.26,2.06-2.43,4.86-3.65,8.42-3.65h23.3c3.74,0,6.55,1.22,8.42,3.65,1.87,2.43,3.18,5.52,3.93,9.26l31.44,160.84,18.25-78.88-16-81.96c-.75-3.74-.14-6.83,1.82-9.26,1.96-2.43,4.82-3.65,8.56-3.65h23.3c3.55,0,6.32,1.22,8.28,3.65,1.96,2.43,3.32,5.52,4.07,9.26l31.44,160.84,37.61-164.21c.75-2.62,1.96-4.86,3.65-6.74,1.68-1.87,3.83-2.81,6.46-2.81h14.04c2.62,0,4.68.94,6.18,2.81Z"/>
    </g>
    <g>
      <path class="st3" d="M-754.41,256.72c5.04,0,9.85.98,14.42,2.94,4.57,1.96,8.59,4.64,12.04,8.05,3.45,3.41,6.18,7.37,8.19,11.9,2.01,4.53,3.01,9.36,3.01,14.49s-1,9.82-3.01,14.35c-2.01,4.53-4.74,8.49-8.19,11.9-3.45,3.41-7.47,6.11-12.04,8.12-4.57,2.01-9.38,3.01-14.42,3.01h-11.9v37.66c0,1.77-.61,3.29-1.82,4.55-1.21,1.26-2.75,1.89-4.62,1.89h-9.66c-1.77,0-3.29-.63-4.55-1.89-1.26-1.26-1.89-2.78-1.89-4.55v-105.98c0-1.87.63-3.41,1.89-4.62,1.26-1.21,2.78-1.82,4.55-1.82h28ZM-754.41,316.08c2.52,0,4.71-.58,6.58-1.75,1.87-1.17,3.43-2.75,4.69-4.76,1.26-2.01,2.22-4.34,2.87-7,.65-2.66.98-5.48.98-8.47s-.33-5.83-.98-8.54c-.65-2.71-1.61-5.06-2.87-7.07-1.26-2.01-2.82-3.59-4.69-4.76-1.87-1.17-4.06-1.75-6.58-1.75h-11.9v44.1h11.9Z"/>
      <path class="st3" d="M-573.25,353.04c1.87,0,3.41.63,4.62,1.89,1.21,1.26,1.82,2.78,1.82,4.55v9.66c0,1.77-.61,3.29-1.82,4.55-1.21,1.26-2.75,1.89-4.62,1.89h-62.86c-6.72,0-12.81-1.12-18.27-3.36s-10.2-5.34-14.21-9.31c-4.01-3.97-7.19-8.63-9.52-14-2.33-5.37-3.78-11.18-4.34-17.43h-4.76v37.66c0,1.77-.61,3.29-1.82,4.55-1.21,1.26-2.75,1.89-4.62,1.89h-9.66c-1.77,0-3.29-.63-4.55-1.89-1.26-1.26-1.89-2.78-1.89-4.55v-105.98c0-1.87.63-3.41,1.89-4.62,1.26-1.21,2.78-1.82,4.55-1.82h28c5.04,0,9.85.98,14.42,2.94,4.57,1.96,8.59,4.64,12.04,8.05,3.45,3.41,6.18,7.37,8.19,11.9,2.01,4.53,3.01,9.36,3.01,14.49,0,3.73-.56,7.33-1.68,10.78-1.12,3.45-2.68,6.65-4.69,9.59-2.01,2.94-4.39,5.58-7.14,7.91-2.75,2.33-5.76,4.25-9.03,5.74,0,3.73.7,7.12,2.1,10.15,1.4,3.03,3.24,5.65,5.53,7.84,2.29,2.19,4.85,3.9,7.7,5.11,2.85,1.21,5.76,1.82,8.75,1.82h62.86ZM-687.21,316.08h11.9c2.52,0,4.71-.58,6.58-1.75,1.87-1.17,3.43-2.75,4.69-4.76,1.26-2.01,2.22-4.34,2.87-7,.65-2.66.98-5.48.98-8.47s-.33-5.83-.98-8.54c-.65-2.71-1.61-5.06-2.87-7.07-1.26-2.01-2.82-3.59-4.69-4.76-1.87-1.17-4.06-1.75-6.58-1.75h-11.9v44.1ZM-571.57,256.72c1.31,0,2.43.47,3.36,1.4.93.93,1.4,2.05,1.4,3.36v5.74c0,1.31-.47,2.43-1.4,3.36-.93.93-2.05,1.4-3.36,1.4h-36.68v32.48h22.26c1.31,0,2.43.47,3.36,1.4.93.93,1.4,2.05,1.4,3.36v5.74c0,1.31-.47,2.43-1.4,3.36-.93.93-2.05,1.4-3.36,1.4h-22.26v26.46h-22.54v-83.02c0-1.87.63-3.41,1.89-4.62,1.26-1.21,2.78-1.82,4.55-1.82h52.78Z"/>
      <path class="st3" d="M-530.41,256.72c6.72,0,12.97,1.54,18.76,4.62,5.79,3.08,10.8,7.28,15.05,12.6,4.25,5.32,7.58,11.6,10.01,18.83,2.43,7.23,3.64,15,3.64,23.31s-1.21,16.08-3.64,23.31c-2.43,7.23-5.76,13.53-10.01,18.9-4.25,5.37-9.26,9.59-15.05,12.67-5.79,3.08-12.04,4.62-18.76,4.62h-22.96c-1.87,0-3.41-.63-4.62-1.89-1.21-1.26-1.82-2.78-1.82-4.55v-105.98c0-1.77.61-3.29,1.82-4.55,1.21-1.26,2.75-1.89,4.62-1.89h22.96ZM-530.41,360.31c4.2,0,7.84-1.14,10.92-3.43,3.08-2.29,5.67-5.41,7.77-9.38,2.1-3.97,3.66-8.63,4.69-14,1.03-5.37,1.54-11.18,1.54-17.43s-.51-11.92-1.54-17.29c-1.03-5.37-2.59-10.03-4.69-14-2.1-3.97-4.69-7.09-7.77-9.38-3.08-2.29-6.72-3.43-10.92-3.43h-6.86v88.34h6.86Z"/>
      <path class="st3" d="M-459.85,375.58h-9.66c-1.87,0-3.41-.63-4.62-1.89-1.21-1.26-1.82-2.78-1.82-4.55v-105.98c0-1.77.61-3.29,1.82-4.55,1.21-1.26,2.75-1.89,4.62-1.89h9.66c1.77,0,3.29.63,4.55,1.89,1.26,1.26,1.89,2.78,1.89,4.55v105.98c0,1.77-.63,3.29-1.89,4.55-1.26,1.26-2.78,1.89-4.55,1.89Z"/>
      <path class="st3" d="M-328.11,338.69c1.21,1.63,1.59,3.48,1.12,5.53-1.31,4.67-3.64,8.96-7,12.88s-7.44,7.33-12.25,10.22c-4.81,2.89-10.22,5.13-16.24,6.72-6.02,1.59-12.34,2.38-18.97,2.38-9.15,0-17.66-1.59-25.55-4.76-7.89-3.17-14.75-7.49-20.58-12.95-5.83-5.46-10.43-11.85-13.79-19.18-3.36-7.33-5.04-15.14-5.04-23.45s1.68-16.1,5.04-23.38c3.36-7.28,7.96-13.65,13.79-19.11,5.83-5.46,12.69-9.78,20.58-12.95,7.89-3.17,16.4-4.76,25.55-4.76,6.63,0,12.95.79,18.97,2.38,6.02,1.59,11.43,3.83,16.24,6.72,4.81,2.89,8.89,6.3,12.25,10.22s5.69,8.21,7,12.88c.47,2.05.09,3.9-1.12,5.53-1.21,1.63-2.89,2.45-5.04,2.45h-9.8c-1.49,0-2.8-.47-3.92-1.4-1.12-.93-1.87-2.15-2.24-3.64-.65-2.99-1.89-5.72-3.71-8.19-1.82-2.47-4.13-4.57-6.93-6.3-2.8-1.73-6.04-3.06-9.73-3.99-3.69-.93-7.68-1.4-11.97-1.4-6.25,0-11.99,1.19-17.22,3.57-5.23,2.38-9.71,5.6-13.44,9.66-3.73,4.06-6.63,8.82-8.68,14.28-2.05,5.46-3.08,11.27-3.08,17.43s1.03,12.11,3.08,17.57c2.05,5.46,4.95,10.22,8.68,14.28,3.73,4.06,8.21,7.28,13.44,9.66,5.23,2.38,10.97,3.57,17.22,3.57,8.68,0,15.91-1.8,21.7-5.39,5.79-3.59,9.33-8.42,10.64-14.49.37-1.49,1.12-2.71,2.24-3.64,1.12-.93,2.43-1.4,3.92-1.4h9.8c2.15,0,3.83.82,5.04,2.45Z"/>
      <path class="st3" d="M-215.69,256.72c1.31,0,2.43.47,3.36,1.4.93.93,1.4,2.05,1.4,3.36v5.74c0,1.31-.47,2.43-1.4,3.36-.93.93-2.05,1.4-3.36,1.4h-64.26v97.16c0,1.77-.63,3.29-1.89,4.55-1.26,1.26-2.78,1.89-4.55,1.89h-9.66c-1.77,0-3.29-.63-4.55-1.89-1.26-1.26-1.89-2.78-1.89-4.55v-97.16h-19.32c-1.31,0-2.45-.47-3.43-1.4-.98-.93-1.47-2.05-1.47-3.36v-5.74c0-1.31.49-2.43,1.47-3.36.98-.93,2.12-1.4,3.43-1.4h106.12ZM-210.93,370.68c.19,1.31-.09,2.45-.84,3.43-.75.98-1.77,1.47-3.08,1.47h-13.86c-1.31,0-2.43-.49-3.36-1.47-.93-.98-1.54-2.12-1.82-3.43l-3.5-18.2h-15.54l-4.48,19.46c-.19,1.03-.61,1.89-1.26,2.59-.65.7-1.49,1.05-2.52,1.05h-8.96c-1.03,0-1.8-.35-2.31-1.05-.51-.7-.68-1.56-.49-2.59l18.9-82.18c.19-1.03.72-1.89,1.61-2.59.89-.7,1.84-1.05,2.87-1.05h17.22c1.31,0,2.54.47,3.71,1.4,1.17.93,1.84,2.1,2.03,3.5l15.68,79.66ZM-240.47,337.22l-4.06-21.14-4.9,21.14h8.96Z"/>
    </g>
  </g>
  <circle class="st0" cx="443.43" cy="444.99" r="439.64"/>
  <g>
    <g>
      <path class="st4" d="M264.3,398.59c1.87,1.87,2.81,4.12,2.81,6.74v11.51c0,2.62-.94,4.87-2.81,6.74-1.87,1.87-4.12,2.81-6.74,2.81h-73.54v71.86h44.35c2.62,0,4.86.98,6.74,2.95,1.87,1.96,2.81,4.26,2.81,6.88v11.51c0,2.62-.94,4.87-2.81,6.74-1.87,1.87-4.12,2.81-6.74,2.81h-44.35v92.07c0,3.55-1.26,6.6-3.79,9.12-2.53,2.53-5.57,3.79-9.12,3.79h-19.37c-3.75,0-6.83-1.26-9.26-3.79-2.43-2.53-3.65-5.57-3.65-9.12v-212.49c0-3.55,1.21-6.6,3.65-9.12,2.43-2.53,5.52-3.79,9.26-3.79h105.82c2.62,0,4.86.94,6.74,2.81Z"/>
      <path class="st4" d="M511.59,603.5c2.62,0,4.86.94,6.74,2.81,1.87,1.87,2.81,4.12,2.81,6.74v11.51c0,2.62-.94,4.86-2.81,6.74-1.87,1.87-4.12,2.81-6.74,2.81h-217.26c-3.75,0-6.88-1.26-9.4-3.79-2.53-2.53-3.79-5.57-3.79-9.12v-212.49c0-3.74,1.26-6.83,3.79-9.26,2.53-2.43,5.66-3.65,9.4-3.65h19.09c3.74,0,6.83,1.22,9.26,3.65,2.43,2.43,3.65,5.52,3.65,9.26v194.81h185.26ZM430.75,575.15c-12.54,0-24.28-2.39-35.23-7.16-10.95-4.77-20.49-11.27-28.63-19.51-8.14-8.23-14.6-17.82-19.37-28.77s-7.16-22.69-7.16-35.23,2.39-24.28,7.16-35.23,11.23-20.49,19.37-28.63c8.14-8.14,17.68-14.6,28.63-19.37,10.95-4.77,22.69-7.16,35.23-7.16s24.28,2.39,35.23,7.16c10.95,4.77,20.49,11.23,28.63,19.37,8.14,8.14,14.6,17.68,19.37,28.63s7.16,22.69,7.16,35.23-2.39,24.28-7.16,35.23-11.23,20.54-19.37,28.77c-8.14,8.24-17.68,14.74-28.63,19.51-10.95,4.77-22.69,7.16-35.23,7.16ZM430.75,424.7c-6.93,0-13.15,1.59-18.67,4.77-5.52,3.18-10.25,7.49-14.18,12.91-3.93,5.43-6.97,11.75-9.12,18.95-2.15,7.21-3.23,14.93-3.23,23.16s1.07,16,3.23,23.3c2.15,7.3,5.19,13.66,9.12,19.09,3.93,5.43,8.65,9.73,14.18,12.91,5.52,3.18,11.74,4.77,18.67,4.77s13.15-1.59,18.67-4.77c5.52-3.18,10.25-7.48,14.18-12.91,3.93-5.43,6.97-11.79,9.12-19.09,2.15-7.3,3.23-15.06,3.23-23.3s-1.08-15.95-3.23-23.16c-2.15-7.2-5.19-13.52-9.12-18.95-3.93-5.43-8.66-9.73-14.18-12.91-5.52-3.18-11.75-4.77-18.67-4.77Z"/>
      <path class="st4" d="M746.54,398.59c1.5,1.87,1.87,4.12,1.12,6.74l-50.25,219.23c-.75,2.62-2.25,4.86-4.49,6.74-2.25,1.87-4.68,2.81-7.3,2.81h-27.51c-3.75,0-7.11-1.26-10.1-3.79-3-2.53-4.87-5.57-5.61-9.12l-10.95-56.42-13.75,59.79c-.56,2.62-2.01,4.86-4.35,6.74-2.34,1.87-4.82,2.81-7.44,2.81h-27.51c-3.56,0-6.83-1.26-9.82-3.79-3-2.53-4.87-5.57-5.61-9.12l-41.54-212.49c-.75-3.74-.1-6.83,1.96-9.26,2.06-2.43,4.86-3.65,8.42-3.65h23.3c3.74,0,6.55,1.22,8.42,3.65,1.87,2.43,3.18,5.52,3.93,9.26l31.44,160.84,18.25-78.88-16-81.96c-.75-3.74-.14-6.83,1.82-9.26,1.96-2.43,4.82-3.65,8.56-3.65h23.3c3.55,0,6.32,1.22,8.28,3.65,1.96,2.43,3.32,5.52,4.07,9.26l31.44,160.84,37.61-164.21c.75-2.62,1.96-4.86,3.65-6.74,1.68-1.87,3.83-2.81,6.46-2.81h14.04c2.62,0,4.68.94,6.18,2.81Z"/>
    </g>
    <g>
      <path class="st4" d="M192.45,256.72c5.04,0,9.85.98,14.42,2.94,4.57,1.96,8.59,4.64,12.04,8.05,3.45,3.41,6.18,7.37,8.19,11.9,2.01,4.53,3.01,9.36,3.01,14.49s-1,9.82-3.01,14.35c-2.01,4.53-4.74,8.49-8.19,11.9-3.45,3.41-7.47,6.11-12.04,8.12-4.57,2.01-9.38,3.01-14.42,3.01h-11.9v37.66c0,1.77-.61,3.29-1.82,4.55-1.21,1.26-2.75,1.89-4.62,1.89h-9.66c-1.77,0-3.29-.63-4.55-1.89-1.26-1.26-1.89-2.78-1.89-4.55v-105.98c0-1.87.63-3.41,1.89-4.62,1.26-1.21,2.78-1.82,4.55-1.82h28ZM192.45,316.08c2.52,0,4.71-.58,6.58-1.75,1.87-1.17,3.43-2.75,4.69-4.76,1.26-2.01,2.22-4.34,2.87-7,.65-2.66.98-5.48.98-8.47s-.33-5.83-.98-8.54c-.65-2.71-1.61-5.06-2.87-7.07-1.26-2.01-2.82-3.59-4.69-4.76-1.87-1.17-4.06-1.75-6.58-1.75h-11.9v44.1h11.9Z"/>
      <path class="st4" d="M373.61,353.04c1.87,0,3.41.63,4.62,1.89,1.21,1.26,1.82,2.78,1.82,4.55v9.66c0,1.77-.61,3.29-1.82,4.55-1.21,1.26-2.75,1.89-4.62,1.89h-62.86c-6.72,0-12.81-1.12-18.27-3.36s-10.2-5.34-14.21-9.31c-4.01-3.97-7.19-8.63-9.52-14-2.33-5.37-3.78-11.18-4.34-17.43h-4.76v37.66c0,1.77-.61,3.29-1.82,4.55-1.21,1.26-2.75,1.89-4.62,1.89h-9.66c-1.77,0-3.29-.63-4.55-1.89-1.26-1.26-1.89-2.78-1.89-4.55v-105.98c0-1.87.63-3.41,1.89-4.62,1.26-1.21,2.78-1.82,4.55-1.82h28c5.04,0,9.85.98,14.42,2.94,4.57,1.96,8.59,4.64,12.04,8.05,3.45,3.41,6.18,7.37,8.19,11.9,2.01,4.53,3.01,9.36,3.01,14.49,0,3.73-.56,7.33-1.68,10.78-1.12,3.45-2.68,6.65-4.69,9.59-2.01,2.94-4.39,5.58-7.14,7.91-2.75,2.33-5.76,4.25-9.03,5.74,0,3.73.7,7.12,2.1,10.15,1.4,3.03,3.24,5.65,5.53,7.84,2.29,2.19,4.85,3.9,7.7,5.11,2.85,1.21,5.76,1.82,8.75,1.82h62.86ZM259.65,316.08h11.9c2.52,0,4.71-.58,6.58-1.75,1.87-1.17,3.43-2.75,4.69-4.76,1.26-2.01,2.22-4.34,2.87-7,.65-2.66.98-5.48.98-8.47s-.33-5.83-.98-8.54c-.65-2.71-1.61-5.06-2.87-7.07-1.26-2.01-2.82-3.59-4.69-4.76-1.87-1.17-4.06-1.75-6.58-1.75h-11.9v44.1ZM375.29,256.72c1.31,0,2.43.47,3.36,1.4.93.93,1.4,2.05,1.4,3.36v5.74c0,1.31-.47,2.43-1.4,3.36-.93.93-2.05,1.4-3.36,1.4h-36.68v32.48h22.26c1.31,0,2.43.47,3.36,1.4.93.93,1.4,2.05,1.4,3.36v5.74c0,1.31-.47,2.43-1.4,3.36-.93.93-2.05,1.4-3.36,1.4h-22.26v26.46h-22.54v-83.02c0-1.87.63-3.41,1.89-4.62,1.26-1.21,2.78-1.82,4.55-1.82h52.78Z"/>
      <path class="st4" d="M416.45,256.72c6.72,0,12.97,1.54,18.76,4.62,5.79,3.08,10.8,7.28,15.05,12.6,4.25,5.32,7.58,11.6,10.01,18.83,2.43,7.23,3.64,15,3.64,23.31s-1.21,16.08-3.64,23.31c-2.43,7.23-5.76,13.53-10.01,18.9-4.25,5.37-9.26,9.59-15.05,12.67-5.79,3.08-12.04,4.62-18.76,4.62h-22.96c-1.87,0-3.41-.63-4.62-1.89-1.21-1.26-1.82-2.78-1.82-4.55v-105.98c0-1.77.61-3.29,1.82-4.55,1.21-1.26,2.75-1.89,4.62-1.89h22.96ZM416.45,360.31c4.2,0,7.84-1.14,10.92-3.43,3.08-2.29,5.67-5.41,7.77-9.38,2.1-3.97,3.66-8.63,4.69-14,1.03-5.37,1.54-11.18,1.54-17.43s-.51-11.92-1.54-17.29c-1.03-5.37-2.59-10.03-4.69-14-2.1-3.97-4.69-7.09-7.77-9.38-3.08-2.29-6.72-3.43-10.92-3.43h-6.86v88.34h6.86Z"/>
      <path class="st4" d="M487.01,375.58h-9.66c-1.87,0-3.41-.63-4.62-1.89-1.21-1.26-1.82-2.78-1.82-4.55v-105.98c0-1.77.61-3.29,1.82-4.55,1.21-1.26,2.75-1.89,4.62-1.89h9.66c1.77,0,3.29.63,4.55,1.89,1.26,1.26,1.89,2.78,1.89,4.55v105.98c0,1.77-.63,3.29-1.89,4.55-1.26,1.26-2.78,1.89-4.55,1.89Z"/>
      <path class="st4" d="M618.75,338.69c1.21,1.63,1.59,3.48,1.12,5.53-1.31,4.67-3.64,8.96-7,12.88s-7.44,7.33-12.25,10.22c-4.81,2.89-10.22,5.13-16.24,6.72-6.02,1.59-12.34,2.38-18.97,2.38-9.15,0-17.66-1.59-25.55-4.76-7.89-3.17-14.75-7.49-20.58-12.95-5.83-5.46-10.43-11.85-13.79-19.18-3.36-7.33-5.04-15.14-5.04-23.45s1.68-16.1,5.04-23.38c3.36-7.28,7.96-13.65,13.79-19.11,5.83-5.46,12.69-9.78,20.58-12.95,7.89-3.17,16.4-4.76,25.55-4.76,6.63,0,12.95.79,18.97,2.38,6.02,1.59,11.43,3.83,16.24,6.72,4.81,2.89,8.89,6.3,12.25,10.22s5.69,8.21,7,12.88c.47,2.05.09,3.9-1.12,5.53-1.21,1.63-2.89,2.45-5.04,2.45h-9.8c-1.49,0-2.8-.47-3.92-1.4-1.12-.93-1.87-2.15-2.24-3.64-.65-2.99-1.89-5.72-3.71-8.19-1.82-2.47-4.13-4.57-6.93-6.3-2.8-1.73-6.04-3.06-9.73-3.99-3.69-.93-7.68-1.4-11.97-1.4-6.25,0-11.99,1.19-17.22,3.57-5.23,2.38-9.71,5.6-13.44,9.66-3.73,4.06-6.63,8.82-8.68,14.28-2.05,5.46-3.08,11.27-3.08,17.43s1.03,12.11,3.08,17.57c2.05,5.46,4.95,10.22,8.68,14.28,3.73,4.06,8.21,7.28,13.44,9.66,5.23,2.38,10.97,3.57,17.22,3.57,8.68,0,15.91-1.8,21.7-5.39,5.79-3.59,9.33-8.42,10.64-14.49.37-1.49,1.12-2.71,2.24-3.64,1.12-.93,2.43-1.4,3.92-1.4h9.8c2.15,0,3.83.82,5.04,2.45Z"/>
      <path class="st4" d="M731.17,256.72c1.31,0,2.43.47,3.36,1.4.93.93,1.4,2.05,1.4,3.36v5.74c0,1.31-.47,2.43-1.4,3.36-.93.93-2.05,1.4-3.36,1.4h-64.26v97.16c0,1.77-.63,3.29-1.89,4.55-1.26,1.26-2.78,1.89-4.55,1.89h-9.66c-1.77,0-3.29-.63-4.55-1.89-1.26-1.26-1.89-2.78-1.89-4.55v-97.16h-19.32c-1.31,0-2.45-.47-3.43-1.4-.98-.93-1.47-2.05-1.47-3.36v-5.74c0-1.31.49-2.43,1.47-3.36.98-.93,2.12-1.4,3.43-1.4h106.12ZM735.93,370.68c.19,1.31-.09,2.45-.84,3.43-.75.98-1.77,1.47-3.08,1.47h-13.86c-1.31,0-2.43-.49-3.36-1.47-.93-.98-1.54-2.12-1.82-3.43l-3.5-18.2h-15.54l-4.48,19.46c-.19,1.03-.61,1.89-1.26,2.59-.65.7-1.49,1.05-2.52,1.05h-8.96c-1.03,0-1.8-.35-2.31-1.05-.51-.7-.68-1.56-.49-2.59l18.9-82.18c.19-1.03.72-1.89,1.61-2.59.89-.7,1.84-1.05,2.87-1.05h17.22c1.31,0,2.54.47,3.71,1.4,1.17.93,1.84,2.1,2.03,3.5l15.68,79.66ZM706.39,337.22l-4.06-21.14-4.9,21.14h8.96Z"/>
    </g>
  </g>
  <circle class="st3" cx="-503.43" cy="1420.8" r="439.64"/>
  <g>
    <g>
      <path class="st2" d="M-682.56,1374.4c1.87,1.87,2.81,4.12,2.81,6.74v11.51c0,2.62-.94,4.87-2.81,6.74-1.87,1.87-4.12,2.81-6.74,2.81h-73.54v71.86h44.35c2.62,0,4.86.98,6.74,2.95,1.87,1.96,2.81,4.26,2.81,6.88v11.51c0,2.62-.94,4.87-2.81,6.74-1.87,1.87-4.12,2.81-6.74,2.81h-44.35v92.07c0,3.55-1.26,6.6-3.79,9.12-2.53,2.53-5.57,3.79-9.12,3.79h-19.37c-3.75,0-6.83-1.26-9.26-3.79-2.43-2.53-3.65-5.57-3.65-9.12v-212.49c0-3.55,1.21-6.6,3.65-9.12,2.43-2.53,5.52-3.79,9.26-3.79h105.82c2.62,0,4.86.94,6.74,2.81Z"/>
      <path class="st2" d="M-435.27,1579.31c2.62,0,4.86.94,6.74,2.81,1.87,1.87,2.81,4.12,2.81,6.74v11.51c0,2.62-.94,4.86-2.81,6.74-1.87,1.87-4.12,2.81-6.74,2.81h-217.26c-3.75,0-6.88-1.26-9.4-3.79-2.53-2.53-3.79-5.57-3.79-9.12v-212.49c0-3.74,1.26-6.83,3.79-9.26,2.53-2.43,5.66-3.65,9.4-3.65h19.09c3.74,0,6.83,1.22,9.26,3.65,2.43,2.43,3.65,5.52,3.65,9.26v194.81h185.26ZM-516.11,1550.96c-12.54,0-24.28-2.39-35.23-7.16-10.95-4.77-20.49-11.27-28.63-19.51-8.14-8.23-14.6-17.82-19.37-28.77s-7.16-22.69-7.16-35.23,2.39-24.28,7.16-35.23,11.23-20.49,19.37-28.63c8.14-8.14,17.68-14.6,28.63-19.37,10.95-4.77,22.69-7.16,35.23-7.16s24.28,2.39,35.23,7.16c10.95,4.77,20.49,11.23,28.63,19.37,8.14,8.14,14.6,17.68,19.37,28.63s7.16,22.69,7.16,35.23-2.39,24.28-7.16,35.23-11.23,20.54-19.37,28.77c-8.14,8.24-17.68,14.74-28.63,19.51-10.95,4.77-22.69,7.16-35.23,7.16ZM-516.11,1400.51c-6.93,0-13.15,1.59-18.67,4.77-5.52,3.18-10.25,7.49-14.18,12.91-3.93,5.43-6.97,11.75-9.12,18.95-2.15,7.21-3.23,14.93-3.23,23.16s1.07,16,3.23,23.3c2.15,7.3,5.19,13.66,9.12,19.09,3.93,5.43,8.65,9.73,14.18,12.91,5.52,3.18,11.74,4.77,18.67,4.77s13.15-1.59,18.67-4.77c5.52-3.18,10.25-7.48,14.18-12.91,3.93-5.43,6.97-11.79,9.12-19.09,2.15-7.3,3.23-15.06,3.23-23.3s-1.08-15.95-3.23-23.16c-2.15-7.2-5.19-13.52-9.12-18.95-3.93-5.43-8.66-9.73-14.18-12.91-5.52-3.18-11.75-4.77-18.67-4.77Z"/>
      <path class="st2" d="M-200.32,1374.4c1.5,1.87,1.87,4.12,1.12,6.74l-50.25,219.23c-.75,2.62-2.25,4.86-4.49,6.74-2.25,1.87-4.68,2.81-7.3,2.81h-27.51c-3.75,0-7.11-1.26-10.1-3.79-3-2.53-4.87-5.57-5.61-9.12l-10.95-56.42-13.75,59.79c-.56,2.62-2.01,4.86-4.35,6.74-2.34,1.87-4.82,2.81-7.44,2.81h-27.51c-3.56,0-6.83-1.26-9.82-3.79-3-2.53-4.87-5.57-5.61-9.12l-41.54-212.49c-.75-3.74-.1-6.83,1.96-9.26,2.06-2.43,4.86-3.65,8.42-3.65h23.3c3.74,0,6.55,1.22,8.42,3.65,1.87,2.43,3.18,5.52,3.93,9.26l31.44,160.84,18.25-78.88-16-81.96c-.75-3.74-.14-6.83,1.82-9.26,1.96-2.43,4.82-3.65,8.56-3.65h23.3c3.55,0,6.32,1.22,8.28,3.65,1.96,2.43,3.32,5.52,4.07,9.26l31.44,160.84,37.61-164.21c.75-2.62,1.96-4.86,3.65-6.74,1.68-1.87,3.83-2.81,6.46-2.81h14.04c2.62,0,4.68.94,6.18,2.81Z"/>
    </g>
    <g>
      <path class="st2" d="M-754.41,1232.53c5.04,0,9.85.98,14.42,2.94,4.57,1.96,8.59,4.64,12.04,8.05,3.45,3.41,6.18,7.37,8.19,11.9,2.01,4.53,3.01,9.36,3.01,14.49s-1,9.82-3.01,14.35c-2.01,4.53-4.74,8.49-8.19,11.9-3.45,3.41-7.47,6.11-12.04,8.12-4.57,2.01-9.38,3.01-14.42,3.01h-11.9v37.66c0,1.77-.61,3.29-1.82,4.55-1.21,1.26-2.75,1.89-4.62,1.89h-9.66c-1.77,0-3.29-.63-4.55-1.89-1.26-1.26-1.89-2.78-1.89-4.55v-105.98c0-1.87.63-3.41,1.89-4.62,1.26-1.21,2.78-1.82,4.55-1.82h28ZM-754.41,1291.89c2.52,0,4.71-.58,6.58-1.75,1.87-1.17,3.43-2.75,4.69-4.76,1.26-2.01,2.22-4.34,2.87-7,.65-2.66.98-5.48.98-8.47s-.33-5.83-.98-8.54c-.65-2.71-1.61-5.06-2.87-7.07-1.26-2.01-2.82-3.59-4.69-4.76-1.87-1.17-4.06-1.75-6.58-1.75h-11.9v44.1h11.9Z"/>
      <path class="st2" d="M-573.25,1328.85c1.87,0,3.41.63,4.62,1.89,1.21,1.26,1.82,2.78,1.82,4.55v9.66c0,1.77-.61,3.29-1.82,4.55-1.21,1.26-2.75,1.89-4.62,1.89h-62.86c-6.72,0-12.81-1.12-18.27-3.36s-10.2-5.34-14.21-9.31c-4.01-3.97-7.19-8.63-9.52-14-2.33-5.37-3.78-11.18-4.34-17.43h-4.76v37.66c0,1.77-.61,3.29-1.82,4.55-1.21,1.26-2.75,1.89-4.62,1.89h-9.66c-1.77,0-3.29-.63-4.55-1.89-1.26-1.26-1.89-2.78-1.89-4.55v-105.98c0-1.87.63-3.41,1.89-4.62,1.26-1.21,2.78-1.82,4.55-1.82h28c5.04,0,9.85.98,14.42,2.94,4.57,1.96,8.59,4.64,12.04,8.05,3.45,3.41,6.18,7.37,8.19,11.9,2.01,4.53,3.01,9.36,3.01,14.49,0,3.73-.56,7.33-1.68,10.78-1.12,3.45-2.68,6.65-4.69,9.59-2.01,2.94-4.39,5.58-7.14,7.91-2.75,2.33-5.76,4.25-9.03,5.74,0,3.73.7,7.12,2.1,10.15,1.4,3.03,3.24,5.65,5.53,7.84,2.29,2.19,4.85,3.9,7.7,5.11,2.85,1.21,5.76,1.82,8.75,1.82h62.86ZM-687.21,1291.89h11.9c2.52,0,4.71-.58,6.58-1.75,1.87-1.17,3.43-2.75,4.69-4.76,1.26-2.01,2.22-4.34,2.87-7,.65-2.66.98-5.48.98-8.47s-.33-5.83-.98-8.54c-.65-2.71-1.61-5.06-2.87-7.07-1.26-2.01-2.82-3.59-4.69-4.76-1.87-1.17-4.06-1.75-6.58-1.75h-11.9v44.1ZM-571.57,1232.53c1.31,0,2.43.47,3.36,1.4.93.93,1.4,2.05,1.4,3.36v5.74c0,1.31-.47,2.43-1.4,3.36-.93.93-2.05,1.4-3.36,1.4h-36.68v32.48h22.26c1.31,0,2.43.47,3.36,1.4.93.93,1.4,2.05,1.4,3.36v5.74c0,1.31-.47,2.43-1.4,3.36-.93.93-2.05,1.4-3.36,1.4h-22.26v26.46h-22.54v-83.02c0-1.87.63-3.41,1.89-4.62,1.26-1.21,2.78-1.82,4.55-1.82h52.78Z"/>
      <path class="st2" d="M-530.41,1232.53c6.72,0,12.97,1.54,18.76,4.62,5.79,3.08,10.8,7.28,15.05,12.6,4.25,5.32,7.58,11.6,10.01,18.83,2.43,7.23,3.64,15,3.64,23.31s-1.21,16.08-3.64,23.31c-2.43,7.23-5.76,13.53-10.01,18.9-4.25,5.37-9.26,9.59-15.05,12.67-5.79,3.08-12.04,4.62-18.76,4.62h-22.96c-1.87,0-3.41-.63-4.62-1.89-1.21-1.26-1.82-2.78-1.82-4.55v-105.98c0-1.77.61-3.29,1.82-4.55,1.21-1.26,2.75-1.89,4.62-1.89h22.96ZM-530.41,1336.12c4.2,0,7.84-1.14,10.92-3.43,3.08-2.29,5.67-5.41,7.77-9.38,2.1-3.97,3.66-8.63,4.69-14,1.03-5.37,1.54-11.18,1.54-17.43s-.51-11.92-1.54-17.29c-1.03-5.37-2.59-10.03-4.69-14-2.1-3.97-4.69-7.09-7.77-9.38-3.08-2.29-6.72-3.43-10.92-3.43h-6.86v88.34h6.86Z"/>
      <path class="st2" d="M-459.85,1351.39h-9.66c-1.87,0-3.41-.63-4.62-1.89-1.21-1.26-1.82-2.78-1.82-4.55v-105.98c0-1.77.61-3.29,1.82-4.55,1.21-1.26,2.75-1.89,4.62-1.89h9.66c1.77,0,3.29.63,4.55,1.89,1.26,1.26,1.89,2.78,1.89,4.55v105.98c0,1.77-.63,3.29-1.89,4.55-1.26,1.26-2.78,1.89-4.55,1.89Z"/>
      <path class="st2" d="M-328.11,1314.49c1.21,1.63,1.59,3.48,1.12,5.53-1.31,4.67-3.64,8.96-7,12.88s-7.44,7.33-12.25,10.22c-4.81,2.89-10.22,5.13-16.24,6.72-6.02,1.59-12.34,2.38-18.97,2.38-9.15,0-17.66-1.59-25.55-4.76-7.89-3.17-14.75-7.49-20.58-12.95-5.83-5.46-10.43-11.85-13.79-19.18-3.36-7.33-5.04-15.14-5.04-23.45s1.68-16.1,5.04-23.38c3.36-7.28,7.96-13.65,13.79-19.11,5.83-5.46,12.69-9.78,20.58-12.95,7.89-3.17,16.4-4.76,25.55-4.76,6.63,0,12.95.79,18.97,2.38,6.02,1.59,11.43,3.83,16.24,6.72,4.81,2.89,8.89,6.3,12.25,10.22s5.69,8.21,7,12.88c.47,2.05.09,3.9-1.12,5.53-1.21,1.63-2.89,2.45-5.04,2.45h-9.8c-1.49,0-2.8-.47-3.92-1.4-1.12-.93-1.87-2.15-2.24-3.64-.65-2.99-1.89-5.72-3.71-8.19-1.82-2.47-4.13-4.57-6.93-6.3-2.8-1.73-6.04-3.06-9.73-3.99-3.69-.93-7.68-1.4-11.97-1.4-6.25,0-11.99,1.19-17.22,3.57-5.23,2.38-9.71,5.6-13.44,9.66-3.73,4.06-6.63,8.82-8.68,14.28-2.05,5.46-3.08,11.27-3.08,17.43s1.03,12.11,3.08,17.57c2.05,5.46,4.95,10.22,8.68,14.28,3.73,4.06,8.21,7.28,13.44,9.66,5.23,2.38,10.97,3.57,17.22,3.57,8.68,0,15.91-1.8,21.7-5.39,5.79-3.59,9.33-8.42,10.64-14.49.37-1.49,1.12-2.71,2.24-3.64,1.12-.93,2.43-1.4,3.92-1.4h9.8c2.15,0,3.83.82,5.04,2.45Z"/>
      <path class="st2" d="M-215.69,1232.53c1.31,0,2.43.47,3.36,1.4.93.93,1.4,2.05,1.4,3.36v5.74c0,1.31-.47,2.43-1.4,3.36-.93.93-2.05,1.4-3.36,1.4h-64.26v97.16c0,1.77-.63,3.29-1.89,4.55-1.26,1.26-2.78,1.89-4.55,1.89h-9.66c-1.77,0-3.29-.63-4.55-1.89-1.26-1.26-1.89-2.78-1.89-4.55v-97.16h-19.32c-1.31,0-2.45-.47-3.43-1.4-.98-.93-1.47-2.05-1.47-3.36v-5.74c0-1.31.49-2.43,1.47-3.36.98-.93,2.12-1.4,3.43-1.4h106.12ZM-210.93,1346.49c.19,1.31-.09,2.45-.84,3.43-.75.98-1.77,1.47-3.08,1.47h-13.86c-1.31,0-2.43-.49-3.36-1.47-.93-.98-1.54-2.12-1.82-3.43l-3.5-18.2h-15.54l-4.48,19.46c-.19,1.03-.61,1.89-1.26,2.59-.65.7-1.49,1.05-2.52,1.05h-8.96c-1.03,0-1.8-.35-2.31-1.05-.51-.7-.68-1.56-.49-2.59l18.9-82.18c.19-1.03.72-1.89,1.61-2.59.89-.7,1.84-1.05,2.87-1.05h17.22c1.31,0,2.54.47,3.71,1.4,1.17.93,1.84,2.1,2.03,3.5l15.68,79.66ZM-240.47,1313.03l-4.06-21.14-4.9,21.14h8.96Z"/>
    </g>
  </g>
  <circle class="st4" cx="443.43" cy="1420.8" r="439.64"/>
  <g>
    <g>
      <path class="st0" d="M264.3,1374.4c1.87,1.87,2.81,4.12,2.81,6.74v11.51c0,2.62-.94,4.87-2.81,6.74-1.87,1.87-4.12,2.81-6.74,2.81h-73.54v71.86h44.35c2.62,0,4.86.98,6.74,2.95,1.87,1.96,2.81,4.26,2.81,6.88v11.51c0,2.62-.94,4.87-2.81,6.74-1.87,1.87-4.12,2.81-6.74,2.81h-44.35v92.07c0,3.55-1.26,6.6-3.79,9.12-2.53,2.53-5.57,3.79-9.12,3.79h-19.37c-3.75,0-6.83-1.26-9.26-3.79-2.43-2.53-3.65-5.57-3.65-9.12v-212.49c0-3.55,1.21-6.6,3.65-9.12,2.43-2.53,5.52-3.79,9.26-3.79h105.82c2.62,0,4.86.94,6.74,2.81Z"/>
      <path class="st0" d="M511.59,1579.31c2.62,0,4.86.94,6.74,2.81,1.87,1.87,2.81,4.12,2.81,6.74v11.51c0,2.62-.94,4.86-2.81,6.74-1.87,1.87-4.12,2.81-6.74,2.81h-217.26c-3.75,0-6.88-1.26-9.4-3.79-2.53-2.53-3.79-5.57-3.79-9.12v-212.49c0-3.74,1.26-6.83,3.79-9.26,2.53-2.43,5.66-3.65,9.4-3.65h19.09c3.74,0,6.83,1.22,9.26,3.65,2.43,2.43,3.65,5.52,3.65,9.26v194.81h185.26ZM430.75,1550.96c-12.54,0-24.28-2.39-35.23-7.16-10.95-4.77-20.49-11.27-28.63-19.51-8.14-8.23-14.6-17.82-19.37-28.77s-7.16-22.69-7.16-35.23,2.39-24.28,7.16-35.23,11.23-20.49,19.37-28.63c8.14-8.14,17.68-14.6,28.63-19.37,10.95-4.77,22.69-7.16,35.23-7.16s24.28,2.39,35.23,7.16c10.95,4.77,20.49,11.23,28.63,19.37,8.14,8.14,14.6,17.68,19.37,28.63s7.16,22.69,7.16,35.23-2.39,24.28-7.16,35.23-11.23,20.54-19.37,28.77c-8.14,8.24-17.68,14.74-28.63,19.51-10.95,4.77-22.69,7.16-35.23,7.16ZM430.75,1400.51c-6.93,0-13.15,1.59-18.67,4.77-5.52,3.18-10.25,7.49-14.18,12.91-3.93,5.43-6.97,11.75-9.12,18.95-2.15,7.21-3.23,14.93-3.23,23.16s1.07,16,3.23,23.3c2.15,7.3,5.19,13.66,9.12,19.09,3.93,5.43,8.65,9.73,14.18,12.91,5.52,3.18,11.74,4.77,18.67,4.77s13.15-1.59,18.67-4.77c5.52-3.18,10.25-7.48,14.18-12.91,3.93-5.43,6.97-11.79,9.12-19.09,2.15-7.3,3.23-15.06,3.23-23.3s-1.08-15.95-3.23-23.16c-2.15-7.2-5.19-13.52-9.12-18.95-3.93-5.43-8.66-9.73-14.18-12.91-5.52-3.18-11.75-4.77-18.67-4.77Z"/>
      <path class="st0" d="M746.54,1374.4c1.5,1.87,1.87,4.12,1.12,6.74l-50.25,219.23c-.75,2.62-2.25,4.86-4.49,6.74-2.25,1.87-4.68,2.81-7.3,2.81h-27.51c-3.75,0-7.11-1.26-10.1-3.79-3-2.53-4.87-5.57-5.61-9.12l-10.95-56.42-13.75,59.79c-.56,2.62-2.01,4.86-4.35,6.74-2.34,1.87-4.82,2.81-7.44,2.81h-27.51c-3.56,0-6.83-1.26-9.82-3.79-3-2.53-4.87-5.57-5.61-9.12l-41.54-212.49c-.75-3.74-.1-6.83,1.96-9.26,2.06-2.43,4.86-3.65,8.42-3.65h23.3c3.74,0,6.55,1.22,8.42,3.65,1.87,2.43,3.18,5.52,3.93,9.26l31.44,160.84,18.25-78.88-16-81.96c-.75-3.74-.14-6.83,1.82-9.26,1.96-2.43,4.82-3.65,8.56-3.65h23.3c3.55,0,6.32,1.22,8.28,3.65,1.96,2.43,3.32,5.52,4.07,9.26l31.44,160.84,37.61-164.21c.75-2.62,1.96-4.86,3.65-6.74,1.68-1.87,3.83-2.81,6.46-2.81h14.04c2.62,0,4.68.94,6.18,2.81Z"/>
    </g>
    <g>
      <path class="st0" d="M192.45,1232.53c5.04,0,9.85.98,14.42,2.94,4.57,1.96,8.59,4.64,12.04,8.05,3.45,3.41,6.18,7.37,8.19,11.9,2.01,4.53,3.01,9.36,3.01,14.49s-1,9.82-3.01,14.35c-2.01,4.53-4.74,8.49-8.19,11.9-3.45,3.41-7.47,6.11-12.04,8.12-4.57,2.01-9.38,3.01-14.42,3.01h-11.9v37.66c0,1.77-.61,3.29-1.82,4.55-1.21,1.26-2.75,1.89-4.62,1.89h-9.66c-1.77,0-3.29-.63-4.55-1.89-1.26-1.26-1.89-2.78-1.89-4.55v-105.98c0-1.87.63-3.41,1.89-4.62,1.26-1.21,2.78-1.82,4.55-1.82h28ZM192.45,1291.89c2.52,0,4.71-.58,6.58-1.75,1.87-1.17,3.43-2.75,4.69-4.76,1.26-2.01,2.22-4.34,2.87-7,.65-2.66.98-5.48.98-8.47s-.33-5.83-.98-8.54c-.65-2.71-1.61-5.06-2.87-7.07-1.26-2.01-2.82-3.59-4.69-4.76-1.87-1.17-4.06-1.75-6.58-1.75h-11.9v44.1h11.9Z"/>
      <path class="st0" d="M373.61,1328.85c1.87,0,3.41.63,4.62,1.89,1.21,1.26,1.82,2.78,1.82,4.55v9.66c0,1.77-.61,3.29-1.82,4.55-1.21,1.26-2.75,1.89-4.62,1.89h-62.86c-6.72,0-12.81-1.12-18.27-3.36s-10.2-5.34-14.21-9.31c-4.01-3.97-7.19-8.63-9.52-14-2.33-5.37-3.78-11.18-4.34-17.43h-4.76v37.66c0,1.77-.61,3.29-1.82,4.55-1.21,1.26-2.75,1.89-4.62,1.89h-9.66c-1.77,0-3.29-.63-4.55-1.89-1.26-1.26-1.89-2.78-1.89-4.55v-105.98c0-1.87.63-3.41,1.89-4.62,1.26-1.21,2.78-1.82,4.55-1.82h28c5.04,0,9.85.98,14.42,2.94,4.57,1.96,8.59,4.64,12.04,8.05,3.45,3.41,6.18,7.37,8.19,11.9,2.01,4.53,3.01,9.36,3.01,14.49,0,3.73-.56,7.33-1.68,10.78-1.12,3.45-2.68,6.65-4.69,9.59-2.01,2.94-4.39,5.58-7.14,7.91-2.75,2.33-5.76,4.25-9.03,5.74,0,3.73.7,7.12,2.1,10.15,1.4,3.03,3.24,5.65,5.53,7.84,2.29,2.19,4.85,3.9,7.7,5.11,2.85,1.21,5.76,1.82,8.75,1.82h62.86ZM259.65,1291.89h11.9c2.52,0,4.71-.58,6.58-1.75,1.87-1.17,3.43-2.75,4.69-4.76,1.26-2.01,2.22-4.34,2.87-7,.65-2.66.98-5.48.98-8.47s-.33-5.83-.98-8.54c-.65-2.71-1.61-5.06-2.87-7.07-1.26-2.01-2.82-3.59-4.69-4.76-1.87-1.17-4.06-1.75-6.58-1.75h-11.9v44.1ZM375.29,1232.53c1.31,0,2.43.47,3.36,1.4.93.93,1.4,2.05,1.4,3.36v5.74c0,1.31-.47,2.43-1.4,3.36-.93.93-2.05,1.4-3.36,1.4h-36.68v32.48h22.26c1.31,0,2.43.47,3.36,1.4.93.93,1.4,2.05,1.4,3.36v5.74c0,1.31-.47,2.43-1.4,3.36-.93.93-2.05,1.4-3.36,1.4h-22.26v26.46h-22.54v-83.02c0-1.87.63-3.41,1.89-4.62,1.26-1.21,2.78-1.82,4.55-1.82h52.78Z"/>
      <path class="st0" d="M416.45,1232.53c6.72,0,12.97,1.54,18.76,4.62,5.79,3.08,10.8,7.28,15.05,12.6,4.25,5.32,7.58,11.6,10.01,18.83,2.43,7.23,3.64,15,3.64,23.31s-1.21,16.08-3.64,23.31c-2.43,7.23-5.76,13.53-10.01,18.9-4.25,5.37-9.26,9.59-15.05,12.67-5.79,3.08-12.04,4.62-18.76,4.62h-22.96c-1.87,0-3.41-.63-4.62-1.89-1.21-1.26-1.82-2.78-1.82-4.55v-105.98c0-1.77.61-3.29,1.82-4.55,1.21-1.26,2.75-1.89,4.62-1.89h22.96ZM416.45,1336.12c4.2,0,7.84-1.14,10.92-3.43,3.08-2.29,5.67-5.41,7.77-9.38,2.1-3.97,3.66-8.63,4.69-14,1.03-5.37,1.54-11.18,1.54-17.43s-.51-11.92-1.54-17.29c-1.03-5.37-2.59-10.03-4.69-14-2.1-3.97-4.69-7.09-7.77-9.38-3.08-2.29-6.72-3.43-10.92-3.43h-6.86v88.34h6.86Z"/>
      <path class="st0" d="M487.01,1351.39h-9.66c-1.87,0-3.41-.63-4.62-1.89-1.21-1.26-1.82-2.78-1.82-4.55v-105.98c0-1.77.61-3.29,1.82-4.55,1.21-1.26,2.75-1.89,4.62-1.89h9.66c1.77,0,3.29.63,4.55,1.89,1.26,1.26,1.89,2.78,1.89,4.55v105.98c0,1.77-.63,3.29-1.89,4.55-1.26,1.26-2.78,1.89-4.55,1.89Z"/>
      <path class="st0" d="M618.75,1314.49c1.21,1.63,1.59,3.48,1.12,5.53-1.31,4.67-3.64,8.96-7,12.88s-7.44,7.33-12.25,10.22c-4.81,2.89-10.22,5.13-16.24,6.72-6.02,1.59-12.34,2.38-18.97,2.38-9.15,0-17.66-1.59-25.55-4.76-7.89-3.17-14.75-7.49-20.58-12.95-5.83-5.46-10.43-11.85-13.79-19.18-3.36-7.33-5.04-15.14-5.04-23.45s1.68-16.1,5.04-23.38c3.36-7.28,7.96-13.65,13.79-19.11,5.83-5.46,12.69-9.78,20.58-12.95,7.89-3.17,16.4-4.76,25.55-4.76,6.63,0,12.95.79,18.97,2.38,6.02,1.59,11.43,3.83,16.24,6.72,4.81,2.89,8.89,6.3,12.25,10.22s5.69,8.21,7,12.88c.47,2.05.09,3.9-1.12,5.53-1.21,1.63-2.89,2.45-5.04,2.45h-9.8c-1.49,0-2.8-.47-3.92-1.4-1.12-.93-1.87-2.15-2.24-3.64-.65-2.99-1.89-5.72-3.71-8.19-1.82-2.47-4.13-4.57-6.93-6.3-2.8-1.73-6.04-3.06-9.73-3.99-3.69-.93-7.68-1.4-11.97-1.4-6.25,0-11.99,1.19-17.22,3.57-5.23,2.38-9.71,5.6-13.44,9.66-3.73,4.06-6.63,8.82-8.68,14.28-2.05,5.46-3.08,11.27-3.08,17.43s1.03,12.11,3.08,17.57c2.05,5.46,4.95,10.22,8.68,14.28,3.73,4.06,8.21,7.28,13.44,9.66,5.23,2.38,10.97,3.57,17.22,3.57,8.68,0,15.91-1.8,21.7-5.39,5.79-3.59,9.33-8.42,10.64-14.49.37-1.49,1.12-2.71,2.24-3.64,1.12-.93,2.43-1.4,3.92-1.4h9.8c2.15,0,3.83.82,5.04,2.45Z"/>
      <path class="st0" d="M731.17,1232.53c1.31,0,2.43.47,3.36,1.4.93.93,1.4,2.05,1.4,3.36v5.74c0,1.31-.47,2.43-1.4,3.36-.93.93-2.05,1.4-3.36,1.4h-64.26v97.16c0,1.77-.63,3.29-1.89,4.55-1.26,1.26-2.78,1.89-4.55,1.89h-9.66c-1.77,0-3.29-.63-4.55-1.89-1.26-1.26-1.89-2.78-1.89-4.55v-97.16h-19.32c-1.31,0-2.45-.47-3.43-1.4-.98-.93-1.47-2.05-1.47-3.36v-5.74c0-1.31.49-2.43,1.47-3.36.98-.93,2.12-1.4,3.43-1.4h106.12ZM735.93,1346.49c.19,1.31-.09,2.45-.84,3.43-.75.98-1.77,1.47-3.08,1.47h-13.86c-1.31,0-2.43-.49-3.36-1.47-.93-.98-1.54-2.12-1.82-3.43l-3.5-18.2h-15.54l-4.48,19.46c-.19,1.03-.61,1.89-1.26,2.59-.65.7-1.49,1.05-2.52,1.05h-8.96c-1.03,0-1.8-.35-2.31-1.05-.51-.7-.68-1.56-.49-2.59l18.9-82.18c.19-1.03.72-1.89,1.61-2.59.89-.7,1.84-1.05,2.87-1.05h17.22c1.31,0,2.54.47,3.71,1.4,1.17.93,1.84,2.1,2.03,3.5l15.68,79.66ZM706.39,1313.03l-4.06-21.14-4.9,21.14h8.96Z"/>
    </g>
  </g>
</svg>