<?xml version="1.0" encoding="UTF-8"?>
<svg id="Capa_1" xmlns="http://www.w3.org/2000/svg" version="1.1" viewBox="364 266 449 529">
  <!-- Generator: Adobe Illustrator 30.0.0, SVG Export Plug-In . SVG Version: 2.1.1 Build 123)  -->
  <defs>
    <style>
      .st0 {
        fill: #2d2550;
      }
    </style>
  </defs>
  <path class="st0" d="M643.49,377.58c0,35.33-15.11,62.82-45.34,82.48-18.94,12.38-42.97,18.57-72.1,18.57-12.38,0-26.41-1.27-42.06-3.82v155.13c0,8.38.36,13.66,1.09,15.84,1.82,5.1,5.82,8.19,12.02,9.29,10.56,1.46,20.76,2.19,30.59,2.19,4,0,6.01,1.28,6.01,3.82,0,3.64-2.55,5.46-7.65,5.46h-125.63c-10.92,0-16.39-1.82-16.39-5.47,0-2.55,3.82-3.83,11.47-3.83,17.11,0,26.94-1.64,29.5-4.92,2.91-1.46,4.55-5.1,4.92-10.94v-322.75c0-11.3-3.1-18.23-9.29-20.79-3.64-1.45-10.02-2.19-19.12-2.19h-9.29c-5.46,0-8.19-1.46-8.19-4.39,0-3.26,5.09-4.89,15.29-4.89h120.17c41.51,0,71.91,7.29,91.22,21.85,21.85,16.39,32.77,39.52,32.77,69.37ZM586.14,378.11c0-54.97-22.94-82.46-68.82-82.46-15.29,0-25.31,2.57-30.04,7.7-2.18,2.2-3.28,7.88-3.28,17.04v146.23c2.91.37,6.19.55,9.83.55,24.03,0,44.42-5.31,61.18-15.94,20.76-13.2,31.13-37.56,31.13-73.11Z"/>
  <path class="st0" d="M666.05,523.81c-5.1,10.57-17.39,21.3-36.87,32.23-19.49,10.92-47.79,22.76-84.94,35.5,0,.37-.09.91-.27,1.64-.19.73-.09,1.09.27,1.09,11.65,9.11,20.66,19.66,27.04,31.68,6.37,12.02,11.38,25.13,15.02,39.33,4,12.38,6.83,25.03,8.47,37.96,1.64,12.92,2.27,25.76,1.91,38.51-.73,8.74-2,16.57-3.82,23.49-1.83,9.1-5.38,16.11-10.65,21.03-5.28,4.92-11.02,7.37-17.21,7.37-5.46,0-10.47-1.46-15.02-4.37-4.56-2.92-8.74-6.55-12.56-10.92-3.82-4.37-7.29-9.01-10.38-13.93-3.1-4.92-5.56-9.56-7.37-13.93-6.92-14.94-11.74-30.14-14.47-45.61-2.73-15.48-4.82-31.41-6.28-47.79-5.09-57.53-5.19-114.71-.27-171.51,4.92-56.81,12.65-113.43,23.21-169.88.36-1.82.82-4.18,1.37-7.1.55-2.91,1.37-5.64,2.46-8.19,1.09-2.54,2.46-4.73,4.1-6.55,1.64-1.82,3.55-2.73,5.74-2.73,3.64,0,8.92,1.83,15.84,5.46-4.74,46.62-9.29,93.13-13.66,139.56-4.37,46.43-6.55,93.87-6.55,142.29,21.11-3.64,41.42-9.74,60.9-18.3,19.48-8.55,38.14-18.66,55.99-30.32,2.91-1.82,5.64-3.82,8.19-6.01,2.54-2.19,5.82-2.19,9.83,0ZM565,775.61c4.73-5.1,8.19-12.29,10.38-21.58,2.18-9.29,3.28-19.58,3.28-30.86s-1.09-22.94-3.28-34.96c-2.19-12.02-5.19-23.39-9.01-34.14-3.82-10.74-8.38-20.3-13.66-28.68-5.28-8.37-11.2-14.38-17.75-18.03-1.83,6.2-2.83,14.2-3,24.03-.19,9.83.27,20.4,1.37,31.68,1.09,11.29,2.64,22.85,4.64,34.68,2,11.83,4.46,22.94,7.37,33.32,2.91,10.38,6.01,19.48,9.29,27.31,3.28,7.83,6.73,13.56,10.38,17.21Z"/>
  <path class="st0" d="M637.1,476.16s25.87-13.35,31.91-41.82c0,0,4.54,31.14,25.99,36.48,0,0-23.4,11.57-21.67,27.58,0,0-11.21-22.25-36.22-22.25Z"/>
</svg>