<?xml version="1.0" encoding="UTF-8"?>
<svg id="Capa_1" xmlns="http://www.w3.org/2000/svg" version="1.1" viewBox="134 388 932 506">
  <!-- Generator: Adobe Illustrator 30.0.0, SVG Export Plug-In . SVG Version: 2.1.1 Build 123)  -->
  <defs>
    <style>
      .st0, .st1 {
        fill: #f1ece1;
      }

      .st1 {
        font-family: PalmFortress-Regular, 'Palm Fortress';
        font-size: 206.7px;
      }
    </style>
  </defs>
  <g>
    <path class="st0" d="M214.09,502.59c0,13.37-5.72,23.77-17.16,31.21-7.17,4.69-16.26,7.03-27.29,7.03-4.69,0-9.99-.48-15.92-1.45v58.7c0,3.17.14,5.17.41,5.99.69,1.93,2.2,3.1,4.55,3.51,3.99.55,7.85.83,11.58.83,1.51,0,2.27.48,2.27,1.45,0,1.38-.97,2.07-2.89,2.07h-47.54c-4.13,0-6.2-.69-6.2-2.07,0-.97,1.45-1.45,4.34-1.45,6.48,0,10.2-.62,11.16-1.86,1.1-.55,1.72-1.93,1.86-4.14v-122.14c0-4.28-1.17-6.9-3.51-7.87-1.38-.55-3.79-.83-7.23-.83h-3.51c-2.07,0-3.1-.55-3.1-1.66,0-1.23,1.93-1.85,5.79-1.85h45.47c15.71,0,27.21,2.76,34.52,8.27,8.27,6.2,12.4,14.95,12.4,26.25ZM192.39,502.79c0-20.8-8.68-31.21-26.04-31.21-5.79,0-9.58.97-11.37,2.91-.83.83-1.24,2.98-1.24,6.45v55.34c1.1.14,2.34.21,3.72.21,9.09,0,16.81-2.01,23.15-6.03,7.85-4.99,11.78-14.21,11.78-27.67Z"/>
    <path class="st0" d="M260.81,534.42c0,3.17-.97,5.79-2.89,7.85-1.93,2.07-4.41,3.1-7.44,3.1-2.48,0-4.55-.72-6.2-2.17-1.65-1.45-2.48-3.27-2.48-5.48,0-1.93.62-3.58,1.86-4.96,1.24-1.38,1.86-2.34,1.86-2.89,0-2.07-1.52-3.1-4.55-3.1-3.86,0-7.17,2.4-9.92,7.2-3.17,5.62-4.75,16.04-4.75,31.26v40.72c0,1.65.58,2.67,1.76,3.08,1.17.41,4.72.69,10.64.82,1.51.28,2.27.83,2.27,1.65,0,.97-.9,1.45-2.69,1.45h-40.1c-2.21,0-3.31-.41-3.31-1.24s.9-1.24,2.69-1.24h2.89c4.68,0,7.44-.55,8.27-1.66.27-.55.41-3.11.41-7.69v-57.13c0-7.62-1.14-12.01-3.41-13.19-2.27-1.18-5.89-1.83-10.85-1.97-1.65,0-2.48-.48-2.48-1.45s.69-1.45,2.07-1.45h1.45c2.07,0,4.13.1,6.2.31s2.96.31,2.69.31c5.1,0,10.75-1.45,16.95-4.34l2.69-1.24,1.65-.62c.55,3.31.83,6.61.83,9.92v4.13c4.41-9.37,10.61-14.06,18.6-14.06,4.41,0,8.06,1.34,10.96,4.03,2.89,2.69,4.34,6.03,4.34,10.03Z"/>
    <path class="st0" d="M333.47,574.63c.51,1.28.43,3.95-.24,8-.68,4.06-1.63,7.52-2.85,10.38-3.24,7.84-9.47,13.6-18.68,17.29-11.51,4.62-22.8,4.32-33.87-.89-11.07-5.21-19.07-13.96-23.99-26.23-5.13-12.79-5.74-24.94-1.82-36.46,3.92-11.52,11.38-19.48,22.38-23.89,9.08-3.64,17.76-4.04,26.02-1.19,8.27,2.85,14.26,8.35,17.98,16.51-3.84,2.28-9.17,4.72-16,7.31l-13.43,5.39c-.9.36-8.49,3.63-22.79,9.8,1.05,4.47,2.34,8.61,3.87,12.43,5.16,12.87,11.6,21.79,19.31,26.76,7.71,4.97,16.04,5.66,24.99,2.07,5.11-2.05,8.75-4.84,10.89-8.38,2.15-3.53,3.7-9.28,4.67-17.24.1-1.23.6-2.02,1.49-2.38,1.02-.41,1.71-.17,2.07.73ZM301.08,542.19c-6.67-15.14-15.25-20.61-25.73-16.41-10.36,4.15-13.74,14.42-10.15,30.79l35.88-14.39Z"/>
    <path class="st0" d="M410.43,607.49c0,.97-.96,1.45-2.89,1.45h-6.2c-6.75,0-12.47,1.33-17.16,3.98-1.93,1.06-3.1,1.6-3.51,1.6-1.24,0-1.86-.83-1.86-2.48l.21-6.41c-5.93,5.93-12.95,8.89-21.08,8.89-11.58,0-21.12-4.46-28.63-13.39-7.51-8.93-11.26-20.31-11.26-34.15s3.75-25.81,11.26-34.67c7.51-8.86,17.33-13.29,29.46-13.29,9.37,0,16.4,3.38,21.08,10.13v-32.25c0-10.47-.48-16.95-1.43-19.43-.82-2.07-2.04-3.03-3.67-2.89-3.94.41-6.32.62-7.13.62-1.77,0-2.65-.62-2.65-1.86s.75-1.86,2.26-1.86l7.4.21c4.1.14,10.4-1.79,18.89-5.79.55-.27,1.02-.41,1.44-.41,1.37,0,2.05,1.65,2.05,4.96v81.44c0,32.66.27,50.16.83,52.5.27.97,3.51,1.45,9.71,1.45,1.93,0,2.89.55,2.89,1.65ZM379.84,555.61c0-13.23-1.45-21.7-4.34-25.42-3.72-4.68-8.48-7.03-14.26-7.03-7.44,0-13.37,3.86-17.78,11.57-4.41,7.72-6.61,18.05-6.61,31.01s1.93,23.02,5.79,31.83c1.65,3.72,4.1,6.79,7.34,9.2,3.24,2.41,6.58,3.62,10.03,3.62,4.27,0,8.13-1.27,11.58-3.82,3.44-2.55,5.68-5.61,6.72-9.2,1.03-3.58,1.55-17.5,1.55-41.75Z"/>
    <path class="st0" d="M407.74,523.15c.21.62.86,7.31.99,10.75v62.63c0,5.1-.24,7.96-.72,8.58-.48.62-3.34,1-8.58,1.14-2.76,0-4.13.73-4.13,2.19,0,1.02.52.42,2.03.42q.96,0,2.92.09l21.3.19c2.75,0,6.2.14,10.34.41,3.44.27,5.1.41,4.96.41,2.34,0,3.51-.62,3.51-1.86,0-1.1-.97-1.65-2.89-1.65-4,0-7.03-.27-9.09-.82-1.24-.27-1.96-.9-2.17-1.86-.21-.96-.31-4.19-.31-9.69v-66.41c0-5.5-.55-9.28-1.63-11.34l-2.04,1.21c-4.34,2.59-9,4.57-14.48,5.61"/>
    <path class="st0" d="M504.45,540.52c0,6.34-3.1,9.51-9.3,9.51s-9.09-2.89-9.09-8.68c0-1.51.69-3.79,2.07-6.82.41-.96.62-1.93.62-2.89,0-2.76-1.41-5.03-4.24-6.82-2.83-1.79-6.38-2.69-10.64-2.69-8.27,0-14.68,3.58-19.22,10.75-4.55,7.17-6.82,17.23-6.82,30.18,0,14.61,2.34,25.87,7.03,33.8,4.68,7.93,11.3,11.89,19.84,11.89,5.79,0,10.95-1.79,15.5-5.37,2.07-1.65,4.75-4.82,8.06-9.51.69-.69,1.31-1.03,1.86-1.03,1.38,0,2.07.55,2.07,1.65,0,1.79-2.41,5.17-7.23,10.13-6.2,6.48-14.13,9.72-23.77,9.72-12.13,0-22.15-4.34-30.07-13.02-7.93-8.68-11.89-19.64-11.89-32.87,0-14.19,4.2-25.94,12.61-35.24,8.4-9.3,18.95-13.95,31.63-13.95,8.13,0,15.33,2.14,21.6,6.41,6.27,4.27,9.4,9.23,9.4,14.88Z"/>
    <path class="st0" d="M547.16,593.47c0,1.65-1.72,4.58-5.17,8.8-5.93,7.15-12.95,10.72-21.08,10.72-7.58,0-13.3-2.56-17.16-7.68-2.21-2.92-3.31-11.52-3.31-25.78v-81.73c-.14-1.83-.9-2.83-2.27-3.01h-7.86c-3.03,0-4.55-.64-4.55-1.92s.75-2.01,2.26-2.2c10.68-1.3,19.03-8.34,25.06-21.14.82-1.67,1.85-2.5,3.08-2.5.96,0,1.44.64,1.44,1.92v5.77c0,7.7.27,12.65.83,14.84,1.24.37,3.31.55,6.2.55,7.58,0,12.61-.46,15.09-1.37.55-.18,1.03-.28,1.45-.28,1.1,0,1.65.79,1.65,2.37,0,2.64-5.58,3.95-16.74,3.95h-8.48v50.86c0,25.66.48,41.74,1.45,48.24.96,6.51,4.13,9.76,9.51,9.76,4.55,0,9.64-3.39,15.3-10.17.55-.92,1.17-1.37,1.86-1.37.96,0,1.45.46,1.45,1.37Z"/>
    <path class="st0" d="M615.42,602.42c0,2.34-2.44,4.79-7.3,7.34-4.87,2.55-9.56,3.82-14.08,3.82-9.46,0-14.4-4.89-14.81-14.68-5.21,10.2-13.3,15.3-24.27,15.3-5.9,0-10.76-1.76-14.6-5.27-3.84-3.51-5.76-8.03-5.76-13.54,0-11.3,6.76-20.26,20.28-26.87,4.64-2.2,12.7-4.41,24.16-6.61v-5.17c0-12.12-.62-20.12-1.86-23.98-2.21-7.03-7.17-10.54-14.88-10.54-4.83,0-8.86,1.31-12.09,3.93-3.24,2.62-4.86,5.93-4.86,9.92,0,1.11.84,1.65,2.53,1.65s3.2.83,4.55,2.48c1.35,1.65,2.02,3.51,2.02,5.58,0,6.06-3,9.09-9,9.09-3.14,0-5.73-1.07-7.77-3.2-2.05-2.14-3.07-4.86-3.07-8.17,0-6.48,2.55-12.06,7.65-16.74,5.65-5.1,13.5-7.65,23.56-7.65,15.16,0,24.46,4.13,27.9,12.4,1.24,3.17,1.86,9.44,1.86,18.81v38.65c0,6.34.07,10.06.21,11.16.69,4.96,2.69,7.44,5.99,7.44,3.86,0,7.03-1.38,9.51-4.13,1.38-1.51,2.41-2.27,3.1-2.27s1.03.41,1.03,1.24ZM579.04,580.51v-15.09c-10.19,2.34-17.49,5.41-21.9,9.2-4.41,3.79-6.62,8.86-6.62,15.19,0,4.41,1.26,8.03,3.77,10.85,2.51,2.83,5.67,4.24,9.48,4.24,5.84,0,10.52-3.31,14.06-9.92.81-1.51,1.22-6.34,1.22-14.47Z"/>
  </g>
  <text class="st1" transform="translate(632.77 614.52)"><tspan x="0" y="0">flow</tspan></text>
  <path class="st0" d="M401.75,503.58s11.15-5.75,13.76-18.03c0,0,1.96,13.43,11.2,15.73,0,0-10.09,4.99-9.34,11.89,0,0-4.83-9.59-15.61-9.59Z"/>
</svg>