<?xml version="1.0" encoding="UTF-8"?>
<svg id="Capa_1" xmlns="http://www.w3.org/2000/svg" version="1.1" viewBox="0 0 1471.17 219.7">
  <!-- Generator: Adobe Illustrator 30.0.0, SVG Export Plug-In . SVG Version: 2.1.1 Build 123)  -->
  <defs>
    <style>
      .st0 {
        fill: #daffaa;
      }

      .st1 {
        isolation: isolate;
      }

      .st2 {
        fill: #4343ff;
      }

      .st3 {
        fill: #ffd802;
      }

      .st4 {
        fill: #4343ff;
      }
    </style>
  </defs>
  <g class="st1">
    <path class="st2" d="M-4526.05,17.46c8.22,0,16.06,1.6,23.52,4.8,7.46,3.2,14,7.57,19.64,13.13,5.63,5.56,10.08,12.03,13.36,19.41,3.27,7.39,4.91,15.26,4.91,23.63s-1.64,16.02-4.91,23.41c-3.28,7.39-7.73,13.85-13.36,19.41-5.63,5.56-12.18,9.97-19.64,13.24-7.46,3.28-15.3,4.91-23.52,4.91h-19.41v61.43c0,2.89-.99,5.37-2.97,7.42-1.98,2.06-4.49,3.08-7.54,3.08h-15.76c-2.89,0-5.37-1.03-7.42-3.08s-3.08-4.53-3.08-7.42V27.96c0-3.04,1.03-5.55,3.08-7.54,2.06-1.98,4.53-2.97,7.42-2.97h45.67ZM-4526.05,114.28c4.11,0,7.69-.95,10.73-2.85,3.04-1.9,5.59-4.49,7.65-7.76,2.05-3.27,3.61-7.08,4.68-11.42,1.06-4.34,1.6-8.94,1.6-13.82s-.54-9.51-1.6-13.93c-1.07-4.41-2.63-8.26-4.68-11.53-2.06-3.27-4.61-5.86-7.65-7.76-3.05-1.9-6.62-2.85-10.73-2.85h-19.41v71.93h19.41Z"/>
    <path class="st2" d="M-4230.57,174.56c3.04,0,5.55,1.03,7.54,3.08,1.98,2.06,2.97,4.53,2.97,7.42v15.76c0,2.89-.99,5.37-2.97,7.42-1.98,2.06-4.49,3.08-7.54,3.08h-102.53c-10.96,0-20.89-1.83-29.8-5.48s-16.63-8.72-23.18-15.19c-6.55-6.47-11.72-14.08-15.53-22.83-3.81-8.75-6.16-18.23-7.08-28.43h-7.76v61.43c0,2.89-.99,5.37-2.97,7.42-1.98,2.06-4.49,3.08-7.54,3.08h-15.76c-2.89,0-5.37-1.03-7.42-3.08-2.06-2.05-3.08-4.53-3.08-7.42V27.96c0-3.04,1.03-5.55,3.08-7.54,2.05-1.98,4.53-2.97,7.42-2.97h45.67c8.22,0,16.06,1.6,23.52,4.8,7.46,3.2,14,7.57,19.64,13.13,5.63,5.56,10.08,12.03,13.36,19.41,3.27,7.39,4.91,15.26,4.91,23.63,0,6.09-.91,11.95-2.74,17.58-1.83,5.63-4.38,10.85-7.65,15.64-3.28,4.8-7.16,9.1-11.65,12.9-4.49,3.81-9.4,6.93-14.73,9.36,0,6.09,1.14,11.61,3.42,16.55,2.28,4.95,5.29,9.21,9.02,12.79,3.73,3.58,7.91,6.36,12.56,8.33,4.64,1.98,9.4,2.97,14.27,2.97h102.53ZM-4416.44,114.28h19.41c4.11,0,7.68-.95,10.73-2.85,3.04-1.9,5.59-4.49,7.65-7.76,2.06-3.27,3.62-7.08,4.68-11.42,1.06-4.34,1.6-8.94,1.6-13.82s-.54-9.51-1.6-13.93c-1.07-4.41-2.63-8.26-4.68-11.53-2.05-3.27-4.61-5.86-7.65-7.76-3.05-1.9-6.62-2.85-10.73-2.85h-19.41v71.93ZM-4227.82,17.46c2.13,0,3.96.76,5.48,2.28,1.52,1.52,2.28,3.35,2.28,5.48v9.36c0,2.13-.76,3.96-2.28,5.48s-3.35,2.28-5.48,2.28h-59.83v52.98h36.31c2.13,0,3.96.76,5.48,2.28,1.52,1.52,2.28,3.35,2.28,5.48v9.36c0,2.13-.76,3.96-2.28,5.48-1.52,1.52-3.35,2.28-5.48,2.28h-36.31v43.16h-36.76V27.96c0-3.04,1.03-5.55,3.08-7.54,2.05-1.98,4.53-2.97,7.42-2.97h86.09Z"/>
    <path class="st2" d="M-4160.69,17.46c10.96,0,21.16,2.51,30.6,7.54,9.44,5.02,17.62,11.88,24.55,20.55,6.93,8.68,12.37,18.92,16.33,30.71,3.96,11.8,5.94,24.47,5.94,38.02s-1.98,26.22-5.94,38.02c-3.96,11.8-9.4,22.07-16.33,30.83-6.93,8.76-15.11,15.64-24.55,20.67-9.44,5.02-19.64,7.54-30.6,7.54h-37.45c-3.05,0-5.56-1.03-7.54-3.08-1.98-2.05-2.97-4.53-2.97-7.42V27.96c0-2.89.99-5.37,2.97-7.42,1.98-2.06,4.49-3.08,7.54-3.08h37.45ZM-4160.69,186.44c6.85,0,12.79-1.86,17.81-5.59,5.02-3.73,9.25-8.83,12.67-15.3,3.43-6.47,5.97-14.08,7.65-22.83,1.67-8.75,2.51-18.23,2.51-28.43s-.84-19.45-2.51-28.2c-1.68-8.75-4.22-16.36-7.65-22.83-3.42-6.47-7.65-11.57-12.67-15.3-5.02-3.73-10.96-5.59-17.81-5.59h-11.19v144.09h11.19Z"/>
    <path class="st2" d="M-4045.6,211.33h-15.76c-3.05,0-5.56-1.03-7.54-3.08-1.98-2.05-2.97-4.53-2.97-7.42V27.96c0-2.89.99-5.37,2.97-7.42,1.98-2.06,4.49-3.08,7.54-3.08h15.76c2.89,0,5.37,1.03,7.42,3.08,2.05,2.05,3.08,4.53,3.08,7.42v172.86c0,2.89-1.03,5.37-3.08,7.42-2.05,2.06-4.53,3.08-7.42,3.08Z"/>
    <path class="st2" d="M-3830.73,151.16c1.98,2.67,2.59,5.67,1.83,9.02-2.13,7.61-5.94,14.61-11.42,21.01-5.48,6.39-12.14,11.95-19.98,16.67-7.84,4.72-16.67,8.37-26.49,10.96-9.82,2.59-20.13,3.88-30.94,3.88-14.92,0-28.81-2.59-41.67-7.76-12.87-5.18-24.05-12.22-33.57-21.12-9.52-8.91-17.01-19.33-22.49-31.28-5.48-11.95-8.22-24.7-8.22-38.25s2.74-26.26,8.22-38.13c5.48-11.87,12.98-22.26,22.49-31.17,9.51-8.91,20.7-15.95,33.57-21.12,12.86-5.17,26.75-7.76,41.67-7.76,10.81,0,21.12,1.29,30.94,3.88,9.82,2.59,18.65,6.24,26.49,10.96,7.84,4.72,14.5,10.28,19.98,16.67,5.48,6.39,9.28,13.4,11.42,21.01.76,3.35.15,6.36-1.83,9.02-1.98,2.67-4.72,4-8.22,4h-15.98c-2.44,0-4.57-.76-6.39-2.28-1.83-1.52-3.05-3.5-3.65-5.94-1.07-4.87-3.08-9.32-6.05-13.36-2.97-4.03-6.74-7.46-11.3-10.28-4.57-2.82-9.86-4.98-15.87-6.51-6.02-1.52-12.52-2.28-19.52-2.28-10.2,0-19.56,1.94-28.09,5.82-8.53,3.88-15.83,9.13-21.92,15.76-6.09,6.62-10.81,14.39-14.16,23.29-3.35,8.91-5.02,18.38-5.02,28.43s1.67,19.75,5.02,28.66c3.35,8.91,8.07,16.67,14.16,23.29,6.09,6.62,13.39,11.87,21.92,15.76,8.52,3.88,17.89,5.82,28.09,5.82,14.16,0,25.95-2.93,35.39-8.79,9.44-5.86,15.22-13.74,17.35-23.63.61-2.43,1.83-4.41,3.65-5.94,1.83-1.52,3.96-2.28,6.39-2.28h15.98c3.5,0,6.24,1.33,8.22,4Z"/>
    <path class="st2" d="M-3647.36,17.46c2.13,0,3.96.76,5.48,2.28,1.52,1.52,2.28,3.35,2.28,5.48v9.36c0,2.13-.76,3.96-2.28,5.48-1.52,1.52-3.35,2.28-5.48,2.28h-104.81v158.47c0,2.89-1.03,5.37-3.08,7.42s-4.53,3.08-7.42,3.08h-15.76c-2.89,0-5.37-1.03-7.42-3.08s-3.08-4.53-3.08-7.42V42.35h-31.51c-2.13,0-4-.76-5.59-2.28-1.6-1.52-2.4-3.35-2.4-5.48v-9.36c0-2.13.8-3.96,2.4-5.48,1.6-1.52,3.46-2.28,5.59-2.28h173.09ZM-3639.59,203.34c.3,2.13-.15,4-1.37,5.59-1.22,1.6-2.89,2.4-5.02,2.4h-22.61c-2.13,0-3.96-.8-5.48-2.4-1.52-1.6-2.51-3.46-2.97-5.59l-5.71-29.69h-25.35l-7.31,31.74c-.31,1.67-.99,3.08-2.05,4.22-1.07,1.14-2.44,1.71-4.11,1.71h-14.62c-1.68,0-2.93-.57-3.77-1.71-.84-1.14-1.11-2.55-.8-4.22l30.83-134.04c.3-1.67,1.18-3.08,2.63-4.22,1.45-1.14,3-1.71,4.68-1.71h28.09c2.13,0,4.15.76,6.05,2.28,1.9,1.52,3,3.42,3.31,5.71l25.58,129.93ZM-3687.78,148.76l-6.62-34.48-7.99,34.48h14.62Z"/>
    <path class="st2" d="M-3525.88,19.74c1.52,1.52,2.28,3.35,2.28,5.48v9.36c0,2.13-.76,3.96-2.28,5.48-1.52,1.52-3.35,2.28-5.48,2.28h-59.83v58.46h36.08c2.13,0,3.96.8,5.48,2.4,1.52,1.6,2.28,3.46,2.28,5.59v9.36c0,2.13-.76,3.96-2.28,5.48s-3.35,2.28-5.48,2.28h-36.08v74.9c0,2.89-1.03,5.37-3.08,7.42-2.05,2.06-4.53,3.08-7.42,3.08h-15.76c-3.05,0-5.56-1.03-7.54-3.08-1.98-2.05-2.97-4.53-2.97-7.42V27.96c0-2.89.99-5.37,2.97-7.42,1.98-2.06,4.49-3.08,7.54-3.08h86.09c2.13,0,3.96.76,5.48,2.28Z"/>
    <path class="st2" d="M-3324.7,186.44c2.13,0,3.96.76,5.48,2.28,1.52,1.52,2.28,3.35,2.28,5.48v9.36c0,2.13-.76,3.96-2.28,5.48-1.52,1.52-3.35,2.28-5.48,2.28h-176.74c-3.05,0-5.59-1.03-7.65-3.08-2.06-2.05-3.08-4.53-3.08-7.42V27.96c0-3.04,1.03-5.55,3.08-7.54,2.05-1.98,4.6-2.97,7.65-2.97h15.53c3.04,0,5.56.99,7.54,2.97,1.98,1.98,2.97,4.49,2.97,7.54v158.48h150.71ZM-3390.47,163.38c-10.2,0-19.75-1.94-28.66-5.82s-16.67-9.17-23.29-15.87c-6.62-6.7-11.87-14.5-15.76-23.41-3.88-8.91-5.82-18.46-5.82-28.66s1.94-19.75,5.82-28.66c3.88-8.91,9.13-16.67,15.76-23.29s14.39-11.87,23.29-15.76,18.46-5.82,28.66-5.82,19.75,1.94,28.66,5.82c8.91,3.88,16.67,9.13,23.29,15.76s11.87,14.39,15.76,23.29c3.88,8.91,5.82,18.46,5.82,28.66s-1.94,19.75-5.82,28.66c-3.88,8.91-9.13,16.71-15.76,23.41-6.62,6.7-14.39,11.99-23.29,15.87-8.91,3.88-18.46,5.82-28.66,5.82ZM-3390.47,40.98c-5.63,0-10.7,1.29-15.19,3.88-4.49,2.59-8.33,6.09-11.53,10.5-3.2,4.42-5.67,9.55-7.42,15.41-1.75,5.86-2.63,12.14-2.63,18.84s.87,13.02,2.63,18.95c1.75,5.94,4.22,11.11,7.42,15.53,3.2,4.42,7.04,7.92,11.53,10.5,4.49,2.59,9.55,3.88,15.19,3.88s10.69-1.29,15.18-3.88c4.49-2.59,8.33-6.09,11.53-10.5,3.2-4.41,5.67-9.59,7.42-15.53,1.75-5.94,2.63-12.25,2.63-18.95s-.88-12.98-2.63-18.84c-1.75-5.86-4.22-11-7.42-15.41-3.2-4.41-7.04-7.91-11.53-10.5-4.49-2.59-9.55-3.88-15.18-3.88Z"/>
    <path class="st2" d="M-3133.57,19.74c1.22,1.52,1.52,3.35.91,5.48l-40.87,178.34c-.61,2.13-1.83,3.96-3.65,5.48-1.83,1.52-3.81,2.28-5.94,2.28h-22.38c-3.05,0-5.79-1.03-8.22-3.08-2.44-2.05-3.96-4.53-4.57-7.42l-8.91-45.9-11.19,48.64c-.46,2.13-1.64,3.96-3.54,5.48-1.91,1.52-3.92,2.28-6.05,2.28h-22.38c-2.89,0-5.56-1.03-7.99-3.08-2.44-2.05-3.96-4.53-4.57-7.42l-33.8-172.86c-.61-3.04-.08-5.55,1.6-7.54,1.67-1.98,3.96-2.97,6.85-2.97h18.95c3.04,0,5.33.99,6.85,2.97,1.52,1.98,2.59,4.49,3.2,7.54l25.58,130.84,14.84-64.17-13.02-66.68c-.61-3.04-.11-5.55,1.48-7.54,1.6-1.98,3.92-2.97,6.96-2.97h18.95c2.89,0,5.14.99,6.74,2.97,1.6,1.98,2.7,4.49,3.31,7.54l25.58,130.84,30.6-133.58c.61-2.13,1.6-3.96,2.97-5.48,1.37-1.52,3.12-2.28,5.25-2.28h11.42c2.13,0,3.8.76,5.02,2.28Z"/>
  </g>
  <g class="st1">
    <path class="st3" d="M-2994.88,17.46c8.22,0,16.06,1.6,23.52,4.8,7.46,3.2,14,7.57,19.64,13.13,5.63,5.56,10.08,12.03,13.36,19.41,3.27,7.39,4.91,15.26,4.91,23.63s-1.64,16.02-4.91,23.41c-3.28,7.39-7.73,13.85-13.36,19.41-5.63,5.56-12.18,9.97-19.64,13.24-7.46,3.28-15.3,4.91-23.52,4.91h-19.41v61.43c0,2.89-.99,5.37-2.97,7.42-1.98,2.06-4.49,3.08-7.54,3.08h-15.76c-2.89,0-5.37-1.03-7.42-3.08s-3.08-4.53-3.08-7.42V27.96c0-3.04,1.03-5.55,3.08-7.54,2.06-1.98,4.53-2.97,7.42-2.97h45.67ZM-2994.88,114.28c4.11,0,7.69-.95,10.73-2.85,3.04-1.9,5.59-4.49,7.65-7.76,2.05-3.27,3.61-7.08,4.68-11.42,1.06-4.34,1.6-8.94,1.6-13.82s-.54-9.51-1.6-13.93c-1.07-4.41-2.63-8.26-4.68-11.53-2.06-3.27-4.61-5.86-7.65-7.76-3.05-1.9-6.62-2.85-10.73-2.85h-19.41v71.93h19.41Z"/>
    <path class="st3" d="M-2699.4,174.56c3.04,0,5.55,1.03,7.54,3.08,1.98,2.06,2.97,4.53,2.97,7.42v15.76c0,2.89-.99,5.37-2.97,7.42-1.98,2.06-4.49,3.08-7.54,3.08h-102.53c-10.96,0-20.89-1.83-29.8-5.48s-16.63-8.72-23.18-15.19c-6.55-6.47-11.72-14.08-15.53-22.83-3.81-8.75-6.16-18.23-7.08-28.43h-7.76v61.43c0,2.89-.99,5.37-2.97,7.42-1.98,2.06-4.49,3.08-7.54,3.08h-15.76c-2.89,0-5.37-1.03-7.42-3.08-2.06-2.05-3.08-4.53-3.08-7.42V27.96c0-3.04,1.03-5.55,3.08-7.54,2.05-1.98,4.53-2.97,7.42-2.97h45.67c8.22,0,16.06,1.6,23.52,4.8,7.46,3.2,14,7.57,19.64,13.13,5.63,5.56,10.08,12.03,13.36,19.41,3.27,7.39,4.91,15.26,4.91,23.63,0,6.09-.91,11.95-2.74,17.58-1.83,5.63-4.38,10.85-7.65,15.64-3.28,4.8-7.16,9.1-11.65,12.9-4.49,3.81-9.4,6.93-14.73,9.36,0,6.09,1.14,11.61,3.42,16.55,2.28,4.95,5.29,9.21,9.02,12.79,3.73,3.58,7.91,6.36,12.56,8.33,4.64,1.98,9.4,2.97,14.27,2.97h102.53ZM-2885.28,114.28h19.41c4.11,0,7.68-.95,10.73-2.85,3.04-1.9,5.59-4.49,7.65-7.76,2.06-3.27,3.62-7.08,4.68-11.42,1.06-4.34,1.6-8.94,1.6-13.82s-.54-9.51-1.6-13.93c-1.07-4.41-2.63-8.26-4.68-11.53-2.05-3.27-4.61-5.86-7.65-7.76-3.05-1.9-6.62-2.85-10.73-2.85h-19.41v71.93ZM-2696.66,17.46c2.13,0,3.96.76,5.48,2.28,1.52,1.52,2.28,3.35,2.28,5.48v9.36c0,2.13-.76,3.96-2.28,5.48s-3.35,2.28-5.48,2.28h-59.83v52.98h36.31c2.13,0,3.96.76,5.48,2.28,1.52,1.52,2.28,3.35,2.28,5.48v9.36c0,2.13-.76,3.96-2.28,5.48-1.52,1.52-3.35,2.28-5.48,2.28h-36.31v43.16h-36.76V27.96c0-3.04,1.03-5.55,3.08-7.54,2.05-1.98,4.53-2.97,7.42-2.97h86.09Z"/>
    <path class="st3" d="M-2629.52,17.46c10.96,0,21.16,2.51,30.6,7.54,9.44,5.02,17.62,11.88,24.55,20.55,6.93,8.68,12.37,18.92,16.33,30.71,3.96,11.8,5.94,24.47,5.94,38.02s-1.98,26.22-5.94,38.02c-3.96,11.8-9.4,22.07-16.33,30.83-6.93,8.76-15.11,15.64-24.55,20.67-9.44,5.02-19.64,7.54-30.6,7.54h-37.45c-3.05,0-5.56-1.03-7.54-3.08-1.98-2.05-2.97-4.53-2.97-7.42V27.96c0-2.89.99-5.37,2.97-7.42,1.98-2.06,4.49-3.08,7.54-3.08h37.45ZM-2629.52,186.44c6.85,0,12.79-1.86,17.81-5.59,5.02-3.73,9.25-8.83,12.67-15.3,3.43-6.47,5.97-14.08,7.65-22.83,1.67-8.75,2.51-18.23,2.51-28.43s-.84-19.45-2.51-28.2c-1.68-8.75-4.22-16.36-7.65-22.83-3.42-6.47-7.65-11.57-12.67-15.3-5.02-3.73-10.96-5.59-17.81-5.59h-11.19v144.09h11.19Z"/>
    <path class="st3" d="M-2514.44,211.33h-15.76c-3.05,0-5.56-1.03-7.54-3.08-1.98-2.05-2.97-4.53-2.97-7.42V27.96c0-2.89.99-5.37,2.97-7.42,1.98-2.06,4.49-3.08,7.54-3.08h15.76c2.89,0,5.37,1.03,7.42,3.08,2.05,2.05,3.08,4.53,3.08,7.42v172.86c0,2.89-1.03,5.37-3.08,7.42-2.05,2.06-4.53,3.08-7.42,3.08Z"/>
    <path class="st3" d="M-2299.56,151.16c1.98,2.67,2.59,5.67,1.83,9.02-2.13,7.61-5.94,14.61-11.42,21.01-5.48,6.39-12.14,11.95-19.98,16.67-7.84,4.72-16.67,8.37-26.49,10.96-9.82,2.59-20.13,3.88-30.94,3.88-14.92,0-28.81-2.59-41.67-7.76-12.87-5.18-24.05-12.22-33.57-21.12-9.52-8.91-17.01-19.33-22.49-31.28-5.48-11.95-8.22-24.7-8.22-38.25s2.74-26.26,8.22-38.13c5.48-11.87,12.98-22.26,22.49-31.17,9.51-8.91,20.7-15.95,33.57-21.12,12.86-5.17,26.75-7.76,41.67-7.76,10.81,0,21.12,1.29,30.94,3.88,9.82,2.59,18.65,6.24,26.49,10.96,7.84,4.72,14.5,10.28,19.98,16.67,5.48,6.39,9.28,13.4,11.42,21.01.76,3.35.15,6.36-1.83,9.02-1.98,2.67-4.72,4-8.22,4h-15.98c-2.44,0-4.57-.76-6.39-2.28-1.83-1.52-3.05-3.5-3.65-5.94-1.07-4.87-3.08-9.32-6.05-13.36-2.97-4.03-6.74-7.46-11.3-10.28-4.57-2.82-9.86-4.98-15.87-6.51-6.02-1.52-12.52-2.28-19.52-2.28-10.2,0-19.56,1.94-28.09,5.82-8.53,3.88-15.83,9.13-21.92,15.76-6.09,6.62-10.81,14.39-14.16,23.29-3.35,8.91-5.02,18.38-5.02,28.43s1.67,19.75,5.02,28.66c3.35,8.91,8.07,16.67,14.16,23.29,6.09,6.62,13.39,11.87,21.92,15.76,8.52,3.88,17.89,5.82,28.09,5.82,14.16,0,25.95-2.93,35.39-8.79,9.44-5.86,15.22-13.74,17.35-23.63.61-2.43,1.83-4.41,3.65-5.94,1.83-1.52,3.96-2.28,6.39-2.28h15.98c3.5,0,6.24,1.33,8.22,4Z"/>
    <path class="st3" d="M-2116.19,17.46c2.13,0,3.96.76,5.48,2.28,1.52,1.52,2.28,3.35,2.28,5.48v9.36c0,2.13-.76,3.96-2.28,5.48-1.52,1.52-3.35,2.28-5.48,2.28h-104.81v158.47c0,2.89-1.03,5.37-3.08,7.42s-4.53,3.08-7.42,3.08h-15.76c-2.89,0-5.37-1.03-7.42-3.08s-3.08-4.53-3.08-7.42V42.35h-31.51c-2.13,0-4-.76-5.59-2.28-1.6-1.52-2.4-3.35-2.4-5.48v-9.36c0-2.13.8-3.96,2.4-5.48,1.6-1.52,3.46-2.28,5.59-2.28h173.09ZM-2108.43,203.34c.3,2.13-.15,4-1.37,5.59-1.22,1.6-2.89,2.4-5.02,2.4h-22.61c-2.13,0-3.96-.8-5.48-2.4-1.52-1.6-2.51-3.46-2.97-5.59l-5.71-29.69h-25.35l-7.31,31.74c-.31,1.67-.99,3.08-2.05,4.22-1.07,1.14-2.44,1.71-4.11,1.71h-14.62c-1.68,0-2.93-.57-3.77-1.71-.84-1.14-1.11-2.55-.8-4.22l30.83-134.04c.3-1.67,1.18-3.08,2.63-4.22,1.45-1.14,3-1.71,4.68-1.71h28.09c2.13,0,4.15.76,6.05,2.28,1.9,1.52,3,3.42,3.31,5.71l25.58,129.93ZM-2156.61,148.76l-6.62-34.48-7.99,34.48h14.62Z"/>
    <path class="st3" d="M-1994.71,19.74c1.52,1.52,2.28,3.35,2.28,5.48v9.36c0,2.13-.76,3.96-2.28,5.48-1.52,1.52-3.35,2.28-5.48,2.28h-59.83v58.46h36.08c2.13,0,3.96.8,5.48,2.4,1.52,1.6,2.28,3.46,2.28,5.59v9.36c0,2.13-.76,3.96-2.28,5.48s-3.35,2.28-5.48,2.28h-36.08v74.9c0,2.89-1.03,5.37-3.08,7.42-2.05,2.06-4.53,3.08-7.42,3.08h-15.76c-3.05,0-5.56-1.03-7.54-3.08-1.98-2.05-2.97-4.53-2.97-7.42V27.96c0-2.89.99-5.37,2.97-7.42,1.98-2.06,4.49-3.08,7.54-3.08h86.09c2.13,0,3.96.76,5.48,2.28Z"/>
    <path class="st3" d="M-1793.54,186.44c2.13,0,3.96.76,5.48,2.28,1.52,1.52,2.28,3.35,2.28,5.48v9.36c0,2.13-.76,3.96-2.28,5.48-1.52,1.52-3.35,2.28-5.48,2.28h-176.74c-3.05,0-5.59-1.03-7.65-3.08-2.06-2.05-3.08-4.53-3.08-7.42V27.96c0-3.04,1.03-5.55,3.08-7.54,2.05-1.98,4.6-2.97,7.65-2.97h15.53c3.04,0,5.56.99,7.54,2.97,1.98,1.98,2.97,4.49,2.97,7.54v158.48h150.71ZM-1859.3,163.38c-10.2,0-19.75-1.94-28.66-5.82s-16.67-9.17-23.29-15.87c-6.62-6.7-11.87-14.5-15.76-23.41-3.88-8.91-5.82-18.46-5.82-28.66s1.94-19.75,5.82-28.66c3.88-8.91,9.13-16.67,15.76-23.29s14.39-11.87,23.29-15.76,18.46-5.82,28.66-5.82,19.75,1.94,28.66,5.82c8.91,3.88,16.67,9.13,23.29,15.76s11.87,14.39,15.76,23.29c3.88,8.91,5.82,18.46,5.82,28.66s-1.94,19.75-5.82,28.66c-3.88,8.91-9.13,16.71-15.76,23.41-6.62,6.7-14.39,11.99-23.29,15.87-8.91,3.88-18.46,5.82-28.66,5.82ZM-1859.3,40.98c-5.63,0-10.7,1.29-15.19,3.88-4.49,2.59-8.33,6.09-11.53,10.5-3.2,4.42-5.67,9.55-7.42,15.41-1.75,5.86-2.63,12.14-2.63,18.84s.87,13.02,2.63,18.95c1.75,5.94,4.22,11.11,7.42,15.53,3.2,4.42,7.04,7.92,11.53,10.5,4.49,2.59,9.55,3.88,15.19,3.88s10.69-1.29,15.18-3.88c4.49-2.59,8.33-6.09,11.53-10.5,3.2-4.41,5.67-9.59,7.42-15.53,1.75-5.94,2.63-12.25,2.63-18.95s-.88-12.98-2.63-18.84c-1.75-5.86-4.22-11-7.42-15.41-3.2-4.41-7.04-7.91-11.53-10.5-4.49-2.59-9.55-3.88-15.18-3.88Z"/>
    <path class="st3" d="M-1602.41,19.74c1.22,1.52,1.52,3.35.91,5.48l-40.87,178.34c-.61,2.13-1.83,3.96-3.65,5.48-1.83,1.52-3.81,2.28-5.94,2.28h-22.38c-3.05,0-5.79-1.03-8.22-3.08-2.44-2.05-3.96-4.53-4.57-7.42l-8.91-45.9-11.19,48.64c-.46,2.13-1.64,3.96-3.54,5.48-1.91,1.52-3.92,2.28-6.05,2.28h-22.38c-2.89,0-5.56-1.03-7.99-3.08-2.44-2.05-3.96-4.53-4.57-7.42l-33.8-172.86c-.61-3.04-.08-5.55,1.6-7.54,1.67-1.98,3.96-2.97,6.85-2.97h18.95c3.04,0,5.33.99,6.85,2.97,1.52,1.98,2.59,4.49,3.2,7.54l25.58,130.84,14.84-64.17-13.02-66.68c-.61-3.04-.11-5.55,1.48-7.54,1.6-1.98,3.92-2.97,6.96-2.97h18.95c2.89,0,5.14.99,6.74,2.97,1.6,1.98,2.7,4.49,3.31,7.54l25.58,130.84,30.6-133.58c.61-2.13,1.6-3.96,2.97-5.48,1.37-1.52,3.12-2.28,5.25-2.28h11.42c2.13,0,3.8.76,5.02,2.28Z"/>
  </g>
  <g class="st1">
    <path class="st0" d="M-1463.71,17.46c8.22,0,16.06,1.6,23.52,4.8,7.46,3.2,14,7.57,19.64,13.13,5.63,5.56,10.08,12.03,13.36,19.41,3.27,7.39,4.91,15.26,4.91,23.63s-1.64,16.02-4.91,23.41c-3.28,7.39-7.73,13.85-13.36,19.41-5.63,5.56-12.18,9.97-19.64,13.24-7.46,3.28-15.3,4.91-23.52,4.91h-19.41v61.43c0,2.89-.99,5.37-2.97,7.42-1.98,2.06-4.49,3.08-7.54,3.08h-15.76c-2.89,0-5.37-1.03-7.42-3.08s-3.08-4.53-3.08-7.42V27.96c0-3.04,1.03-5.55,3.08-7.54,2.06-1.98,4.53-2.97,7.42-2.97h45.67ZM-1463.71,114.28c4.11,0,7.69-.95,10.73-2.85,3.04-1.9,5.59-4.49,7.65-7.76,2.05-3.27,3.61-7.08,4.68-11.42,1.06-4.34,1.6-8.94,1.6-13.82s-.54-9.51-1.6-13.93c-1.07-4.41-2.63-8.26-4.68-11.53-2.06-3.27-4.61-5.86-7.65-7.76-3.05-1.9-6.62-2.85-10.73-2.85h-19.41v71.93h19.41Z"/>
    <path class="st0" d="M-1168.23,174.56c3.04,0,5.55,1.03,7.54,3.08,1.98,2.06,2.97,4.53,2.97,7.42v15.76c0,2.89-.99,5.37-2.97,7.42-1.98,2.06-4.49,3.08-7.54,3.08h-102.53c-10.96,0-20.89-1.83-29.8-5.48s-16.63-8.72-23.18-15.19c-6.55-6.47-11.72-14.08-15.53-22.83-3.81-8.75-6.16-18.23-7.08-28.43h-7.76v61.43c0,2.89-.99,5.37-2.97,7.42-1.98,2.06-4.49,3.08-7.54,3.08h-15.76c-2.89,0-5.37-1.03-7.42-3.08-2.06-2.05-3.08-4.53-3.08-7.42V27.96c0-3.04,1.03-5.55,3.08-7.54,2.05-1.98,4.53-2.97,7.42-2.97h45.67c8.22,0,16.06,1.6,23.52,4.8,7.46,3.2,14,7.57,19.64,13.13,5.63,5.56,10.08,12.03,13.36,19.41,3.27,7.39,4.91,15.26,4.91,23.63,0,6.09-.91,11.95-2.74,17.58-1.83,5.63-4.38,10.85-7.65,15.64-3.28,4.8-7.16,9.1-11.65,12.9-4.49,3.81-9.4,6.93-14.73,9.36,0,6.09,1.14,11.61,3.42,16.55,2.28,4.95,5.29,9.21,9.02,12.79,3.73,3.58,7.91,6.36,12.56,8.33,4.64,1.98,9.4,2.97,14.27,2.97h102.53ZM-1354.11,114.28h19.41c4.11,0,7.68-.95,10.73-2.85,3.04-1.9,5.59-4.49,7.65-7.76,2.06-3.27,3.62-7.08,4.68-11.42,1.06-4.34,1.6-8.94,1.6-13.82s-.54-9.51-1.6-13.93c-1.07-4.41-2.63-8.26-4.68-11.53-2.05-3.27-4.61-5.86-7.65-7.76-3.05-1.9-6.62-2.85-10.73-2.85h-19.41v71.93ZM-1165.49,17.46c2.13,0,3.96.76,5.48,2.28,1.52,1.52,2.28,3.35,2.28,5.48v9.36c0,2.13-.76,3.96-2.28,5.48s-3.35,2.28-5.48,2.28h-59.83v52.98h36.31c2.13,0,3.96.76,5.48,2.28,1.52,1.52,2.28,3.35,2.28,5.48v9.36c0,2.13-.76,3.96-2.28,5.48-1.52,1.52-3.35,2.28-5.48,2.28h-36.31v43.16h-36.76V27.96c0-3.04,1.03-5.55,3.08-7.54,2.05-1.98,4.53-2.97,7.42-2.97h86.09Z"/>
    <path class="st0" d="M-1098.36,17.46c10.96,0,21.16,2.51,30.6,7.54,9.44,5.02,17.62,11.88,24.55,20.55,6.93,8.68,12.37,18.92,16.33,30.71,3.96,11.8,5.94,24.47,5.94,38.02s-1.98,26.22-5.94,38.02c-3.96,11.8-9.4,22.07-16.33,30.83-6.93,8.76-15.11,15.64-24.55,20.67-9.44,5.02-19.64,7.54-30.6,7.54h-37.45c-3.05,0-5.56-1.03-7.54-3.08-1.98-2.05-2.97-4.53-2.97-7.42V27.96c0-2.89.99-5.37,2.97-7.42,1.98-2.06,4.49-3.08,7.54-3.08h37.45ZM-1098.36,186.44c6.85,0,12.79-1.86,17.81-5.59,5.02-3.73,9.25-8.83,12.67-15.3,3.43-6.47,5.97-14.08,7.65-22.83,1.67-8.75,2.51-18.23,2.51-28.43s-.84-19.45-2.51-28.2c-1.68-8.75-4.22-16.36-7.65-22.83-3.42-6.47-7.65-11.57-12.67-15.3-5.02-3.73-10.96-5.59-17.81-5.59h-11.19v144.09h11.19Z"/>
    <path class="st0" d="M-983.27,211.33h-15.76c-3.05,0-5.56-1.03-7.54-3.08-1.98-2.05-2.97-4.53-2.97-7.42V27.96c0-2.89.99-5.37,2.97-7.42,1.98-2.06,4.49-3.08,7.54-3.08h15.76c2.89,0,5.37,1.03,7.42,3.08,2.05,2.05,3.08,4.53,3.08,7.42v172.86c0,2.89-1.03,5.37-3.08,7.42-2.05,2.06-4.53,3.08-7.42,3.08Z"/>
    <path class="st0" d="M-768.39,151.16c1.98,2.67,2.59,5.67,1.83,9.02-2.13,7.61-5.94,14.61-11.42,21.01-5.48,6.39-12.14,11.95-19.98,16.67-7.84,4.72-16.67,8.37-26.49,10.96-9.82,2.59-20.13,3.88-30.94,3.88-14.92,0-28.81-2.59-41.67-7.76-12.87-5.18-24.05-12.22-33.57-21.12-9.52-8.91-17.01-19.33-22.49-31.28-5.48-11.95-8.22-24.7-8.22-38.25s2.74-26.26,8.22-38.13c5.48-11.87,12.98-22.26,22.49-31.17,9.51-8.91,20.7-15.95,33.57-21.12,12.86-5.17,26.75-7.76,41.67-7.76,10.81,0,21.12,1.29,30.94,3.88,9.82,2.59,18.65,6.24,26.49,10.96,7.84,4.72,14.5,10.28,19.98,16.67,5.48,6.39,9.28,13.4,11.42,21.01.76,3.35.15,6.36-1.83,9.02-1.98,2.67-4.72,4-8.22,4h-15.98c-2.44,0-4.57-.76-6.39-2.28-1.83-1.52-3.05-3.5-3.65-5.94-1.07-4.87-3.08-9.32-6.05-13.36-2.97-4.03-6.74-7.46-11.3-10.28-4.57-2.82-9.86-4.98-15.87-6.51-6.02-1.52-12.52-2.28-19.52-2.28-10.2,0-19.56,1.94-28.09,5.82-8.53,3.88-15.83,9.13-21.92,15.76-6.09,6.62-10.81,14.39-14.16,23.29-3.35,8.91-5.02,18.38-5.02,28.43s1.67,19.75,5.02,28.66c3.35,8.91,8.07,16.67,14.16,23.29,6.09,6.62,13.39,11.87,21.92,15.76,8.52,3.88,17.89,5.82,28.09,5.82,14.16,0,25.95-2.93,35.39-8.79,9.44-5.86,15.22-13.74,17.35-23.63.61-2.43,1.83-4.41,3.65-5.94,1.83-1.52,3.96-2.28,6.39-2.28h15.98c3.5,0,6.24,1.33,8.22,4Z"/>
    <path class="st0" d="M-585.02,17.46c2.13,0,3.96.76,5.48,2.28,1.52,1.52,2.28,3.35,2.28,5.48v9.36c0,2.13-.76,3.96-2.28,5.48-1.52,1.52-3.35,2.28-5.48,2.28h-104.81v158.47c0,2.89-1.03,5.37-3.08,7.42s-4.53,3.08-7.42,3.08h-15.76c-2.89,0-5.37-1.03-7.42-3.08s-3.08-4.53-3.08-7.42V42.35h-31.51c-2.13,0-4-.76-5.59-2.28-1.6-1.52-2.4-3.35-2.4-5.48v-9.36c0-2.13.8-3.96,2.4-5.48,1.6-1.52,3.46-2.28,5.59-2.28h173.09ZM-577.26,203.34c.3,2.13-.15,4-1.37,5.59-1.22,1.6-2.89,2.4-5.02,2.4h-22.61c-2.13,0-3.96-.8-5.48-2.4-1.52-1.6-2.51-3.46-2.97-5.59l-5.71-29.69h-25.35l-7.31,31.74c-.31,1.67-.99,3.08-2.05,4.22-1.07,1.14-2.44,1.71-4.11,1.71h-14.62c-1.68,0-2.93-.57-3.77-1.71-.84-1.14-1.11-2.55-.8-4.22l30.83-134.04c.3-1.67,1.18-3.08,2.63-4.22,1.45-1.14,3-1.71,4.68-1.71h28.09c2.13,0,4.15.76,6.05,2.28,1.9,1.52,3,3.42,3.31,5.71l25.58,129.93ZM-625.44,148.76l-6.62-34.48-7.99,34.48h14.62Z"/>
    <path class="st0" d="M-463.54,19.74c1.52,1.52,2.28,3.35,2.28,5.48v9.36c0,2.13-.76,3.96-2.28,5.48-1.52,1.52-3.35,2.28-5.48,2.28h-59.83v58.46h36.08c2.13,0,3.96.8,5.48,2.4,1.52,1.6,2.28,3.46,2.28,5.59v9.36c0,2.13-.76,3.96-2.28,5.48s-3.35,2.28-5.48,2.28h-36.08v74.9c0,2.89-1.03,5.37-3.08,7.42-2.05,2.06-4.53,3.08-7.42,3.08h-15.76c-3.05,0-5.56-1.03-7.54-3.08-1.98-2.05-2.97-4.53-2.97-7.42V27.96c0-2.89.99-5.37,2.97-7.42,1.98-2.06,4.49-3.08,7.54-3.08h86.09c2.13,0,3.96.76,5.48,2.28Z"/>
    <path class="st0" d="M-262.37,186.44c2.13,0,3.96.76,5.48,2.28,1.52,1.52,2.28,3.35,2.28,5.48v9.36c0,2.13-.76,3.96-2.28,5.48-1.52,1.52-3.35,2.28-5.48,2.28h-176.74c-3.05,0-5.59-1.03-7.65-3.08-2.06-2.05-3.08-4.53-3.08-7.42V27.96c0-3.04,1.03-5.55,3.08-7.54,2.05-1.98,4.6-2.97,7.65-2.97h15.53c3.04,0,5.56.99,7.54,2.97,1.98,1.98,2.97,4.49,2.97,7.54v158.48h150.71ZM-328.13,163.38c-10.2,0-19.75-1.94-28.66-5.82s-16.67-9.17-23.29-15.87c-6.62-6.7-11.87-14.5-15.76-23.41-3.88-8.91-5.82-18.46-5.82-28.66s1.94-19.75,5.82-28.66c3.88-8.91,9.13-16.67,15.76-23.29s14.39-11.87,23.29-15.76,18.46-5.82,28.66-5.82,19.75,1.94,28.66,5.82c8.91,3.88,16.67,9.13,23.29,15.76s11.87,14.39,15.76,23.29c3.88,8.91,5.82,18.46,5.82,28.66s-1.94,19.75-5.82,28.66c-3.88,8.91-9.13,16.71-15.76,23.41-6.62,6.7-14.39,11.99-23.29,15.87-8.91,3.88-18.46,5.82-28.66,5.82ZM-328.13,40.98c-5.63,0-10.7,1.29-15.19,3.88-4.49,2.59-8.33,6.09-11.53,10.5-3.2,4.42-5.67,9.55-7.42,15.41-1.75,5.86-2.63,12.14-2.63,18.84s.87,13.02,2.63,18.95c1.75,5.94,4.22,11.11,7.42,15.53,3.2,4.42,7.04,7.92,11.53,10.5,4.49,2.59,9.55,3.88,15.19,3.88s10.69-1.29,15.18-3.88c4.49-2.59,8.33-6.09,11.53-10.5,3.2-4.41,5.67-9.59,7.42-15.53,1.75-5.94,2.63-12.25,2.63-18.95s-.88-12.98-2.63-18.84c-1.75-5.86-4.22-11-7.42-15.41-3.2-4.41-7.04-7.91-11.53-10.5-4.49-2.59-9.55-3.88-15.18-3.88Z"/>
    <path class="st0" d="M-71.24,19.74c1.22,1.52,1.52,3.35.91,5.48l-40.87,178.34c-.61,2.13-1.83,3.96-3.65,5.48-1.83,1.52-3.81,2.28-5.94,2.28h-22.38c-3.05,0-5.79-1.03-8.22-3.08-2.44-2.05-3.96-4.53-4.57-7.42l-8.91-45.9-11.19,48.64c-.46,2.13-1.64,3.96-3.54,5.48-1.91,1.52-3.92,2.28-6.05,2.28h-22.38c-2.89,0-5.56-1.03-7.99-3.08-2.44-2.05-3.96-4.53-4.57-7.42L-254.38,27.96c-.61-3.04-.08-5.55,1.6-7.54,1.67-1.98,3.96-2.97,6.85-2.97h18.95c3.04,0,5.33.99,6.85,2.97,1.52,1.98,2.59,4.49,3.2,7.54l25.58,130.84,14.84-64.17-13.02-66.68c-.61-3.04-.11-5.55,1.48-7.54,1.6-1.98,3.92-2.97,6.96-2.97h18.95c2.89,0,5.14.99,6.74,2.97,1.6,1.98,2.7,4.49,3.31,7.54l25.58,130.84L-95.9,25.22c.61-2.13,1.6-3.96,2.97-5.48,1.37-1.52,3.12-2.28,5.25-2.28h11.42c2.13,0,3.8.76,5.02,2.28Z"/>
  </g>
  <g class="st1">
    <path class="st4" d="M67.45,17.46c8.22,0,16.06,1.6,23.52,4.8,7.46,3.2,14,7.57,19.64,13.13,5.63,5.56,10.08,12.03,13.36,19.41,3.27,7.39,4.91,15.26,4.91,23.63s-1.64,16.02-4.91,23.41c-3.28,7.39-7.73,13.85-13.36,19.41-5.63,5.56-12.18,9.97-19.64,13.24-7.46,3.28-15.3,4.91-23.52,4.91h-19.41v61.43c0,2.89-.99,5.37-2.97,7.42-1.98,2.06-4.49,3.08-7.54,3.08h-15.76c-2.89,0-5.37-1.03-7.42-3.08s-3.08-4.53-3.08-7.42V27.96c0-3.04,1.03-5.55,3.08-7.54,2.06-1.98,4.53-2.97,7.42-2.97h45.67ZM67.45,114.28c4.11,0,7.69-.95,10.73-2.85,3.04-1.9,5.59-4.49,7.65-7.76,2.05-3.27,3.61-7.08,4.68-11.42,1.06-4.34,1.6-8.94,1.6-13.82s-.54-9.51-1.6-13.93c-1.07-4.41-2.63-8.26-4.68-11.53-2.06-3.27-4.61-5.86-7.65-7.76-3.05-1.9-6.62-2.85-10.73-2.85h-19.41v71.93h19.41Z"/>
    <path class="st4" d="M362.94,174.56c3.04,0,5.55,1.03,7.54,3.08,1.98,2.06,2.97,4.53,2.97,7.42v15.76c0,2.89-.99,5.37-2.97,7.42-1.98,2.06-4.49,3.08-7.54,3.08h-102.53c-10.96,0-20.89-1.83-29.8-5.48s-16.63-8.72-23.18-15.19c-6.55-6.47-11.72-14.08-15.53-22.83-3.81-8.75-6.16-18.23-7.08-28.43h-7.76v61.43c0,2.89-.99,5.37-2.97,7.42-1.98,2.06-4.49,3.08-7.54,3.08h-15.76c-2.89,0-5.37-1.03-7.42-3.08-2.06-2.05-3.08-4.53-3.08-7.42V27.96c0-3.04,1.03-5.55,3.08-7.54,2.05-1.98,4.53-2.97,7.42-2.97h45.67c8.22,0,16.06,1.6,23.52,4.8,7.46,3.2,14,7.57,19.64,13.13,5.63,5.56,10.08,12.03,13.36,19.41,3.27,7.39,4.91,15.26,4.91,23.63,0,6.09-.91,11.95-2.74,17.58-1.83,5.63-4.38,10.85-7.65,15.64-3.28,4.8-7.16,9.1-11.65,12.9-4.49,3.81-9.4,6.93-14.73,9.36,0,6.09,1.14,11.61,3.42,16.55,2.28,4.95,5.29,9.21,9.02,12.79,3.73,3.58,7.91,6.36,12.56,8.33,4.64,1.98,9.4,2.97,14.27,2.97h102.53ZM177.06,114.28h19.41c4.11,0,7.68-.95,10.73-2.85,3.04-1.9,5.59-4.49,7.65-7.76,2.06-3.27,3.62-7.08,4.68-11.42,1.06-4.34,1.6-8.94,1.6-13.82s-.54-9.51-1.6-13.93c-1.07-4.41-2.63-8.26-4.68-11.53-2.05-3.27-4.61-5.86-7.65-7.76-3.05-1.9-6.62-2.85-10.73-2.85h-19.41v71.93ZM365.68,17.46c2.13,0,3.96.76,5.48,2.28,1.52,1.52,2.28,3.35,2.28,5.48v9.36c0,2.13-.76,3.96-2.28,5.48s-3.35,2.28-5.48,2.28h-59.83v52.98h36.31c2.13,0,3.96.76,5.48,2.28,1.52,1.52,2.28,3.35,2.28,5.48v9.36c0,2.13-.76,3.96-2.28,5.48-1.52,1.52-3.35,2.28-5.48,2.28h-36.31v43.16h-36.76V27.96c0-3.04,1.03-5.55,3.08-7.54,2.05-1.98,4.53-2.97,7.42-2.97h86.09Z"/>
    <path class="st4" d="M432.81,17.46c10.96,0,21.16,2.51,30.6,7.54,9.44,5.02,17.62,11.88,24.55,20.55,6.93,8.68,12.37,18.92,16.33,30.71,3.96,11.8,5.94,24.47,5.94,38.02s-1.98,26.22-5.94,38.02c-3.96,11.8-9.4,22.07-16.33,30.83-6.93,8.76-15.11,15.64-24.55,20.67-9.44,5.02-19.64,7.54-30.6,7.54h-37.45c-3.05,0-5.56-1.03-7.54-3.08-1.98-2.05-2.97-4.53-2.97-7.42V27.96c0-2.89.99-5.37,2.97-7.42,1.98-2.06,4.49-3.08,7.54-3.08h37.45ZM432.81,186.44c6.85,0,12.79-1.86,17.81-5.59,5.02-3.73,9.25-8.83,12.67-15.3,3.43-6.47,5.97-14.08,7.65-22.83,1.67-8.75,2.51-18.23,2.51-28.43s-.84-19.45-2.51-28.2c-1.68-8.75-4.22-16.36-7.65-22.83-3.42-6.47-7.65-11.57-12.67-15.3-5.02-3.73-10.96-5.59-17.81-5.59h-11.19v144.09h11.19Z"/>
    <path class="st4" d="M547.9,211.33h-15.76c-3.05,0-5.56-1.03-7.54-3.08-1.98-2.05-2.97-4.53-2.97-7.42V27.96c0-2.89.99-5.37,2.97-7.42,1.98-2.06,4.49-3.08,7.54-3.08h15.76c2.89,0,5.37,1.03,7.42,3.08,2.05,2.05,3.08,4.53,3.08,7.42v172.86c0,2.89-1.03,5.37-3.08,7.42-2.05,2.06-4.53,3.08-7.42,3.08Z"/>
    <path class="st4" d="M762.78,151.16c1.98,2.67,2.59,5.67,1.83,9.02-2.13,7.61-5.94,14.61-11.42,21.01-5.48,6.39-12.14,11.95-19.98,16.67-7.84,4.72-16.67,8.37-26.49,10.96-9.82,2.59-20.13,3.88-30.94,3.88-14.92,0-28.81-2.59-41.67-7.76-12.87-5.18-24.05-12.22-33.57-21.12-9.52-8.91-17.01-19.33-22.49-31.28-5.48-11.95-8.22-24.7-8.22-38.25s2.74-26.26,8.22-38.13c5.48-11.87,12.98-22.26,22.49-31.17,9.51-8.91,20.7-15.95,33.57-21.12,12.86-5.17,26.75-7.76,41.67-7.76,10.81,0,21.12,1.29,30.94,3.88,9.82,2.59,18.65,6.24,26.49,10.96,7.84,4.72,14.5,10.28,19.98,16.67,5.48,6.39,9.28,13.4,11.42,21.01.76,3.35.15,6.36-1.83,9.02-1.98,2.67-4.72,4-8.22,4h-15.98c-2.44,0-4.57-.76-6.39-2.28-1.83-1.52-3.05-3.5-3.65-5.94-1.07-4.87-3.08-9.32-6.05-13.36-2.97-4.03-6.74-7.46-11.3-10.28-4.57-2.82-9.86-4.98-15.87-6.51-6.02-1.52-12.52-2.28-19.52-2.28-10.2,0-19.56,1.94-28.09,5.82-8.53,3.88-15.83,9.13-21.92,15.76-6.09,6.62-10.81,14.39-14.16,23.29-3.35,8.91-5.02,18.38-5.02,28.43s1.67,19.75,5.02,28.66c3.35,8.91,8.07,16.67,14.16,23.29,6.09,6.62,13.39,11.87,21.92,15.76,8.52,3.88,17.89,5.82,28.09,5.82,14.16,0,25.95-2.93,35.39-8.79,9.44-5.86,15.22-13.74,17.35-23.63.61-2.43,1.83-4.41,3.65-5.94,1.83-1.52,3.96-2.28,6.39-2.28h15.98c3.5,0,6.24,1.33,8.22,4Z"/>
    <path class="st4" d="M946.14,17.46c2.13,0,3.96.76,5.48,2.28,1.52,1.52,2.28,3.35,2.28,5.48v9.36c0,2.13-.76,3.96-2.28,5.48-1.52,1.52-3.35,2.28-5.48,2.28h-104.81v158.47c0,2.89-1.03,5.37-3.08,7.42s-4.53,3.08-7.42,3.08h-15.76c-2.89,0-5.37-1.03-7.42-3.08s-3.08-4.53-3.08-7.42V42.35h-31.51c-2.13,0-4-.76-5.59-2.28-1.6-1.52-2.4-3.35-2.4-5.48v-9.36c0-2.13.8-3.96,2.4-5.48,1.6-1.52,3.46-2.28,5.59-2.28h173.09ZM953.91,203.34c.3,2.13-.15,4-1.37,5.59-1.22,1.6-2.89,2.4-5.02,2.4h-22.61c-2.13,0-3.96-.8-5.48-2.4-1.52-1.6-2.51-3.46-2.97-5.59l-5.71-29.69h-25.35l-7.31,31.74c-.31,1.67-.99,3.08-2.05,4.22-1.07,1.14-2.44,1.71-4.11,1.71h-14.62c-1.68,0-2.93-.57-3.77-1.71-.84-1.14-1.11-2.55-.8-4.22l30.83-134.04c.3-1.67,1.18-3.08,2.63-4.22,1.45-1.14,3-1.71,4.68-1.71h28.09c2.13,0,4.15.76,6.05,2.28,1.9,1.52,3,3.42,3.31,5.71l25.58,129.93ZM905.73,148.76l-6.62-34.48-7.99,34.48h14.62Z"/>
    <path class="st4" d="M1067.62,19.74c1.52,1.52,2.28,3.35,2.28,5.48v9.36c0,2.13-.76,3.96-2.28,5.48-1.52,1.52-3.35,2.28-5.48,2.28h-59.83v58.46h36.08c2.13,0,3.96.8,5.48,2.4,1.52,1.6,2.28,3.46,2.28,5.59v9.36c0,2.13-.76,3.96-2.28,5.48s-3.35,2.28-5.48,2.28h-36.08v74.9c0,2.89-1.03,5.37-3.08,7.42-2.05,2.06-4.53,3.08-7.42,3.08h-15.76c-3.05,0-5.56-1.03-7.54-3.08-1.98-2.05-2.97-4.53-2.97-7.42V27.96c0-2.89.99-5.37,2.97-7.42,1.98-2.06,4.49-3.08,7.54-3.08h86.09c2.13,0,3.96.76,5.48,2.28Z"/>
    <path class="st4" d="M1268.8,186.44c2.13,0,3.96.76,5.48,2.28,1.52,1.52,2.28,3.35,2.28,5.48v9.36c0,2.13-.76,3.96-2.28,5.48-1.52,1.52-3.35,2.28-5.48,2.28h-176.74c-3.05,0-5.59-1.03-7.65-3.08-2.06-2.05-3.08-4.53-3.08-7.42V27.96c0-3.04,1.03-5.55,3.08-7.54,2.05-1.98,4.6-2.97,7.65-2.97h15.53c3.04,0,5.56.99,7.54,2.97,1.98,1.98,2.97,4.49,2.97,7.54v158.48h150.71ZM1203.03,163.38c-10.2,0-19.75-1.94-28.66-5.82s-16.67-9.17-23.29-15.87c-6.62-6.7-11.87-14.5-15.76-23.41-3.88-8.91-5.82-18.46-5.82-28.66s1.94-19.75,5.82-28.66c3.88-8.91,9.13-16.67,15.76-23.29s14.39-11.87,23.29-15.76,18.46-5.82,28.66-5.82,19.75,1.94,28.66,5.82c8.91,3.88,16.67,9.13,23.29,15.76s11.87,14.39,15.76,23.29c3.88,8.91,5.82,18.46,5.82,28.66s-1.94,19.75-5.82,28.66c-3.88,8.91-9.13,16.71-15.76,23.41-6.62,6.7-14.39,11.99-23.29,15.87-8.91,3.88-18.46,5.82-28.66,5.82ZM1203.03,40.98c-5.63,0-10.7,1.29-15.19,3.88-4.49,2.59-8.33,6.09-11.53,10.5-3.2,4.42-5.67,9.55-7.42,15.41-1.75,5.86-2.63,12.14-2.63,18.84s.87,13.02,2.63,18.95c1.75,5.94,4.22,11.11,7.42,15.53,3.2,4.42,7.04,7.92,11.53,10.5,4.49,2.59,9.55,3.88,15.19,3.88s10.69-1.29,15.18-3.88c4.49-2.59,8.33-6.09,11.53-10.5,3.2-4.41,5.67-9.59,7.42-15.53,1.75-5.94,2.63-12.25,2.63-18.95s-.88-12.98-2.63-18.84c-1.75-5.86-4.22-11-7.42-15.41-3.2-4.41-7.04-7.91-11.53-10.5-4.49-2.59-9.55-3.88-15.18-3.88Z"/>
    <path class="st4" d="M1459.93,19.74c1.22,1.52,1.52,3.35.91,5.48l-40.87,178.34c-.61,2.13-1.83,3.96-3.65,5.48-1.83,1.52-3.81,2.28-5.94,2.28h-22.38c-3.05,0-5.79-1.03-8.22-3.08-2.44-2.05-3.96-4.53-4.57-7.42l-8.91-45.9-11.19,48.64c-.46,2.13-1.64,3.96-3.54,5.48-1.91,1.52-3.92,2.28-6.05,2.28h-22.38c-2.89,0-5.56-1.03-7.99-3.08-2.44-2.05-3.96-4.53-4.57-7.42l-33.8-172.86c-.61-3.04-.08-5.55,1.6-7.54,1.67-1.98,3.96-2.97,6.85-2.97h18.95c3.04,0,5.33.99,6.85,2.97,1.52,1.98,2.59,4.49,3.2,7.54l25.58,130.84,14.84-64.17-13.02-66.68c-.61-3.04-.11-5.55,1.48-7.54,1.6-1.98,3.92-2.97,6.96-2.97h18.95c2.89,0,5.14.99,6.74,2.97,1.6,1.98,2.7,4.49,3.31,7.54l25.58,130.84,30.6-133.58c.61-2.13,1.6-3.96,2.97-5.48,1.37-1.52,3.12-2.28,5.25-2.28h11.42c2.13,0,3.8.76,5.02,2.28Z"/>
  </g>
  <circle class="st2" cx="-4518.79" cy="-657.04" r="103.26"/>
  <circle class="st3" cx="-4270.03" cy="-657.04" r="103.26"/>
  <circle class="st0" cx="-4518.79" cy="-419.86" r="103.26"/>
  <circle class="st4" cx="-4270.03" cy="-419.86" r="103.26"/>
</svg>