<?xml version="1.0" encoding="UTF-8"?>
<svg overflow="visible" id="Capa_1" xmlns="http://www.w3.org/2000/svg" version="1.1" viewBox="130 400 1660 600">
  <!-- Generator: Adobe Illustrator 30.0.0, SVG Export Plug-In . SVG Version: 2.1.1 Build 123)  -->
  <defs>
    <style>
      .st0 {
        isolation: isolate;
      }

      .st1 {
        fill: #f1ece1;
      }
    </style>
  </defs>
  <g>
    <path class="st1" d="M214.09,502.59c0,13.37-5.72,23.77-17.16,31.21-7.17,4.69-16.26,7.03-27.29,7.03-4.69,0-9.99-.48-15.92-1.45v58.7c0,3.17.14,5.17.41,5.99.69,1.93,2.2,3.1,4.55,3.51,3.99.55,7.85.83,11.58.83,1.51,0,2.27.48,2.27,1.45,0,1.38-.97,2.07-2.89,2.07h-47.54c-4.13,0-6.2-.69-6.2-2.07,0-.97,1.45-1.45,4.34-1.45,6.48,0,10.2-.62,11.16-1.86,1.1-.55,1.72-1.93,1.86-4.14v-122.14c0-4.28-1.17-6.9-3.51-7.87-1.38-.55-3.79-.83-7.23-.83h-3.51c-2.07,0-3.1-.55-3.1-1.66,0-1.23,1.93-1.85,5.79-1.85h45.47c15.71,0,27.21,2.76,34.52,8.27,8.27,6.2,12.4,14.95,12.4,26.25h0ZM192.39,502.79c0-20.8-8.68-31.21-26.04-31.21-5.79,0-9.58.97-11.37,2.91-.83.83-1.24,2.98-1.24,6.45v55.34c1.1.14,2.34.21,3.72.21,9.09,0,16.81-2.01,23.15-6.03,7.85-4.99,11.78-14.21,11.78-27.67Z"/>
    <path class="st1" d="M260.81,534.42c0,3.17-.97,5.79-2.89,7.85-1.93,2.07-4.41,3.1-7.44,3.1-2.48,0-4.55-.72-6.2-2.17s-2.48-3.27-2.48-5.48c0-1.93.62-3.58,1.86-4.96s1.86-2.34,1.86-2.89c0-2.07-1.52-3.1-4.55-3.1-3.86,0-7.17,2.4-9.92,7.2-3.17,5.62-4.75,16.04-4.75,31.26v40.72c0,1.65.58,2.67,1.76,3.08,1.17.41,4.72.69,10.64.82,1.51.28,2.27.83,2.27,1.65,0,.97-.9,1.45-2.69,1.45h-40.1c-2.21,0-3.31-.41-3.31-1.24s.9-1.24,2.69-1.24h2.89c4.68,0,7.44-.55,8.27-1.66.27-.55.41-3.11.41-7.69v-57.13c0-7.62-1.14-12.01-3.41-13.19s-5.89-1.83-10.85-1.97c-1.65,0-2.48-.48-2.48-1.45s.69-1.45,2.07-1.45h1.45c2.07,0,4.13.1,6.2.31s2.96.31,2.69.31c5.1,0,10.75-1.45,16.95-4.34l2.69-1.24,1.65-.62c.55,3.31.83,6.61.83,9.92v4.13c4.41-9.37,10.61-14.06,18.6-14.06,4.41,0,8.06,1.34,10.96,4.03,2.89,2.69,4.34,6.03,4.34,10.03v.02Z"/>
    <path class="st1" d="M333.47,574.63c.51,1.28.43,3.95-.24,8-.68,4.06-1.63,7.52-2.85,10.38-3.24,7.84-9.47,13.6-18.68,17.29-11.51,4.62-22.8,4.32-33.87-.89s-19.07-13.96-23.99-26.23c-5.13-12.79-5.74-24.94-1.82-36.46s11.38-19.48,22.38-23.89c9.08-3.64,17.76-4.04,26.02-1.19,8.27,2.85,14.26,8.35,17.98,16.51-3.84,2.28-9.17,4.72-16,7.31l-13.43,5.39c-.9.36-8.49,3.63-22.79,9.8,1.05,4.47,2.34,8.61,3.87,12.43,5.16,12.87,11.6,21.79,19.31,26.76,7.71,4.97,16.04,5.66,24.99,2.07,5.11-2.05,8.75-4.84,10.89-8.38,2.15-3.53,3.7-9.28,4.67-17.24.1-1.23.6-2.02,1.49-2.38,1.02-.41,1.71-.17,2.07.73h0ZM301.08,542.19c-6.67-15.14-15.25-20.61-25.73-16.41-10.36,4.15-13.74,14.42-10.15,30.79l35.88-14.39h0Z"/>
    <path class="st1" d="M410.43,607.49c0,.97-.96,1.45-2.89,1.45h-6.2c-6.75,0-12.47,1.33-17.16,3.98-1.93,1.06-3.1,1.6-3.51,1.6-1.24,0-1.86-.83-1.86-2.48l.21-6.41c-5.93,5.93-12.95,8.89-21.08,8.89-11.58,0-21.12-4.46-28.63-13.39s-11.26-20.31-11.26-34.15,3.75-25.81,11.26-34.67,17.33-13.29,29.46-13.29c9.37,0,16.4,3.38,21.08,10.13v-32.25c0-10.47-.48-16.95-1.43-19.43-.82-2.07-2.04-3.03-3.67-2.89-3.94.41-6.32.62-7.13.62-1.77,0-2.65-.62-2.65-1.86s.75-1.86,2.26-1.86l7.4.21c4.1.14,10.4-1.79,18.89-5.79.55-.27,1.02-.41,1.44-.41,1.37,0,2.05,1.65,2.05,4.96v81.44c0,32.66.27,50.16.83,52.5.27.97,3.51,1.45,9.71,1.45,1.93,0,2.89.55,2.89,1.65h0ZM379.84,555.61c0-13.23-1.45-21.7-4.34-25.42-3.72-4.68-8.48-7.03-14.26-7.03-7.44,0-13.37,3.86-17.78,11.57-4.41,7.72-6.61,18.05-6.61,31.01s1.93,23.02,5.79,31.83c1.65,3.72,4.1,6.79,7.34,9.2,3.24,2.41,6.58,3.62,10.03,3.62,4.27,0,8.13-1.27,11.58-3.82,3.44-2.55,5.68-5.61,6.72-9.2,1.03-3.58,1.55-17.5,1.55-41.75h-.02Z"/>
    <path class="st1" d="M407.74,523.15c.21.62.86,7.31.99,10.75v62.63c0,5.1-.24,7.96-.72,8.58s-3.34,1-8.58,1.14c-2.76,0-4.13.73-4.13,2.19,0,1.02.52.42,2.03.42.64,0,1.61.03,2.92.09l21.3.19c2.75,0,6.2.14,10.34.41,3.44.27,5.1.41,4.96.41,2.34,0,3.51-.62,3.51-1.86,0-1.1-.97-1.65-2.89-1.65-4,0-7.03-.27-9.09-.82-1.24-.27-1.96-.9-2.17-1.86-.21-.96-.31-4.19-.31-9.69v-66.41c0-5.5-.55-9.28-1.63-11.34l-2.04,1.21c-4.34,2.59-9,4.57-14.48,5.61"/>
    <path class="st1" d="M504.45,540.52c0,6.34-3.1,9.51-9.3,9.51s-9.09-2.89-9.09-8.68c0-1.51.69-3.79,2.07-6.82.41-.96.62-1.93.62-2.89,0-2.76-1.41-5.03-4.24-6.82s-6.38-2.69-10.64-2.69c-8.27,0-14.68,3.58-19.22,10.75-4.55,7.17-6.82,17.23-6.82,30.18,0,14.61,2.34,25.87,7.03,33.8,4.68,7.93,11.3,11.89,19.84,11.89,5.79,0,10.95-1.79,15.5-5.37,2.07-1.65,4.75-4.82,8.06-9.51.69-.69,1.31-1.03,1.86-1.03,1.38,0,2.07.55,2.07,1.65,0,1.79-2.41,5.17-7.23,10.13-6.2,6.48-14.13,9.72-23.77,9.72-12.13,0-22.15-4.34-30.07-13.02-7.93-8.68-11.89-19.64-11.89-32.87,0-14.19,4.2-25.94,12.61-35.24,8.4-9.3,18.95-13.95,31.63-13.95,8.13,0,15.33,2.14,21.6,6.41,6.27,4.27,9.4,9.23,9.4,14.88l-.02-.03Z"/>
    <path class="st1" d="M547.16,593.47c0,1.65-1.72,4.58-5.17,8.8-5.93,7.15-12.95,10.72-21.08,10.72-7.58,0-13.3-2.56-17.16-7.68-2.21-2.92-3.31-11.52-3.31-25.78v-81.73c-.14-1.83-.9-2.83-2.27-3.01h-7.86c-3.03,0-4.55-.64-4.55-1.92s.75-2.01,2.26-2.2c10.68-1.3,19.03-8.34,25.06-21.14.82-1.67,1.85-2.5,3.08-2.5.96,0,1.44.64,1.44,1.92v5.77c0,7.7.27,12.65.83,14.84,1.24.37,3.31.55,6.2.55,7.58,0,12.61-.46,15.09-1.37.55-.18,1.03-.28,1.45-.28,1.1,0,1.65.79,1.65,2.37,0,2.64-5.58,3.95-16.74,3.95h-8.48v50.86c0,25.66.48,41.74,1.45,48.24.96,6.51,4.13,9.76,9.51,9.76,4.55,0,9.64-3.39,15.3-10.17.55-.92,1.17-1.37,1.86-1.37.96,0,1.45.46,1.45,1.37h-.01Z"/>
    <path class="st1" d="M615.42,602.42c0,2.34-2.44,4.79-7.3,7.34-4.87,2.55-9.56,3.82-14.08,3.82-9.46,0-14.4-4.89-14.81-14.68-5.21,10.2-13.3,15.3-24.27,15.3-5.9,0-10.76-1.76-14.6-5.27-3.84-3.51-5.76-8.03-5.76-13.54,0-11.3,6.76-20.26,20.28-26.87,4.64-2.2,12.7-4.41,24.16-6.61v-5.17c0-12.12-.62-20.12-1.86-23.98-2.21-7.03-7.17-10.54-14.88-10.54-4.83,0-8.86,1.31-12.09,3.93-3.24,2.62-4.86,5.93-4.86,9.92,0,1.11.84,1.65,2.53,1.65s3.2.83,4.55,2.48c1.35,1.65,2.02,3.51,2.02,5.58,0,6.06-3,9.09-9,9.09-3.14,0-5.73-1.07-7.77-3.2-2.05-2.14-3.07-4.86-3.07-8.17,0-6.48,2.55-12.06,7.65-16.74,5.65-5.1,13.5-7.65,23.56-7.65,15.16,0,24.46,4.13,27.9,12.4,1.24,3.17,1.86,9.44,1.86,18.81v38.65c0,6.34.07,10.06.21,11.16.69,4.96,2.69,7.44,5.99,7.44,3.86,0,7.03-1.38,9.51-4.13,1.38-1.51,2.41-2.27,3.1-2.27s1.03.41,1.03,1.24h0ZM579.04,580.51v-15.09c-10.19,2.34-17.49,5.41-21.9,9.2-4.41,3.79-6.62,8.86-6.62,15.19,0,4.41,1.26,8.03,3.77,10.85,2.51,2.83,5.67,4.24,9.48,4.24,5.84,0,10.52-3.31,14.06-9.92.81-1.51,1.22-6.34,1.22-14.47h0Z"/>
  </g>
  <g class="st0">
    <g class="st0">
      <path class="st1" d="M696.43,555.4c-1.93,4-6.58,8.06-13.95,12.2-7.37,4.13-18.09,8.61-32.14,13.44,0,.14-.04.35-.1.62-.07.28-.04.41.1.41,4.41,3.45,7.82,7.44,10.23,11.99,2.41,4.55,4.31,9.51,5.68,14.88,1.51,4.69,2.58,9.47,3.2,14.37.62,4.89.86,9.75.72,14.57-.28,3.31-.76,6.27-1.45,8.89-.69,3.44-2.04,6.1-4.03,7.96-2,1.86-4.17,2.79-6.51,2.79-2.07,0-3.96-.55-5.68-1.65-1.72-1.1-3.31-2.48-4.75-4.13-1.45-1.65-2.76-3.41-3.93-5.27-1.17-1.86-2.1-3.62-2.79-5.27-2.62-5.65-4.44-11.4-5.48-17.26-1.03-5.86-1.83-11.89-2.38-18.09-1.93-21.77-1.96-43.41-.1-64.9,1.86-21.5,4.79-42.92,8.79-64.28.13-.69.31-1.58.52-2.69.21-1.1.52-2.13.93-3.1.41-.96.93-1.79,1.55-2.48.62-.69,1.34-1.03,2.17-1.03,1.38,0,3.38.69,6,2.07-1.79,17.64-3.51,35.24-5.17,52.81-1.65,17.57-2.48,35.52-2.48,53.85,7.99-1.38,15.67-3.69,23.05-6.93,7.37-3.23,14.43-7.06,21.19-11.47,1.1-.69,2.14-1.45,3.1-2.27.96-.83,2.2-.83,3.72,0ZM658.19,650.69c1.79-1.93,3.1-4.65,3.93-8.17.83-3.51,1.24-7.41,1.24-11.68s-.41-8.68-1.24-13.23c-.83-4.55-1.96-8.85-3.41-12.92-1.45-4.06-3.17-7.68-5.17-10.85-2-3.17-4.24-5.44-6.72-6.82-.69,2.34-1.07,5.37-1.14,9.09-.07,3.72.1,7.72.52,11.99.41,4.27,1,8.64,1.76,13.12.76,4.48,1.69,8.68,2.79,12.61,1.1,3.93,2.27,7.37,3.51,10.34,1.24,2.96,2.55,5.13,3.93,6.51ZM750.59,551.89c-.14.69-.28,1.34-.41,1.96-.14.62-.35,1.21-.62,1.76-2.34,5.24-4.69,10.37-7.03,15.4-2.34,5.03-4.69,9.96-7.03,14.78-1.24,2.48-2.89,5.41-4.96,8.79-2.07,3.38-4.41,6.54-7.03,9.51-2.62,2.96-5.45,5.48-8.47,7.54-3.03,2.07-6.13,3.1-9.3,3.1s-5.68-.76-7.96-2.27c-2.27-1.52-4.21-3.51-5.79-5.99-1.59-2.48-2.93-5.27-4.03-8.37-1.1-3.1-1.96-6.23-2.58-9.41-.62-3.17-1.1-6.23-1.45-9.2-.35-2.96-.59-5.54-.72-7.75-.69-13.09-.62-26.15.21-39.17.83-13.02,2.55-26.08,5.17-39.17,1.1-5.92,2.27-11.81,3.51-17.67,1.24-5.86,2.41-11.75,3.51-17.67.41-1.38.83-2.79,1.24-4.24.41-1.45.83-2.79,1.24-4.03,3.86-.14,6.3.24,7.34,1.14,1.03.9,1.34,3.07.93,6.51-.55,4.27-1.11,8.51-1.65,12.71-.55,4.21-1.17,8.44-1.86,12.71-2.35,13.51-4.24,26.94-5.68,40.31-1.45,13.37-2.24,26.94-2.38,40.72,0,5.24.24,10.47.72,15.71.48,5.24.93,10.47,1.34,15.71.13.96.45,2.35.93,4.13.48,1.79,1.1,3.55,1.86,5.27.75,1.72,1.65,3.21,2.69,4.45s2.17,1.86,3.41,1.86c1.1,0,2.38-.41,3.82-1.24,1.45-.83,2.89-1.79,4.34-2.89,1.45-1.1,2.79-2.24,4.03-3.41,1.24-1.17,2.14-2.17,2.69-3,2.34-2.76,4.51-5.61,6.51-8.58,2-2.96,3.89-5.96,5.68-8.99,2.34-4.27,4.55-8.54,6.62-12.81,2.07-4.27,4.13-8.54,6.2-12.82.55-1.1,1.14-2.13,1.76-3.1.62-.96,1.27-2,1.96-3.1l1.24.83Z"/>
      <path class="st1" d="M782.01,560.16c5.79,0,11.23-.89,16.33-2.69,5.1-1.79,10.26-3.24,15.5-4.34l.83,1.86c-.97.55-1.9,1.17-2.79,1.86-.9.69-1.9,1.17-3,1.45-3.45,1.11-6.86,2.17-10.23,3.21-3.38,1.03-6.72,1.96-10.03,2.79-1.79.55-3.2,1-4.24,1.34-1.03.35-1.79.79-2.27,1.34-.48.55-.79,1.38-.93,2.48-.14,1.11-.35,2.62-.62,4.55-.41,3.17-.93,6.3-1.55,9.41-.62,3.1-1.28,6.24-1.96,9.4-.69,2.76-1.73,5.51-3.1,8.27-1.38,2.76-3.65,4.41-6.82,4.96-3.45.69-6.65.24-9.61-1.34-2.96-1.58-5.48-3.75-7.54-6.51-1.52-2.07-2.89-4.34-4.13-6.82s-2-5.03-2.27-7.65c-.55-3.44-.83-6.89-.83-10.34s.14-6.96.41-10.54c.28-2.2.24-4.13-.1-5.79-.34-1.65-1.55-3.1-3.62-4.34l-.21-.21-.62-.41-.21-.21c-3.58-3.58-5.92-7.3-7.03-11.16-1.1-3.86-.76-7.58,1.03-11.16,1.93-4,5.1-7.2,9.51-9.61,4.41-2.41,8.96-3.27,13.64-2.58,4.41.69,8.3,2.14,11.68,4.34,3.38,2.21,5.96,5.31,7.75,9.3,2.07,4.55,3.58,9.34,4.55,14.37.96,5.03,1.79,9.96,2.48,14.78ZM775.39,560.78c.14-5.37-.17-10.47-.93-15.29-.76-4.82-2.31-9.44-4.65-13.85-3.31-6.61-7.92-9.92-13.85-9.92-4,0-7.85,1.59-11.58,4.75-4.27,3.45-6.34,7.44-6.2,11.99.14,4.55,2.62,8.61,7.44,12.2l2.89-5.99c2.34-4.13,4.75-6.2,7.23-6.2,2.34,0,4.82,1.52,7.44,4.55-.83,2.48-1.65,4.96-2.48,7.44s-1.72,5.03-2.69,7.65c2.89,1.52,5.72,2.45,8.47,2.79,2.76.35,5.72.31,8.89-.1ZM757.82,563.26c-2.07,8.13-2.72,15.54-1.96,22.22.76,6.69,2.86,11.4,6.3,14.16,2.07-1.24,3.93-3.06,5.58-5.48,1.65-2.41,3-5.17,4.03-8.27,1.03-3.1,1.76-6.37,2.17-9.82.41-3.44.34-6.68-.21-9.71-2.48-.55-5.06-1.07-7.75-1.55-2.69-.48-5.41-1-8.17-1.55Z"/>
      <path class="st1" d="M962.45,557.06c-.97,1.11-1.86,2.17-2.69,3.21-.83,1.03-1.79,1.96-2.89,2.79-5.24,3.86-10.47,7.44-15.71,10.75-5.24,3.31-11.23,5.24-17.98,5.79-1.93.14-3.24.83-3.93,2.07-.69,1.24-1.31,2.55-1.86,3.93-1.65,4.13-3.24,8.27-4.75,12.4-1.52,4.13-3.24,8.2-5.17,12.2-.96,2.21-2.24,4.58-3.82,7.13-1.59,2.55-3.41,4.86-5.48,6.92-2.07,2.07-4.31,3.75-6.72,5.06-2.41,1.31-5,1.96-7.75,1.96-3.17,0-6.07-.62-8.68-1.86-2.62-1.24-4.96-2.89-7.03-4.96s-3.9-4.41-5.48-7.03c-1.59-2.62-2.93-5.24-4.03-7.86-2.21-6.61-3.72-13.23-4.55-19.84-.83-6.62-1.52-13.37-2.07-20.26-.14-1.65-.21-3.34-.21-5.06s-.14-3.82-.41-6.3c-1.1,1.1-2.03,2.03-2.79,2.79-.76.76-1.34,1.48-1.76,2.17-1.79,3.17-3.55,6.34-5.27,9.51-1.72,3.17-3.55,6.34-5.48,9.51-1.11,1.79-2.24,3.58-3.41,5.37-1.17,1.79-3,2.55-5.48,2.28-5.79-.69-9.85-2.76-12.2-6.2-2.34-3.44-3.86-7.78-4.55-13.02-.69-7.44-.41-14.6.83-21.5,1.24-6.89,3.17-13.64,5.79-20.26,1.38-3.44,3.17-5.17,5.37-5.17.55,0,1.14.07,1.76.21.62.14,1.27.35,1.96.62,3.72,1.38,5.17,3.93,4.34,7.65-.83,3.58-1.62,7.13-2.38,10.65-.76,3.51-1.34,7.06-1.76,10.64-.55,3.72-.86,7.54-.93,11.47-.07,3.93-.24,8.1-.52,12.51,2.2-1.52,3.65-3.03,4.34-4.55.69-1.52,1.51-2.96,2.48-4.34,1.93-2.89,3.75-5.86,5.48-8.89,1.72-3.03,3.55-5.92,5.48-8.68,1.1-1.65,2.44-3,4.03-4.03,1.58-1.03,3.55-1.14,5.89-.31,2.34.83,4.37,1.86,6.1,3.1,1.72,1.24,2.72,3.24,3,5.99.27,2.76.55,5.55.83,8.37.28,2.83.62,5.68,1.03,8.58.69,5.51,1.24,10.96,1.65,16.33.41,5.38,1.17,10.75,2.27,16.12.27,1.38.83,3.28,1.65,5.68.83,2.41,1.86,4.72,3.1,6.93,1.24,2.2,2.65,4.13,4.24,5.79,1.58,1.65,3.27,2.48,5.06,2.48,2.2,0,4.44-.72,6.72-2.17s4.1-2.93,5.48-4.45c5.1-5.79,8.96-12.06,11.58-18.81,2.62-6.75,4.96-13.78,7.03-21.08-1.38-.69-2.52-1.31-3.41-1.86-.9-.55-1.9-1.04-3-1.45-11.58-5.1-18.4-14.06-20.46-26.87-1.1-7.03-.93-13.75.52-20.15,1.45-6.41,4.1-12.64,7.96-18.71,1.79-2.75,4.1-5.13,6.93-7.13,2.82-2,5.96-3,9.4-3,3.03,0,5.82.86,8.37,2.58,2.55,1.72,4.58,4.24,6.1,7.54,1.79,4.13,2.93,8.37,3.41,12.71.48,4.34.38,8.72-.31,13.13-.83,6.2-1.72,12.33-2.69,18.4-.97,6.07-2,12.4-3.1,19.02,4,.41,7.65-.14,10.96-1.65,3.31-1.51,6.54-3.24,9.71-5.17,3.17-1.79,6.2-3.68,9.1-5.68,2.89-2,5.86-3.96,8.89-5.89l1.86,1.86ZM913.46,573.8c.96-3.58,1.83-6.93,2.58-10.03.76-3.1,1.48-6.23,2.17-9.4,1.1-6.2,2.03-12.44,2.79-18.71.76-6.27.58-12.64-.52-19.12-.41-2.34-1-4.55-1.76-6.61-.76-2.07-2.38-3.44-4.86-4.13-2.35-.69-4.34-.27-5.99,1.24-1.65,1.52-3.03,3.17-4.13,4.96-10.06,14.75-12.27,30.32-6.61,46.71,1.24,3.45,3.13,6.44,5.68,8.99,2.55,2.55,6.1,4.58,10.64,6.1Z"/>
    </g>
  </g>
  <path class="st1" d="M401.75,503.58s11.15-5.75,13.76-18.03c0,0,1.96,13.43,11.2,15.73,0,0-10.09,4.99-9.34,11.89,0,0-4.83-9.59-15.61-9.59h-.01Z"/>
</svg>